<svg width="60" height="47" viewBox="0 0 60 47" fill="none" xmlns="http://www.w3.org/2000/svg">
<path d="M55.7693 47H4.23066C1.89809 47 0 44.9718 0 42.4793V8.9768C0 6.48429 1.89809 4.45603 4.23066 4.45603H21.351L24.4154 0.212891H35.5846L38.649 4.45603H55.7693C58.1019 4.45603 60 6.48429 60 8.9768V42.4793C60 44.9718 58.1019 47 55.7693 47ZM4.23066 5.99689C2.69342 5.99689 1.44342 7.33261 1.44342 8.97526V42.4777C1.44342 44.1204 2.69342 45.4561 4.23066 45.4561H55.7693C57.3066 45.4561 58.5566 44.1204 58.5566 42.4777V8.9768C58.5566 7.33415 57.3066 5.99843 55.7693 5.99843H37.9388L34.8744 1.75529H25.1241L22.0612 5.99689H4.23066Z" fill="#1A5B8C"/>
<path d="M17.2618 5.99685H7.23291V2.05602C7.23291 0.922355 8.09607 0 9.15699 0H15.3391C16.4001 0 17.2632 0.922355 17.2632 2.05602V5.99685H17.2618ZM8.67633 4.45445H15.8184V2.05602C15.8184 1.77376 15.6033 1.5424 15.3377 1.5424H9.15699C8.89284 1.5424 8.67633 1.77222 8.67633 2.05602V4.45445Z" fill="#1A5B8C"/>
<path d="M50.3943 15.0512C48.5539 15.0512 47.0557 13.4501 47.0557 11.4836C47.0557 9.51703 48.5539 7.91602 50.3943 7.91602C52.2346 7.91602 53.7329 9.51703 53.7329 11.4836C53.7329 13.4501 52.2361 15.0512 50.3943 15.0512ZM50.3943 9.45842C49.3493 9.45842 48.4991 10.3669 48.4991 11.4836C48.4991 12.6003 49.3493 13.5088 50.3943 13.5088C51.4393 13.5088 52.2895 12.6003 52.2895 11.4836C52.2895 10.3669 51.4393 9.45842 50.3943 9.45842Z" fill="#1A5B8C"/>
<path d="M16.3521 26.6318C16.3521 34.6236 22.443 41.1815 30.0001 41.1815C37.5573 41.1815 43.6482 34.6236 43.6482 26.6318C43.6482 18.6399 37.5573 12.082 30.0001 12.082C22.443 12.082 16.3521 18.6399 16.3521 26.6318ZM18.7955 26.6318C18.7955 19.9801 23.8535 14.6244 30.0001 14.6244C36.1468 14.6244 41.2048 19.9801 41.2048 26.6318C41.2048 33.2834 36.1468 38.6391 30.0001 38.6391C23.8535 38.6391 18.7955 33.2834 18.7955 26.6318ZM20.053 26.6318C20.053 32.4427 24.484 37.2268 30.0001 37.2268C35.5163 37.2268 39.9473 32.4427 39.9473 26.6318C39.9473 20.8208 35.5163 16.0367 30.0001 16.0367C24.484 16.0367 20.053 20.8208 20.053 26.6318ZM22.4964 26.6318C22.4964 22.161 25.8931 18.5791 30.0001 18.5791C34.1073 18.5791 37.5039 22.1595 37.5039 26.6318C37.5039 31.1025 34.1058 34.6844 30.0001 34.6844C25.8944 34.6844 22.4964 31.104 22.4964 26.6318Z" fill="#1A5B8C" stroke="#1A5B8C"/>
</svg>
