<svg width="60" height="60" viewBox="0 0 60 60" fill="none" xmlns="http://www.w3.org/2000/svg">
<path d="M9.32189 60H1.03004C0.756859 60 0.494863 59.8903 0.301693 59.6951C0.108522 59.4999 0 59.2351 0 58.959V5.23097C0 3.84363 0.545323 2.51311 1.51601 1.53212C2.48669 0.551118 3.80321 0 5.17597 0C6.54872 0 7.86525 0.551118 8.83593 1.53212C9.80661 2.51311 10.3519 3.84363 10.3519 5.23097V58.959C10.3519 59.2351 10.2434 59.4999 10.0502 59.6951C9.85707 59.8903 9.59507 60 9.32189 60ZM2.06009 57.918H8.29185V5.23097C8.29185 4.39581 7.96357 3.59485 7.37923 3.0043C6.79488 2.41375 6.00235 2.08198 5.17597 2.08198C4.34958 2.08198 3.55705 2.41375 2.97271 3.0043C2.38837 3.59485 2.06009 4.39581 2.06009 5.23097V57.918Z" fill="#1A5B8C"/>
<path d="M58.9698 60H50.678C50.4048 60 50.1428 59.8903 49.9496 59.6951C49.7565 59.4999 49.6479 59.2351 49.6479 58.959V5.23097C49.6479 3.84363 50.1933 2.51311 51.164 1.53212C52.1346 0.551118 53.4512 0 54.8239 0C56.1967 0 57.5132 0.551118 58.4839 1.53212C59.4546 2.51311 59.9999 3.84363 59.9999 5.23097V58.959C59.9999 59.2351 59.8914 59.4999 59.6982 59.6951C59.505 59.8903 59.243 60 58.9698 60ZM51.708 57.918H57.9398V5.23097C57.9398 4.39581 57.6115 3.59485 57.0272 3.0043C56.4428 2.41375 55.6503 2.08198 54.8239 2.08198C53.9975 2.08198 53.205 2.41375 52.6207 3.0043C52.0363 3.59485 51.708 4.39581 51.708 5.23097V57.918Z" fill="#1A5B8C"/>
<path d="M50.678 28.0488H9.32179C9.04861 28.0488 8.78661 27.9391 8.59344 27.7439C8.40027 27.5487 8.29175 27.2839 8.29175 27.0078C8.29175 26.7317 8.40027 26.4669 8.59344 26.2717C8.78661 26.0765 9.04861 25.9668 9.32179 25.9668H50.678C50.9512 25.9668 51.2132 26.0765 51.4064 26.2717C51.5995 26.4669 51.7081 26.7317 51.7081 27.0078C51.7081 27.2839 51.5995 27.5487 51.4064 27.7439C51.2132 27.9391 50.9512 28.0488 50.678 28.0488Z" fill="#1A5B8C"/>
<path d="M50.678 52.9628H9.32179C9.04861 52.9628 8.78661 52.8532 8.59344 52.6579C8.40027 52.4627 8.29175 52.1979 8.29175 51.9218C8.29175 51.6458 8.40027 51.381 8.59344 51.1858C8.78661 50.9905 9.04861 50.8809 9.32179 50.8809H50.678C50.9512 50.8809 51.2132 50.9905 51.4064 51.1858C51.5995 51.381 51.7081 51.6458 51.7081 51.9218C51.7081 52.1979 51.5995 52.4627 51.4064 52.6579C51.2132 52.8532 50.9512 52.9628 50.678 52.9628Z" fill="#1A5B8C"/>
<path d="M20.6472 28.0482H12.9219C12.6487 28.0482 12.3867 27.9385 12.1935 27.7433C12.0004 27.548 11.8918 27.2833 11.8918 27.0072V8.07419C11.8918 7.7981 12.0004 7.53333 12.1935 7.3381C12.3867 7.14288 12.6487 7.0332 12.9219 7.0332H20.6472C20.9204 7.0332 21.1824 7.14288 21.3756 7.3381C21.5687 7.53333 21.6773 7.7981 21.6773 8.07419V27.0072C21.6773 27.2833 21.5687 27.548 21.3756 27.7433C21.1824 27.9385 20.9204 28.0482 20.6472 28.0482ZM13.9519 25.9662H19.6172V9.11518H13.9519V25.9662Z" fill="#1A5B8C"/>
<path d="M28.3738 28.0482H20.6485C20.3753 28.0482 20.1133 27.9385 19.9201 27.7433C19.7269 27.548 19.6184 27.2833 19.6184 27.0072V8.07419C19.6184 7.7981 19.7269 7.53333 19.9201 7.3381C20.1133 7.14288 20.3753 7.0332 20.6485 7.0332H28.3738C28.647 7.0332 28.909 7.14288 29.1021 7.3381C29.2953 7.53333 29.4038 7.7981 29.4038 8.07419V27.0072C29.4038 27.2833 29.2953 27.548 29.1021 27.7433C28.909 27.9385 28.647 28.0482 28.3738 28.0482ZM21.6785 25.9662H27.3437V9.11518H21.6785V25.9662Z" fill="#1A5B8C"/>
<path d="M41.6162 28.049C41.4809 28.0491 41.3469 28.0223 41.2219 27.97C41.0968 27.9178 40.9832 27.8412 40.8874 27.7445L27.645 14.3548C27.4519 14.1596 27.3435 13.8949 27.3435 13.6189C27.3435 13.343 27.4519 13.0783 27.645 12.8831L33.1093 7.35935C33.3025 7.16427 33.5644 7.05469 33.8374 7.05469C34.1105 7.05469 34.3724 7.16427 34.5656 7.35935L47.8081 20.7439C47.9038 20.8405 47.9798 20.9554 48.0316 21.0817C48.0835 21.2081 48.1101 21.3436 48.1101 21.4804C48.1101 21.6172 48.0835 21.7526 48.0316 21.879C47.9798 22.0054 47.9038 22.1202 47.8081 22.2169L42.345 27.738C42.2498 27.8358 42.1364 27.9137 42.0113 27.967C41.8862 28.0204 41.752 28.0483 41.6162 28.049ZM29.8299 13.6196L41.6162 25.5298L45.6231 21.4804L33.8381 9.57145L29.8299 13.6196Z" fill="#1A5B8C"/>
<path d="M20.6472 52.9661H12.9219C12.6487 52.9661 12.3867 52.8565 12.1935 52.6612C12.0004 52.466 11.8918 52.2012 11.8918 51.9251V32.9922C11.8918 32.7161 12.0004 32.4513 12.1935 32.2561C12.3867 32.0608 12.6487 31.9512 12.9219 31.9512H20.6472C20.9204 31.9512 21.1824 32.0608 21.3756 32.2561C21.5687 32.4513 21.6773 32.7161 21.6773 32.9922V51.9251C21.6773 52.2012 21.5687 52.466 21.3756 52.6612C21.1824 52.8565 20.9204 52.9661 20.6472 52.9661ZM13.9519 50.8842H19.6172V34.0331H13.9519V50.8842Z" fill="#1A5B8C"/>
<path d="M28.3738 52.9661H20.6485C20.3753 52.9661 20.1133 52.8565 19.9201 52.6612C19.7269 52.466 19.6184 52.2012 19.6184 51.9251V32.9922C19.6184 32.7161 19.7269 32.4513 19.9201 32.2561C20.1133 32.0608 20.3753 31.9512 20.6485 31.9512H28.3738C28.647 31.9512 28.909 32.0608 29.1021 32.2561C29.2953 32.4513 29.4038 32.7161 29.4038 32.9922V51.9251C29.4038 52.2012 29.2953 52.466 29.1021 52.6612C28.909 52.8565 28.647 52.9661 28.3738 52.9661ZM21.6785 50.8842H27.3437V34.0331H21.6785V50.8842Z" fill="#1A5B8C"/>
<path d="M41.6162 52.9663C41.4808 52.9663 41.3468 52.9392 41.2217 52.8867C41.0967 52.8343 40.9831 52.7574 40.8874 52.6605L27.645 39.2773C27.4519 39.0821 27.3435 38.8174 27.3435 38.5415C27.3435 38.2655 27.4519 38.0008 27.645 37.8056L33.1093 32.2832C33.3025 32.0881 33.5644 31.9785 33.8374 31.9785C34.1105 31.9785 34.3724 32.0881 34.5656 32.2832L47.8081 45.6664C47.9038 45.7631 47.9798 45.8779 48.0316 46.0043C48.0835 46.1306 48.1101 46.2661 48.1101 46.4029C48.1101 46.5397 48.0835 46.6752 48.0316 46.8015C47.9798 46.9279 47.9038 47.0427 47.8081 47.1394L42.345 52.6605C42.2493 52.7574 42.1358 52.8343 42.0107 52.8867C41.8857 52.9392 41.7516 52.9663 41.6162 52.9663ZM29.8299 38.5421L41.6162 50.4523L45.6231 46.4029L33.8381 34.4914L29.8299 38.5421Z" fill="#1A5B8C"/>
<path d="M5.17604 14.7091C4.90285 14.7091 4.64086 14.5994 4.44769 14.4042C4.25452 14.209 4.146 13.9442 4.146 13.6681V8.94333C4.146 8.66725 4.25452 8.40247 4.44769 8.20724C4.64086 8.01202 4.90285 7.90234 5.17604 7.90234C5.44922 7.90234 5.71122 8.01202 5.90439 8.20724C6.09756 8.40247 6.20608 8.66725 6.20608 8.94333V13.6681C6.20608 13.9442 6.09756 14.209 5.90439 14.4042C5.71122 14.5994 5.44922 14.7091 5.17604 14.7091Z" fill="#1A5B8C"/>
<path d="M5.17604 27.1714C4.90285 27.1714 4.64086 27.0617 4.44769 26.8665C4.25452 26.6712 4.146 26.4065 4.146 26.1304V21.4121C4.146 21.136 4.25452 20.8712 4.44769 20.676C4.64086 20.4808 4.90285 20.3711 5.17604 20.3711C5.44922 20.3711 5.71122 20.4808 5.90439 20.676C6.09756 20.8712 6.20608 21.136 6.20608 21.4121V26.1356C6.20472 26.4108 6.0956 26.6742 5.90257 26.8683C5.70955 27.0624 5.44833 27.1714 5.17604 27.1714Z" fill="#1A5B8C"/>
<path d="M5.17604 39.6297C4.90285 39.6297 4.64086 39.52 4.44769 39.3248C4.25452 39.1296 4.146 38.8648 4.146 38.5887V33.8652C4.146 33.5891 4.25452 33.3243 4.44769 33.1291C4.64086 32.9339 4.90285 32.8242 5.17604 32.8242C5.44922 32.8242 5.71122 32.9339 5.90439 33.1291C6.09756 33.3243 6.20608 33.5891 6.20608 33.8652V38.5887C6.20608 38.8648 6.09756 39.1296 5.90439 39.3248C5.71122 39.52 5.44922 39.6297 5.17604 39.6297Z" fill="#1A5B8C"/>
<path d="M5.17604 52.0978C4.90285 52.0978 4.64086 51.9881 4.44769 51.7929C4.25452 51.5977 4.146 51.3329 4.146 51.0568V46.332C4.146 46.0559 4.25452 45.7911 4.44769 45.5959C4.64086 45.4007 4.90285 45.291 5.17604 45.291C5.44922 45.291 5.71122 45.4007 5.90439 45.5959C6.09756 45.7911 6.20608 46.0559 6.20608 46.332V51.0568C6.20608 51.3329 6.09756 51.5977 5.90439 51.7929C5.71122 51.9881 5.44922 52.0978 5.17604 52.0978Z" fill="#1A5B8C"/>
<path d="M54.824 14.7091C54.5508 14.7091 54.2888 14.5994 54.0956 14.4042C53.9025 14.209 53.7939 13.9442 53.7939 13.6681V8.94333C53.7939 8.66725 53.9025 8.40247 54.0956 8.20724C54.2888 8.01202 54.5508 7.90234 54.824 7.90234C55.0972 7.90234 55.3592 8.01202 55.5523 8.20724C55.7455 8.40247 55.854 8.66725 55.854 8.94333V13.6681C55.854 13.9442 55.7455 14.209 55.5523 14.4042C55.3592 14.5994 55.0972 14.7091 54.824 14.7091Z" fill="#1A5B8C"/>
<path d="M54.824 27.1714C54.5508 27.1714 54.2888 27.0617 54.0956 26.8665C53.9025 26.6712 53.7939 26.4065 53.7939 26.1304V21.4121C53.7939 21.136 53.9025 20.8712 54.0956 20.676C54.2888 20.4808 54.5508 20.3711 54.824 20.3711C55.0972 20.3711 55.3592 20.4808 55.5523 20.676C55.7455 20.8712 55.854 21.136 55.854 21.4121V26.1356C55.8527 26.4108 55.7435 26.6742 55.5505 26.8683C55.3575 27.0624 55.0963 27.1714 54.824 27.1714Z" fill="#1A5B8C"/>
<path d="M54.824 39.6297C54.5508 39.6297 54.2888 39.52 54.0956 39.3248C53.9025 39.1296 53.7939 38.8648 53.7939 38.5887V33.8652C53.7939 33.5891 53.9025 33.3243 54.0956 33.1291C54.2888 32.9339 54.5508 32.8242 54.824 32.8242C55.0972 32.8242 55.3592 32.9339 55.5523 33.1291C55.7455 33.3243 55.854 33.5891 55.854 33.8652V38.5887C55.854 38.8648 55.7455 39.1296 55.5523 39.3248C55.3592 39.52 55.0972 39.6297 54.824 39.6297Z" fill="#1A5B8C"/>
<path d="M54.824 52.0978C54.5508 52.0978 54.2888 51.9881 54.0956 51.7929C53.9025 51.5977 53.7939 51.3329 53.7939 51.0568V46.332C53.7939 46.0559 53.9025 45.7911 54.0956 45.5959C54.2888 45.4007 54.5508 45.291 54.824 45.291C55.0972 45.291 55.3592 45.4007 55.5523 45.5959C55.7455 45.7911 55.854 46.0559 55.854 46.332V51.0568C55.854 51.3329 55.7455 51.5977 55.5523 51.7929C55.3592 51.9881 55.0972 52.0978 54.824 52.0978Z" fill="#1A5B8C"/>
</svg>
