<svg width="60" height="60" viewBox="0 0 60 60" fill="none" xmlns="http://www.w3.org/2000/svg">
<path d="M47.1429 47.1429C45.8714 47.1429 44.6285 47.5199 43.5713 48.2263C42.5142 48.9326 41.6902 49.9367 41.2036 51.1113C40.7171 52.286 40.5898 53.5786 40.8378 54.8256C41.0859 56.0726 41.6981 57.2181 42.5972 58.1171C43.4962 59.0162 44.6417 59.6284 45.8887 59.8765C47.1357 60.1245 48.4283 59.9972 49.603 59.5107C50.7776 59.0241 51.7816 58.2001 52.488 57.1429C53.1944 56.0858 53.5714 54.8429 53.5714 53.5714C53.5714 51.8665 52.8941 50.2313 51.6885 49.0257C50.483 47.8201 48.8478 47.1429 47.1429 47.1429ZM47.1429 55.7143C46.719 55.7143 46.3047 55.5886 45.9523 55.3531C45.6 55.1177 45.3253 54.783 45.1631 54.3915C45.0009 53.9999 44.9585 53.569 45.0412 53.1534C45.1239 52.7377 45.3279 52.3559 45.6276 52.0562C45.9273 51.7565 46.3091 51.5524 46.7248 51.4697C47.1405 51.3871 47.5713 51.4295 47.9629 51.5917C48.3544 51.7539 48.6891 52.0285 48.9246 52.3809C49.16 52.7333 49.2857 53.1476 49.2857 53.5714C49.2857 54.1397 49.0599 54.6848 48.6581 55.0867C48.2562 55.4885 47.7112 55.7143 47.1429 55.7143ZM21.4286 47.1429C20.1571 47.1429 18.9142 47.5199 17.857 48.2263C16.7999 48.9326 15.9759 49.9367 15.4893 51.1113C15.0028 52.286 14.8755 53.5786 15.1235 54.8256C15.3716 56.0726 15.9838 57.2181 16.8829 58.1171C17.7819 59.0162 18.9274 59.6284 20.1744 59.8765C21.4214 60.1245 22.714 59.9972 23.8887 59.5107C25.0633 59.0241 26.0674 58.2001 26.7737 57.1429C27.4801 56.0858 27.8571 54.8429 27.8571 53.5714C27.8571 51.8665 27.1798 50.2313 25.9743 49.0257C24.7687 47.8201 23.1335 47.1429 21.4286 47.1429ZM21.4286 55.7143C21.0048 55.7143 20.5905 55.5886 20.2381 55.3531C19.8857 55.1177 19.611 54.783 19.4488 54.3915C19.2866 53.9999 19.2442 53.569 19.3269 53.1534C19.4096 52.7377 19.6137 52.3559 19.9133 52.0562C20.213 51.7565 20.5948 51.5524 21.0105 51.4697C21.4262 51.3871 21.8571 51.4295 22.2486 51.5917C22.6402 51.7539 22.9748 52.0285 23.2103 52.3809C23.4458 52.7333 23.5714 53.1476 23.5714 53.5714C23.5714 54.1397 23.3457 54.6848 22.9438 55.0867C22.5419 55.4885 21.9969 55.7143 21.4286 55.7143ZM59.0357 0.364286C58.7443 0.172318 58.4105 0.0544061 58.0632 0.0207961C57.7159 -0.012814 57.3656 0.0388945 57.0429 0.171428L31.7143 10.7143H19.2857C18.5676 10.7244 17.8513 10.7889 17.1429 10.9071V2.14286C17.1429 1.57454 16.9171 1.02949 16.5152 0.627628C16.1134 0.225765 15.5683 0 15 0H0V4.28571H12.8571V12.45C10.9122 13.5806 9.2949 15.1979 8.16429 17.1429H6.42857C4.72361 17.1429 3.08848 17.8202 1.88289 19.0257C0.677294 20.2313 0 21.8665 0 23.5714C0 25.2764 0.677294 26.9115 1.88289 28.1171C3.08848 29.3227 4.72361 30 6.42857 30H8.16429C9.2949 31.945 10.9122 33.5622 12.8571 34.6929V38.5714C12.8571 40.2764 13.5344 41.9115 14.74 43.1171C15.9456 44.3227 17.5808 45 19.2857 45H36.4286V40.7143H19.2857C18.7174 40.7143 18.1723 40.4885 17.7705 40.0867C17.3686 39.6848 17.1429 39.1397 17.1429 38.5714V36.2357C17.8513 36.354 18.5676 36.4185 19.2857 36.4286H31.7143L57.0429 46.9714C57.3675 47.1048 57.7199 47.1564 58.0692 47.1217C58.4184 47.0869 58.7538 46.967 59.0458 46.7723C59.3378 46.5776 59.5776 46.3142 59.7439 46.0051C59.9103 45.6961 59.9982 45.351 60 45V2.14286C59.9982 1.78991 59.9092 1.44288 59.741 1.13261C59.5727 0.822326 59.3305 0.558403 59.0357 0.364286ZM6.42857 25.7143C5.86025 25.7143 5.31521 25.4885 4.91334 25.0867C4.51148 24.6848 4.28571 24.1397 4.28571 23.5714C4.28571 23.0031 4.51148 22.4581 4.91334 22.0562C5.31521 21.6543 5.86025 21.4286 6.42857 21.4286V25.7143ZM10.7143 23.5714C10.7143 21.2981 11.6173 19.118 13.2248 17.5105C14.8323 15.9031 17.0124 15 19.2857 15H30V32.1429H19.2857C17.0124 32.1429 14.8323 31.2398 13.2248 29.6323C11.6173 28.0249 10.7143 25.8447 10.7143 23.5714ZM55.7143 41.7857L34.2857 32.85V14.2929L55.7143 5.35714V41.7857ZM21.4286 17.1429H25.7143V30H21.4286V17.1429ZM15 19.2857H19.2857V27.8571H15V19.2857Z" fill="#1A5B8C"/>
</svg>
