<svg width="63" height="63" viewBox="0 0 63 63" fill="none" xmlns="http://www.w3.org/2000/svg">
<path d="M62.93 38.46C62.93 34.34 59.69 30.96 55.63 30.73V24.15C55.63 22.23 54.08 20.66 52.16 20.63V13.32C52.16 12.79 51.73 12.37 51.21 12.37H43.76V11.38C43.76 5.11 38.66 0 32.38 0C30.21 0 28.18 0.62 26.45 1.68C24.72 0.62 22.7 0 20.52 0C14.25 0 9.14 5.1 9.14 11.38V12.37H0.95C0.42 12.37 0 12.8 0 13.32V61.98C0 62.51 0.43 62.93 0.95 62.93H13.56H51.2C51.73 62.93 52.15 62.5 52.15 61.98V56.29C54.07 56.26 55.62 54.7 55.62 52.77V46.19C59.69 45.95 62.93 42.58 62.93 38.46ZM27.98 44.14H26.06C23.01 44.06 20.52 41.51 20.52 38.45C20.52 36.93 21.11 35.5 22.19 34.43C23.26 33.36 24.69 32.76 26.21 32.76H27.98V44.14ZM26.99 46.05H28.89L29.65 46.12C29.82 46.14 30 46.15 30.17 46.17V55.08C30.17 55.96 29.46 56.67 28.58 56.67C27.7 56.67 26.99 55.96 26.99 55.08V46.05ZM31.23 44.36C30.78 44.31 30.34 44.27 29.89 44.23V32.68C35.82 32.13 42.43 31.42 48.58 26.99V49.91C42.92 45.83 36.92 44.92 31.23 44.36ZM32.38 1.9C37.6 1.9 41.85 6.15 41.85 11.37V12.36H31.9V11.37C31.9 8.02 30.43 5.01 28.12 2.92C29.4 2.27 30.85 1.9 32.38 1.9ZM22.91 12.36V11.37C22.91 8.39 24.3 5.73 26.45 4C28.61 5.74 29.99 8.39 29.99 11.37V12.36H22.91ZM11.06 11.37C11.06 6.15 15.31 1.9 20.53 1.9C22.06 1.9 23.51 2.27 24.79 2.92C22.48 5 21.01 8.01 21.01 11.37V12.36H13.56H11.06V11.37ZM8.21 55.02V14.27H12.61V59.61L8.21 55.02ZM6.3 14.27V55.02L1.9 59.6V14.27H6.3ZM3.18 61.02L7.25 56.78L11.32 61.02H3.18ZM14.52 61.02V14.27H21.01V16.82C19.64 17.23 18.63 18.5 18.63 20C18.63 21.84 20.13 23.34 21.97 23.34C23.81 23.34 25.31 21.84 25.31 20C25.31 18.49 24.3 17.23 22.93 16.82V14.27H41.87V16.82C40.5 17.23 39.49 18.5 39.49 20C39.49 21.84 40.99 23.34 42.83 23.34C44.67 23.34 46.17 21.84 46.17 20C46.17 18.49 45.16 17.23 43.79 16.82V14.27H50.28V21.17C49.29 21.79 48.62 22.89 48.62 24.15V24.59C42.44 29.6 35.78 30.23 29.33 30.83L28.93 30.87H26.26C24.23 30.87 22.32 31.66 20.89 33.1C19.45 34.53 18.66 36.44 18.66 38.47C18.66 42.23 21.48 45.41 25.13 45.97V55.09C25.13 57.02 26.7 58.59 28.63 58.59C30.56 58.59 32.13 57.02 32.13 55.09V46.36C37.62 46.95 43.35 48.06 48.63 52.32V52.76C48.63 54.02 49.3 55.11 50.29 55.74V61.01H14.52V61.02ZM21.96 18.57C22.75 18.57 23.39 19.21 23.39 20C23.39 20.79 22.75 21.43 21.96 21.43C21.17 21.43 20.53 20.79 20.53 20C20.53 19.21 21.17 18.57 21.96 18.57ZM42.8 18.57C43.59 18.57 44.23 19.21 44.23 20C44.23 20.79 43.59 21.43 42.8 21.43C42.01 21.43 41.37 20.79 41.37 20C41.37 19.21 42.01 18.57 42.8 18.57ZM53.72 52.77C53.72 53.66 53 54.38 52.11 54.38C51.22 54.38 50.5 53.66 50.5 52.77V51.89C50.5 51.88 50.5 51.88 50.5 51.87V25.04C50.5 25.03 50.5 25.03 50.5 25.02V24.14C50.5 23.25 51.22 22.53 52.11 22.53C53 22.53 53.72 23.25 53.72 24.14V31.65V45.26V52.77ZM55.62 44.29V32.62C58.63 32.85 61.02 35.38 61.02 38.45C61.02 41.52 58.64 44.06 55.62 44.29Z" fill="#1A5B8C"/>
</svg>
