<svg width="60" height="60" viewBox="0 0 60 60" fill="none" xmlns="http://www.w3.org/2000/svg">
<path d="M30.2343 45.0988C29.1197 45.0988 28.1444 44.5497 28.1444 43.9223C28.1444 41.0203 30.7917 38.7458 33.0209 36.9419C34.4142 35.7654 35.6682 34.7458 35.6682 33.9615C35.6682 32.236 33.1602 30.7458 29.9557 30.7458C27.5871 30.7458 25.3578 31.6086 24.6612 32.8635C24.2432 33.4909 23.1286 33.8046 22.0139 33.5694C20.8993 33.3341 20.342 32.7066 20.76 32.0792C22.1533 29.8046 25.9152 28.3145 30.095 28.3145C35.5288 28.3145 39.9873 30.8243 39.9873 33.8831C39.9873 35.3733 38.3154 36.7066 36.6434 38.1968C34.6928 39.8439 32.4636 41.7262 32.4636 43.8439C32.3243 44.5497 31.349 45.0988 30.2343 45.0988Z" fill="#115D90"/>
<path d="M30.2343 49.5689C31.7733 49.5689 33.0209 48.8666 33.0209 48.0003C33.0209 47.1339 31.7733 46.4316 30.2343 46.4316C28.6953 46.4316 27.4478 47.1339 27.4478 48.0003C27.4478 48.8666 28.6953 49.5689 30.2343 49.5689Z" fill="#115D90"/>
<path d="M59.2147 19.3725L41.9379 13.098C42.9132 11.8431 43.3312 10.5098 43.3312 9.01961C43.3312 4.07843 37.3401 0 30.095 0C22.8499 0 16.8588 4.07843 16.8588 9.01961C16.8588 10.4314 17.4161 11.8431 18.252 13.098L0.975301 19.3725C0.417987 19.6078 0 20 0 20.3922L0 58.8235C0 59.451 0.9753 60 2.08993 60H57.8214C58.936 60 59.9113 59.451 59.9113 58.8235V20.3922C60.19 19.9216 59.772 19.6078 59.2147 19.3725ZM21.1779 9.01961C21.1779 5.33333 25.2185 2.35294 30.2343 2.35294C35.2501 2.35294 39.2907 5.33333 39.2907 9.01961C39.2907 10.0392 39.012 10.9804 38.4547 11.7647L31.3489 9.17647C30.6523 8.94118 29.8163 8.94118 29.1197 9.17647L22.0139 11.7647C21.4566 10.902 21.1779 9.96078 21.1779 9.01961ZM56.0101 57.6471H4.45852V21.0196L22.1532 14.5882L30.2343 11.5294L36.3648 13.8039C35.8075 14.1961 35.1108 14.5882 34.4142 14.8235C33.2995 14.3529 31.7669 14.0392 30.2343 14.0392C28.1444 14.0392 26.3331 14.5882 24.9398 15.3725C24.8005 15.451 24.6612 15.5294 24.5218 15.6863C23.6859 16.3137 23.2679 17.098 23.2679 17.9608C23.2679 20.1569 26.3331 21.8824 30.2343 21.8824C34.1355 21.8824 37.2007 20.1569 37.2007 17.9608C37.2007 17.5686 37.0614 17.098 36.7828 16.7843C37.8974 16.3137 39.012 15.7647 39.848 15.1373L55.8708 21.0196V57.6471H56.0101ZM33.0209 17.9608C33.0209 18.8235 31.7669 19.5294 30.2343 19.5294C28.7017 19.5294 27.4477 18.8235 27.4477 17.9608C27.4477 17.8824 27.4477 17.8039 27.4477 17.7255C28.2837 17.8824 29.259 17.9608 30.2343 17.9608C31.2096 17.9608 32.0456 17.8824 33.0209 17.7255C33.0209 17.8824 33.0209 17.9608 33.0209 17.9608Z" fill="#115D90"/>
</svg>
