<svg width="60" height="54" viewBox="0 0 60 54" fill="none" xmlns="http://www.w3.org/2000/svg">
<path d="M0 1.45946L0 7.29729C7.15909e-05 8.06139 0.649658 8.75667 1.36364 8.75675H2.72727V33.5675C2.72734 34.3316 3.37693 35.0269 4.09091 35.027H10.0568L5.60369 44.5818C5.20381 45.2692 5.47483 46.2969 6.15146 46.659C6.82808 47.0211 7.75888 46.6363 8.03267 45.8817L13.1037 35.027H19.0909V45.2431C19.0807 46.0142 19.7341 46.7234 20.4545 46.7234C21.175 46.7234 21.8284 46.0142 21.8182 45.2431V35.027H27.8054L32.8764 45.8817C33.1502 46.6364 34.081 47.0211 34.7576 46.659C35.4343 46.2969 35.7053 45.2692 35.3054 44.5818L30.8523 35.027H36.8182C37.5322 35.0269 38.1817 34.3316 38.1818 33.5675V8.75675H39.5454C40.2594 8.75667 40.909 8.06139 40.9091 7.29729V1.45946C40.909 0.695286 40.2594 7.29729e-05 39.5454 0L1.36364 0C0.621282 0 0 0.801826 0 1.45946ZM2.72727 2.91892H38.1818V5.83783H2.72727V2.91892ZM49.7727 2.91892C46.3999 2.91892 43.6364 5.87658 43.6364 9.48647C43.6364 13.0964 46.3999 16.054 49.7727 16.054C53.1456 16.054 55.9091 13.0964 55.9091 9.48647C55.9091 5.87658 53.1456 2.91892 49.7727 2.91892ZM49.7727 5.83783C51.6717 5.83783 53.1818 7.45411 53.1818 9.48647C53.1818 11.5188 51.6717 13.1351 49.7727 13.1351C47.8738 13.1351 46.3636 11.5188 46.3636 9.48647C46.3636 7.45411 47.8738 5.83783 49.7727 5.83783ZM5.45455 8.75675H35.4545V32.1081H5.45455V8.75675ZM30 13.1351H23.1818C22.3914 13.1351 21.8182 13.9066 21.8182 14.5946C21.8182 15.2826 22.4669 16.054 23.1818 16.054H27.2727L21.669 24.0354L17.3224 19.3834C17.0725 19.1158 16.7079 18.9729 16.3636 18.9729C16.0194 18.9729 15.6561 19.1145 15.4048 19.3834L9.95028 25.2213C9.68534 25.4909 9.5493 25.8919 9.54545 26.2702C9.54204 26.6403 9.66919 27.0334 9.92047 27.3053C10.1759 27.5817 10.554 27.7297 10.9091 27.7297C11.2543 27.7297 11.6136 27.5686 11.8679 27.2964L16.3636 22.4848L20.8594 27.2964C21.109 27.5635 21.4713 27.7297 21.8182 27.7297C22.2298 27.7297 22.6526 27.4971 22.9048 27.1368L28.6364 18.9501V21.8919C28.6262 22.6629 29.2795 23.3721 30 23.3721C30.7205 23.3721 31.3738 22.6629 31.3636 21.8919C31.3636 21.8919 31.3636 14.663 31.3636 14.5946C31.3636 13.6986 30.9108 13.1351 30 13.1351ZM42.9758 17.5135C41.9875 17.5135 41.0705 17.8835 40.419 18.6081C39.8275 19.2659 39.5454 20.2091 39.5454 21.1621C39.5454 21.2592 44.5526 52.7685 44.5526 52.7685C44.6539 53.4538 45.268 54.0084 45.9162 53.9999H53.6293C54.2775 54.0087 54.8916 53.4538 54.9929 52.7685C54.9929 52.7685 60 21.2618 60 21.1621C60 20.2074 59.7163 19.2641 59.1264 18.6081C58.4749 17.8835 57.5579 17.5135 56.5696 17.5135H42.9758ZM42.9546 20.4324H56.5909C57.2176 20.4324 57.3448 20.7125 57.2728 21.1621L52.4787 51.081H47.0668L42.2728 21.1621C42.1816 20.5932 42.5693 20.4324 42.9546 20.4324Z" fill="#1A5B8C"/>
</svg>
