<svg width="24" height="24" viewBox="0 0 24 24" fill="none" xmlns="http://www.w3.org/2000/svg">
<path d="M9.29702 3.1656C9.28694 3.24268 9.353 3.60423 9.43807 3.96375C9.52313 4.32326 9.5872 4.63562 9.58474 4.64729C9.58697 4.66605 9.3084 4.78322 8.96321 4.92272C7.73248 5.41525 6.46718 6.39409 5.60421 7.51994C3.9572 9.69099 3.49187 12.511 4.35712 15.128C4.67941 16.1233 5.54456 17.5091 6.31243 18.2707C9.0022 20.9549 12.8302 21.5908 16.2343 19.9236C17.9614 19.074 19.3804 17.5429 20.1396 15.7061C21.4695 12.4859 20.6242 8.80661 17.9985 6.43476C17.3386 5.83648 15.9781 4.97865 15.5894 4.91379C15.3737 4.87984 15.3594 4.88897 15.2075 5.1978C15.1161 5.36718 15.0764 5.58422 15.109 5.66434C15.1463 5.75155 15.4179 5.93154 15.7087 6.07906C17.4205 6.91454 18.8107 8.54061 19.3711 10.3732C20.2698 13.2716 19.4266 16.1509 17.0974 18.1517C15.2317 19.7457 12.3135 20.2552 9.92073 19.3899C8.36818 18.8262 7.29921 18.0246 6.33635 16.6911C5.54019 15.5943 5.19105 14.6968 5.0278 13.3881C4.77334 11.2796 5.41796 9.22328 6.83499 7.64301C7.70864 6.67182 9.74725 5.43174 9.8607 5.80342C9.88147 5.881 9.97123 6.24762 10.0538 6.6188C10.2653 7.52342 10.3008 7.53102 11.161 6.77028C11.5266 6.44621 12.2506 5.80262 12.781 5.34313C13.426 4.78018 13.7321 4.47386 13.7067 4.38918C13.6748 4.21779 13.4099 4.09409 12.5929 3.85839C12.2022 3.74435 11.3332 3.49141 10.6749 3.29576C10.0119 3.093 9.43388 2.95717 9.39096 2.98456C9.34803 3.01195 9.30464 3.10019 9.29702 3.1656Z" fill="#1A5B8C"/>
<rect x="7.07471" y="15.979" width="10.2111" height="0.931525" fill="#1A5B8C"/>
<rect x="7.58545" y="7.81055" width="9.26292" height="0.859869" fill="#1A5B8C"/>
<rect x="15.9731" y="16.9106" width="9.10028" height="0.875236" transform="rotate(-90 15.9731 16.9106)" fill="#1A5B8C"/>
<rect x="7.58545" y="16.9106" width="9.10028" height="0.875236" transform="rotate(-90 7.58545 16.9106)" fill="#1A5B8C"/>
<rect x="8.46069" y="8.67041" width="7.51244" height="0.931525" fill="#1A5B8C"/>
<path d="M8.75464 15.994H10.079C10.2405 15.994 10.3725 15.8645 10.3725 15.7052V14.405C10.3725 14.246 10.2407 14.1162 10.079 14.1162H8.75464C8.59276 14.1162 8.46069 14.2457 8.46069 14.405V15.7055C8.46069 15.8645 8.59276 15.994 8.75464 15.994ZM9.24099 14.345H9.59177V14.7805H9.24099V14.345ZM8.69362 14.405C8.69362 14.3718 8.72087 14.345 8.75464 14.345H9.00806V14.8949C9.00806 14.9581 9.06047 15.0093 9.12453 15.0093H9.70823C9.77275 15.0093 9.82469 14.9581 9.82469 14.8949V14.345H10.079C10.1124 14.345 10.1396 14.3718 10.1396 14.405V15.7055C10.1396 15.7386 10.1124 15.7654 10.079 15.7654H8.75464C8.72087 15.7654 8.69362 15.7386 8.69362 15.7055V14.405Z" fill="#1A5B8C"/>
<path d="M8.75464 14.2743H10.079C10.2405 14.2743 10.3725 14.1448 10.3725 13.9855V12.6853C10.3725 12.5262 10.2407 12.3965 10.079 12.3965H8.75464C8.59276 12.3965 8.46069 12.526 8.46069 12.6853V13.9857C8.46069 14.1448 8.59276 14.2743 8.75464 14.2743ZM9.24099 12.6253H9.59177V13.0608H9.24099V12.6253ZM8.69362 12.6853C8.69362 12.6521 8.72087 12.6253 8.75464 12.6253H9.00806V13.1752C9.00806 13.2384 9.06047 13.2896 9.12453 13.2896H9.70823C9.77275 13.2896 9.82469 13.2384 9.82469 13.1752V12.6253H10.079C10.1124 12.6253 10.1396 12.6521 10.1396 12.6853V13.9857C10.1396 14.0189 10.1124 14.0457 10.079 14.0457H8.75464C8.72087 14.0457 8.69362 14.0189 8.69362 13.9857V12.6853Z" fill="#1A5B8C"/>
<path d="M10.5051 14.2743H11.8295C11.9909 14.2743 12.123 14.1448 12.123 13.9855V12.6853C12.123 12.5262 11.9912 12.3965 11.8295 12.3965H10.5051C10.3432 12.3965 10.2112 12.526 10.2112 12.6853V13.9857C10.2112 14.1448 10.3432 14.2743 10.5051 14.2743ZM10.9915 12.6253H11.3423V13.0608H10.9915V12.6253ZM10.4441 12.6853C10.4441 12.6521 10.4714 12.6253 10.5051 12.6253H10.7586V13.1752C10.7586 13.2384 10.811 13.2896 10.875 13.2896H11.4587C11.5232 13.2896 11.5752 13.2384 11.5752 13.1752V12.6253H11.8295C11.8628 12.6253 11.8901 12.6521 11.8901 12.6853V13.9857C11.8901 14.0189 11.8628 14.0457 11.8295 14.0457H10.5051C10.4714 14.0457 10.4441 14.0189 10.4441 13.9857V12.6853Z" fill="#1A5B8C"/>
<path d="M10.4321 15.994H11.7565C11.918 15.994 12.05 15.8645 12.05 15.7052V14.405C12.05 14.246 11.9182 14.1162 11.7565 14.1162H10.4321C10.2703 14.1162 10.1382 14.2457 10.1382 14.405V15.7055C10.1382 15.8645 10.2703 15.994 10.4321 15.994ZM10.9185 14.345H11.2693V14.7805H10.9185V14.345ZM10.3711 14.405C10.3711 14.3718 10.3984 14.345 10.4321 14.345H10.6856V14.8949C10.6856 14.9581 10.738 15.0093 10.802 15.0093H11.3857C11.4502 15.0093 11.5022 14.9581 11.5022 14.8949V14.345H11.7565C11.7898 14.345 11.8171 14.3718 11.8171 14.405V15.7055C11.8171 15.7386 11.7898 15.7654 11.7565 15.7654H10.4321C10.3984 15.7654 10.3711 15.7386 10.3711 15.7055V14.405Z" fill="#1A5B8C"/>
<path d="M12.1096 15.994H13.434C13.5954 15.994 13.7275 15.8645 13.7275 15.7052V14.405C13.7275 14.246 13.5957 14.1162 13.434 14.1162H12.1096C11.9477 14.1162 11.8157 14.2457 11.8157 14.405V15.7055C11.8157 15.8645 11.9477 15.994 12.1096 15.994ZM12.596 14.345H12.9468V14.7805H12.596V14.345ZM12.0486 14.405C12.0486 14.3718 12.0758 14.345 12.1096 14.345H12.363V14.8949C12.363 14.9581 12.4155 15.0093 12.4795 15.0093H13.0632C13.1277 15.0093 13.1797 14.9581 13.1797 14.8949V14.345H13.434C13.4673 14.345 13.4946 14.3718 13.4946 14.405V15.7055C13.4946 15.7386 13.4673 15.7654 13.434 15.7654H12.1096C12.0758 15.7654 12.0486 15.7386 12.0486 15.7055V14.405Z" fill="#1A5B8C"/>
</svg>
