<svg width="56" height="60" viewBox="0 0 56 60" fill="none" xmlns="http://www.w3.org/2000/svg">
<path fill-rule="evenodd" clip-rule="evenodd" d="M18.9272 7.54366e-06C18.5924 0.00110504 18.2718 0.111121 18.036 0.305857C17.8002 0.500594 17.6684 0.764104 17.6697 1.03843V2.81021H5.22743C2.35471 2.81021 0 4.72236 0 7.07096V55.7332C0 58.0818 2.35471 60 5.22743 60H50.7726C53.6453 60 56 58.0818 56 55.7332V7.07096C56 4.72236 53.6453 2.81021 50.7726 2.81021H38.1996V1.03843C38.2003 0.901917 38.1679 0.76665 38.1045 0.640427C38.041 0.514205 37.9477 0.399523 37.8298 0.302992C37.712 0.206462 37.5721 0.129992 37.418 0.0779912C37.2639 0.0259902 37.0989 -0.000513778 36.9322 7.54366e-06H18.9272ZM20.1946 2.06876H35.6747V5.61232H20.1946V2.06876ZM5.22743 4.87896H17.6697V6.64266C17.6684 6.91699 17.8002 7.18049 18.036 7.37523C18.2718 7.56996 18.5924 7.67998 18.9272 7.68107H36.9322C37.0988 7.68159 37.2639 7.65509 37.418 7.60309C37.5721 7.55109 37.712 7.47462 37.8298 7.37809C37.9477 7.28156 38.041 7.16688 38.1045 7.04066C38.1679 6.91444 38.2003 6.77917 38.1996 6.64266V4.87896H50.7726C52.3002 4.87896 53.4751 5.84095 53.4751 7.07096V55.7332C53.4751 56.9632 52.3002 57.9312 50.7726 57.9312H5.22743C3.69984 57.9312 2.52494 56.9632 2.52494 55.7332V7.07096C2.52494 5.84095 3.69984 4.87896 5.22743 4.87896ZM9.46854 11.958C9.30192 11.9575 9.13683 11.984 8.98278 12.036C8.82872 12.088 8.68876 12.1644 8.57094 12.261C8.45313 12.3575 8.35979 12.4722 8.29632 12.5984C8.23286 12.7246 8.20051 12.8599 8.20114 12.9964V20.9058C8.20148 21.0418 8.23455 21.1764 8.29845 21.3019C8.36236 21.4274 8.45584 21.5414 8.57356 21.6373C8.69128 21.7332 8.83092 21.8091 8.98449 21.8607C9.13806 21.9123 9.30255 21.9386 9.46854 21.9381H19.1985C19.532 21.937 19.8515 21.8278 20.0871 21.6344C20.3227 21.441 20.4553 21.179 20.456 20.9058V12.9964C20.4573 12.7221 20.3255 12.4586 20.0897 12.2638C19.8538 12.0691 19.5333 11.9591 19.1985 11.958H9.46854ZM27.1012 12.4994C26.9354 12.4989 26.7711 12.5251 26.6177 12.5766C26.4643 12.6281 26.3248 12.7038 26.2071 12.7995C26.0894 12.8952 25.9959 13.0089 25.9318 13.1342C25.8678 13.2595 25.8345 13.3939 25.8338 13.5298C25.8341 13.6658 25.8672 13.8004 25.9311 13.9259C25.995 14.0514 26.0885 14.1654 26.2062 14.2613C26.3239 14.3572 26.4636 14.4331 26.6172 14.4847C26.7707 14.5364 26.9352 14.5627 27.1012 14.5621H46.1764C46.5104 14.5616 46.8305 14.4526 47.0666 14.2592C47.3028 14.0657 47.4357 13.8034 47.4364 13.5298C47.4351 13.2565 47.3018 12.9947 47.0658 12.8017C46.8297 12.6086 46.5099 12.5 46.1764 12.4994H27.1012ZM10.7261 14.0267H17.931V19.8673H10.7261V14.0267ZM27.1012 19.334C26.9354 19.3335 26.7711 19.3597 26.6177 19.4112C26.4643 19.4627 26.3248 19.5384 26.2071 19.6341C26.0894 19.7298 25.9958 19.8435 25.9318 19.9688C25.8678 20.0941 25.8345 20.2285 25.8338 20.3643C25.8332 20.5008 25.8655 20.6361 25.929 20.7623C25.9924 20.8886 26.0858 21.0033 26.2036 21.0998C26.3214 21.1963 26.4614 21.2728 26.6154 21.3248C26.7695 21.3768 26.9346 21.4033 27.1012 21.4027H38.1528C38.3194 21.4033 38.4845 21.3768 38.6386 21.3248C38.7926 21.2728 38.9326 21.1963 39.0504 21.0998C39.1682 21.0033 39.2616 20.8886 39.325 20.7623C39.3885 20.6361 39.4208 20.5008 39.4202 20.3643C39.4195 20.2285 39.3862 20.0941 39.3222 19.9688C39.2582 19.8435 39.1646 19.7298 39.0469 19.6341C38.9292 19.5384 38.7897 19.4627 38.6363 19.4112C38.4829 19.3597 38.3186 19.3335 38.1528 19.334H27.1012ZM9.46854 27.6191C9.30192 27.6186 9.13683 27.6451 8.98277 27.6971C8.82872 27.7491 8.68875 27.8256 8.57094 27.9221C8.45312 28.0186 8.35979 28.1333 8.29632 28.2595C8.23286 28.3858 8.20051 28.521 8.20114 28.6575V36.5669C8.20051 36.7034 8.23286 36.8387 8.29632 36.9649C8.35979 37.0911 8.45312 37.2058 8.57094 37.3023C8.68875 37.3989 8.82872 37.4753 8.98277 37.5273C9.13683 37.5793 9.30192 37.6058 9.46854 37.6053H19.1985C19.5333 37.6042 19.8539 37.4942 20.0897 37.2995C20.3255 37.1047 20.4573 36.8412 20.456 36.5669V28.6575C20.4573 28.3832 20.3255 28.1197 20.0897 27.925C19.8539 27.7302 19.5333 27.6202 19.1985 27.6191H9.46854ZM27.1012 28.1605C26.9354 28.16 26.7711 28.1862 26.6177 28.2377C26.4643 28.2892 26.3248 28.365 26.2071 28.4606C26.0894 28.5563 25.9958 28.6701 25.9318 28.7953C25.8678 28.9206 25.8345 29.055 25.8338 29.1909C25.8332 29.3274 25.8655 29.4627 25.929 29.5889C25.9924 29.7151 26.0858 29.8298 26.2036 29.9264C26.3214 30.0229 26.4614 30.0994 26.6154 30.1514C26.7695 30.2033 26.9346 30.2298 27.1012 30.2293H46.1764C46.3424 30.229 46.5067 30.202 46.6599 30.1496C46.8131 30.0972 46.9522 30.0207 47.0692 29.9242C47.1863 29.8277 47.2789 29.7133 47.3419 29.5875C47.4049 29.4617 47.437 29.3269 47.4364 29.1909C47.4351 28.9176 47.3018 28.6558 47.0658 28.4628C46.8297 28.2697 46.5099 28.1611 46.1764 28.1605H27.1012ZM10.7261 29.6879H17.931V35.5366H10.7261V29.6879ZM27.1012 34.9951C26.9346 34.9946 26.7695 35.0211 26.6154 35.0731C26.4614 35.1251 26.3214 35.2015 26.2036 35.2981C26.0858 35.3946 25.9924 35.5093 25.929 35.6355C25.8655 35.7618 25.8332 35.897 25.8338 36.0335C25.8345 36.1694 25.8678 36.3038 25.9318 36.4291C25.9958 36.5544 26.0894 36.6681 26.2071 36.7638C26.3248 36.8595 26.4643 36.9352 26.6177 36.9867C26.7711 37.0382 26.9354 37.0644 27.1012 37.0639H38.1528C38.3186 37.0644 38.4829 37.0382 38.6363 36.9867C38.7897 36.9352 38.9292 36.8594 39.0469 36.7638C39.1646 36.6681 39.2582 36.5544 39.3222 36.4291C39.3862 36.3038 39.4195 36.1694 39.4202 36.0335C39.4208 35.897 39.3885 35.7618 39.325 35.6355C39.2616 35.5093 39.1682 35.3946 39.0504 35.2981C38.9326 35.2015 38.7926 35.1251 38.6386 35.0731C38.4845 35.0211 38.3194 34.9946 38.1528 34.9951H27.1012ZM9.46854 43.2863C9.13372 43.2853 8.81211 43.3932 8.57443 43.5864C8.33675 43.7797 8.20248 44.0423 8.20114 44.3166V52.2361C8.20248 52.5104 8.33675 52.7731 8.57443 52.9663C8.8121 53.1595 9.13372 53.2675 9.46854 53.2664H19.1985C19.5316 53.2654 19.8507 53.1565 20.0862 52.9635C20.3217 52.7705 20.4547 52.509 20.456 52.2361V44.3166C20.4547 44.0437 20.3217 43.7823 20.0862 43.5893C19.8507 43.3963 19.5316 43.2874 19.1985 43.2863H9.46854ZM27.1012 43.8217C26.9346 43.8212 26.7695 43.8476 26.6154 43.8996C26.4614 43.9516 26.3214 44.0281 26.2036 44.1246C26.0858 44.2212 25.9924 44.3359 25.929 44.4621C25.8655 44.5883 25.8332 44.7236 25.8338 44.8601C25.8345 44.9959 25.8678 45.1303 25.9318 45.2556C25.9958 45.3809 26.0894 45.4947 26.2071 45.5903C26.3248 45.686 26.4643 45.7618 26.6177 45.8133C26.7711 45.8647 26.9354 45.891 27.1012 45.8904H46.1764C46.5099 45.8899 46.8297 45.7812 47.0658 45.5882C47.3019 45.3951 47.4351 45.1334 47.4364 44.8601C47.437 44.7241 47.4049 44.5893 47.3419 44.4635C47.2789 44.3377 47.1863 44.2232 47.0692 44.1268C46.9522 44.0303 46.8131 43.9537 46.6599 43.9014C46.5067 43.849 46.3424 43.822 46.1764 43.8217H27.1012ZM10.7261 45.3551H17.931V51.1977H10.7261V45.3551ZM27.1012 50.6623C26.9354 50.6618 26.7711 50.688 26.6177 50.7395C26.4643 50.791 26.3248 50.8667 26.2071 50.9624C26.0894 51.0581 25.9958 51.1718 25.9318 51.2971C25.8678 51.4224 25.8345 51.5568 25.8338 51.6927C25.8332 51.8292 25.8655 51.9644 25.929 52.0907C25.9924 52.2169 26.0858 52.3316 26.2036 52.4281C26.3214 52.5247 26.4614 52.6011 26.6154 52.6531C26.7695 52.7051 26.9346 52.7316 27.1012 52.7311H38.1528C38.3194 52.7316 38.4845 52.7051 38.6386 52.6531C38.7926 52.6011 38.9326 52.5247 39.0504 52.4281C39.1682 52.3316 39.2616 52.2169 39.325 52.0907C39.3885 51.9644 39.4208 51.8292 39.4202 51.6927C39.4195 51.5568 39.3862 51.4224 39.3222 51.2971C39.2582 51.1718 39.1646 51.0581 39.0469 50.9624C38.9292 50.8667 38.7897 50.791 38.6363 50.7395C38.4829 50.688 38.3186 50.6618 38.1528 50.6623H27.1012Z" fill="#1A5B8C"/>
</svg>
