<svg width="60" height="60" viewBox="0 0 60 60" fill="none" xmlns="http://www.w3.org/2000/svg">
<path d="M21.25 8.75C14.3465 8.75 8.75 14.3465 8.75 21.25C8.75 27.9618 14.0397 33.438 20.6776 33.7373C20.3466 34.933 20.1312 36.1768 20.044 37.456C11.6325 36.8388 5 29.819 5 21.25C5 12.2754 12.2754 5 21.25 5C29.819 5 36.8388 11.6325 37.456 20.044C36.1768 20.1312 34.933 20.3466 33.7373 20.6776C33.438 14.0397 27.9618 8.75 21.25 8.75Z" fill="#1A5B8C"/>
<path d="M35.6943 33.0858C34.9586 32.3571 33.7716 32.3628 33.0428 33.0986C32.3141 33.8343 32.3198 35.0216 33.0558 35.7503L36.0921 38.7571L33.0493 41.8001C32.3171 42.5323 32.3171 43.7193 33.0493 44.4515C33.7816 45.1838 34.9688 45.1838 35.7008 44.4515L38.7485 41.4038L41.787 44.4498C42.5185 45.183 43.7055 45.1843 44.4388 44.453C45.1718 43.7215 45.1733 42.5346 44.442 41.8013L41.405 38.7571L44.4355 35.7488C45.1703 35.0193 45.1748 33.8321 44.4453 33.0971C43.7158 32.3623 42.5285 32.3578 41.7935 33.0873L38.7485 36.1103L35.6943 33.0858Z" fill="#1A5B8C"/>
<path d="M38.75 22.5C29.7752 22.5 22.5 29.7752 22.5 38.75C22.5 47.7247 29.7752 55 38.75 55C47.7247 55 55 47.7247 55 38.75C55 29.7752 47.7247 22.5 38.75 22.5ZM26.25 38.75C26.25 31.8465 31.8465 26.25 38.75 26.25C45.6535 26.25 51.25 31.8465 51.25 38.75C51.25 45.6535 45.6535 51.25 38.75 51.25C31.8465 51.25 26.25 45.6535 26.25 38.75Z" fill="#1A5B8C"/>
<path d="M28.2006 16.7992C28.9329 17.5314 28.9329 18.7186 28.2006 19.4508L20.7005 26.9507C20.3487 27.3025 19.8716 27.5002 19.374 27.5C18.8765 27.4997 18.3995 27.302 18.0479 26.95L14.2987 23.1953C13.567 22.4625 13.5679 21.2753 14.3006 20.5436C15.0334 19.8119 16.2206 19.8128 16.9523 20.5455L19.3757 22.9724L25.5489 16.7992C26.2811 16.0669 27.4684 16.0669 28.2006 16.7992Z" fill="#1A5B8C"/>
</svg>
