<svg width="60" height="47" viewBox="0 0 60 47" fill="none" xmlns="http://www.w3.org/2000/svg">
<path d="M56.2506 6.4091H46.4394L42.9683 0.475338C42.7948 0.176247 42.5019 0 42.1878 0H29.0628C28.7487 0 28.4581 0.17892 28.2823 0.475338L24.8112 6.4091H15C15 4.05376 13.3172 2.13637 11.25 2.13637H3.75C1.68282 2.13637 0 4.05376 0 6.4091V42.7273C0 45.0826 1.68282 47 3.75 47H56.25C58.3172 47 60 45.0826 60 42.7273V10.6818C60 8.32649 58.3178 6.4091 56.2506 6.4091ZM13.1256 44.8636H3.7506C2.71698 44.8636 1.8756 43.905 1.8756 42.7273V17.0909H13.1256V44.8636ZM13.1256 14.9546H1.8756V6.4091C1.8756 5.2314 2.71698 4.27273 3.7506 4.27273H11.2506C12.2842 4.27273 13.1256 5.2314 13.1256 6.4091V14.9546ZM26.2506 7.8003L29.5646 2.13623H41.6864L45.0005 7.8003V12.8181H26.2505L26.2506 7.8003ZM15.0006 44.8636V8.54546H24.3756V13.8864C24.3756 14.4765 24.7951 14.9546 25.3131 14.9546H28.3694C23.7545 17.8707 20.6258 23.4815 20.6258 29.9091C20.6258 36.3366 23.7571 41.9472 28.3694 44.8636H15.0006ZM22.5006 29.9091C22.5006 21.6631 28.3881 14.9546 35.6256 14.9546C42.8631 14.9546 48.7506 21.6627 48.7506 29.9091C48.7506 38.1555 42.8631 44.8636 35.6256 44.8636C28.3881 44.8636 22.5006 38.1555 22.5006 29.9091ZM58.1256 42.7273C58.1256 43.905 57.2842 44.8636 56.2506 44.8636H42.882C47.4968 41.9475 50.6256 36.3366 50.6256 29.9091C50.6256 23.4815 47.4943 17.8709 42.882 14.9546H45.9383C46.4562 14.9546 46.8758 14.4765 46.8758 13.8864V8.54546H56.2508C57.2844 8.54546 58.1258 9.50412 58.1258 10.6818L58.1256 42.7273Z" fill="#1A5B8C"/>
<path d="M35.6255 19.2266C30.4552 19.2266 26.2505 24.0173 26.2505 29.9084C26.2505 35.7994 30.4552 40.5902 35.6255 40.5902C40.7958 40.5902 45.0005 35.7994 45.0005 29.9084C45.0005 24.0173 40.7958 19.2266 35.6255 19.2266ZM35.6255 38.4538C31.4911 38.4538 28.1255 34.619 28.1255 29.9084C28.1255 25.195 31.4911 21.3629 35.6255 21.3629C39.7622 21.3629 43.1255 25.1977 43.1255 29.9084C43.1255 34.6217 39.7598 38.4538 35.6255 38.4538Z" fill="#1A5B8C"/>
<path d="M53.4377 12.8184H51.5627C51.0448 12.8184 50.6252 13.2964 50.6252 13.8865C50.6252 14.4767 51.0448 14.9547 51.5627 14.9547H53.4377C53.9557 14.9547 54.3752 14.4767 54.3752 13.8865C54.3752 13.2964 53.9557 12.8184 53.4377 12.8184Z" fill="#1A5B8C"/>
<path d="M7.50049 6.4082C5.39815 6.4082 3.75049 7.81554 3.75049 9.61275C3.75049 11.41 5.39815 12.8173 7.50049 12.8173C9.60283 12.8173 11.2505 11.41 11.2505 9.61275C11.2505 7.81554 9.60283 6.4082 7.50049 6.4082ZM7.50049 10.6809C6.35677 10.6809 5.62549 10.048 5.62549 9.61275C5.62549 9.17746 6.35677 8.54457 7.50049 8.54457C8.64421 8.54457 9.37549 9.17746 9.37549 9.61275C9.37549 10.048 8.64421 10.6809 7.50049 10.6809Z" fill="#1A5B8C"/>
<path d="M39.3755 4.27344H31.8755C31.3575 4.27344 30.938 4.75145 30.938 5.34162V9.61435C30.938 10.2045 31.3575 10.6825 31.8755 10.6825H39.3755C39.8935 10.6825 40.313 10.2045 40.313 9.61435V5.34162C40.313 4.75145 39.8935 4.27344 39.3755 4.27344ZM38.438 8.54616H32.813V6.4098H38.438V8.54616Z" fill="#1A5B8C"/>
</svg>
