<svg width="60" height="60" viewBox="0 0 60 60" fill="none" xmlns="http://www.w3.org/2000/svg">
<path d="M18.4317 27.8181C18.4317 26.8951 18.4317 11.7469 18.4317 11.2999C18.5079 10.0071 18.0627 8.73686 17.1924 7.76399C16.3221 6.79113 15.0968 6.1939 13.7815 6.10156H13.6232C12.4815 6.1269 11.3852 6.54565 10.526 7.28457C9.6669 8.02349 9.09966 9.03553 8.92354 10.1437C7.84565 10.2715 6.855 10.7893 6.14511 11.5961C5.43523 12.4028 5.05712 13.4405 5.08464 14.5064C5.08245 15.2395 5.25886 15.9624 5.59913 16.6149C5.12143 16.9208 4.72676 17.3363 4.44922 17.8256C4.17168 18.3148 4.01963 18.8631 4.00618 19.423C3.98079 20.0477 4.1307 20.6671 4.43955 21.2138C4.7484 21.7604 5.2043 22.2132 5.75743 22.5226C5.59759 23.003 5.51091 23.5039 5.50019 24.0092C5.42705 25.3093 5.87992 26.585 6.76017 27.5587C7.64041 28.5323 8.87673 29.125 10.1999 29.2076H10.2889C10.5348 30.0572 11.0522 30.8066 11.7648 31.3455C12.4773 31.8843 13.3474 32.184 14.2465 32.2003C14.8144 32.1827 15.3732 32.0554 15.891 31.8256C16.4087 31.5958 16.8753 31.2681 17.264 30.8611C17.6527 30.4541 17.9559 29.9759 18.1562 29.4537C18.3566 28.9316 18.4502 28.3758 18.4317 27.8181ZM16.4529 27.8181C16.4856 28.4366 16.2694 29.0429 15.8512 29.5064C15.4329 29.9698 14.846 30.2534 14.2169 30.2959C13.6325 30.2673 13.0801 30.0251 12.6682 29.617C12.2563 29.2089 12.0147 28.6643 11.9907 28.0902C11.9764 27.9561 11.9338 27.8263 11.8657 27.7092C11.7976 27.5921 11.7054 27.4902 11.5949 27.41C11.4279 27.2913 11.2273 27.2267 11.0211 27.2254C10.9522 27.216 10.8822 27.216 10.8133 27.2254C10.6123 27.2356 10.4108 27.2356 10.2098 27.2254C9.42702 27.142 8.7066 26.7671 8.19678 26.1779C7.68696 25.5886 7.42654 24.8299 7.46911 24.0578C7.48385 23.486 7.64734 22.9274 7.94402 22.4351C8.02196 22.2933 8.06277 22.1347 8.06277 21.9736C8.06277 21.8125 8.02196 21.6539 7.94402 21.5121C7.87816 21.3749 7.77854 21.256 7.65417 21.1661C7.5298 21.0762 7.38459 21.0181 7.23165 20.9971C6.86963 20.9418 6.54254 20.7534 6.31659 20.4702C6.09064 20.187 5.98272 19.83 6.01468 19.4716C6.00397 19.1294 6.12224 18.7954 6.34682 18.5336C6.5714 18.2718 6.88649 18.1007 7.23165 18.053C7.42353 18.0413 7.60778 17.9749 7.76188 17.862C7.91598 17.7492 8.03326 17.5946 8.09938 17.4174C8.1655 17.2401 8.1776 17.0477 8.13419 16.8638C8.09079 16.6799 7.99377 16.5124 7.85498 16.3817C7.59771 16.1356 7.39401 15.8408 7.25625 15.5151C7.11849 15.1894 7.04953 14.8396 7.05356 14.487C7.02093 13.8685 7.23703 13.2622 7.6553 12.7987C8.07356 12.3353 8.6605 12.0517 9.28962 12.0092C9.3948 11.9973 9.50104 11.9973 9.60623 12.0092C9.75165 12.0384 9.90189 12.0351 10.0458 11.9995C10.1898 11.9639 10.3237 11.897 10.4377 11.8037C10.5517 11.7104 10.6429 11.5931 10.7045 11.4605C10.7661 11.3278 10.7965 11.1833 10.7935 11.0376V10.9599C10.7827 10.1708 11.0877 9.40917 11.6427 8.83863C12.1978 8.26809 12.9587 7.93423 13.7617 7.90885C14.5654 7.98055 15.3079 8.3604 15.8283 8.96607C16.3487 9.57173 16.6052 10.3544 16.542 11.1445C16.5123 11.6303 16.4925 27.6627 16.4925 27.8181H16.4529Z" fill="#1A5B8C"/>
<path d="M24.2595 32.2003C25.1587 32.184 26.0287 31.8843 26.7413 31.3455C27.4539 30.8066 27.9712 30.0572 28.2171 29.2076H28.3161C29.6296 29.1128 30.8524 28.5146 31.7206 27.542C32.5888 26.5694 33.0327 25.3005 32.9564 24.0092C32.9457 23.5039 32.859 23.003 32.6992 22.5226C33.2538 22.2149 33.7109 21.7624 34.02 21.2154C34.3291 20.6684 34.478 20.048 34.4504 19.423C34.4387 18.8628 34.2873 18.3139 34.0096 17.8244C33.7319 17.3348 33.3363 16.9196 32.8575 16.6149C33.1977 15.9624 33.3741 15.2395 33.3719 14.5064C33.3997 13.442 33.023 12.4056 32.3151 11.599C31.6073 10.7925 30.619 10.2737 29.5429 10.1437C29.3647 9.03473 28.7955 8.02251 27.9347 7.28373C27.0739 6.54494 25.9763 6.12654 24.8334 6.10156H24.685C23.3803 6.20839 22.1699 6.81186 21.3122 7.78312C20.4544 8.75439 20.0173 10.0165 20.0941 11.2999C20.0941 11.7469 20.0941 26.8951 20.0941 27.8181C20.0593 28.9405 20.4776 30.0309 21.2578 30.8517C22.038 31.6725 23.117 32.1573 24.2595 32.2003ZM24.8531 8.00601C25.6335 8.05333 26.3655 8.39338 26.8977 8.95583C27.4299 9.51829 27.7216 10.2601 27.7125 11.0279V11.1348C27.7135 11.2783 27.7468 11.4198 27.8101 11.5492C27.8734 11.6785 27.9651 11.7925 28.0786 11.8829C28.194 11.9695 28.3274 12.03 28.4694 12.0603C28.6113 12.0905 28.7583 12.0897 28.8998 12.0578C29.005 12.0464 29.1112 12.0464 29.2164 12.0578C29.8456 12.1003 30.4325 12.3839 30.8508 12.8473C31.269 13.3108 31.4851 13.9171 31.4525 14.5356C31.4499 14.88 31.3777 15.2206 31.2402 15.5375C31.1026 15.8544 30.9024 16.1413 30.6511 16.3817C30.5182 16.5139 30.4267 16.6807 30.3874 16.8623C30.3481 17.044 30.3626 17.2329 30.4292 17.4067C30.4958 17.5805 30.6118 17.7319 30.7633 17.843C30.9149 17.9541 31.0957 18.0202 31.2843 18.0335C31.6358 18.0725 31.9594 18.2402 32.1905 18.5031C32.4216 18.7661 32.5431 19.105 32.5309 19.4522C32.5629 19.8106 32.455 20.1675 32.229 20.4508C32.0031 20.734 31.676 20.9223 31.314 20.9777C31.1488 20.9875 30.9893 21.0403 30.8519 21.1309C30.7145 21.2214 30.6042 21.3463 30.5323 21.4926C30.4544 21.6344 30.4136 21.793 30.4136 21.9542C30.4136 22.1153 30.4544 22.2739 30.5323 22.4157C30.8337 22.906 30.9975 23.4658 31.0073 24.0384C31.0382 24.4362 30.9887 24.8361 30.8615 25.215C30.7343 25.594 30.5319 25.9444 30.2661 26.2461C30.0002 26.5478 29.6762 26.7949 29.3126 26.9729C28.9491 27.151 28.5532 27.2567 28.1479 27.2837C27.9735 27.2999 27.7979 27.2999 27.6235 27.2837C27.4896 27.2511 27.35 27.2481 27.2148 27.275C27.0797 27.3019 26.9523 27.358 26.8419 27.4392C26.7314 27.5194 26.6392 27.6213 26.5711 27.7384C26.503 27.8555 26.4604 27.9852 26.4461 28.1193C26.4223 28.6919 26.1821 29.2352 25.7722 29.643C25.3624 30.0509 24.8125 30.2941 24.2298 30.325C23.6085 30.2658 23.0353 29.9705 22.6324 29.5022C22.2295 29.034 22.0287 28.4297 22.0729 27.8181C22.0729 27.6627 22.0729 11.6303 22.0729 11.2416C22.0123 10.4521 22.2697 9.67084 22.7896 9.06576C23.3095 8.46068 24.0505 8.08015 24.8531 8.00601Z" fill="#1A5B8C"/>
<path d="M11.4072 21.9979C11.6696 21.9824 11.915 21.8652 12.0894 21.6721C12.2638 21.4789 12.353 21.2256 12.3372 20.9679C12.3215 20.7102 12.2022 20.4692 12.0055 20.2979C11.8088 20.1266 11.5509 20.0391 11.2885 20.0546C11.1876 20.0539 11.0899 20.0197 11.0114 19.9574C10.8896 19.8428 10.8186 19.6857 10.8136 19.5202C10.7932 19.384 10.8271 19.2454 10.9082 19.1332C10.9893 19.021 11.1113 18.9438 11.2489 18.9177C11.5113 18.9023 11.7567 18.7851 11.9311 18.5919C12.1055 18.3988 12.1947 18.1455 12.1789 17.8878C12.1632 17.6301 12.0439 17.3891 11.8472 17.2178C11.6505 17.0465 11.3926 16.9589 11.1302 16.9744C10.4816 17.0314 9.88176 17.3362 9.45982 17.8232C9.03789 18.3103 8.82763 18.9406 8.87432 19.5785C8.91003 20.25 9.21187 20.8813 9.71531 21.3372C10.1422 21.7129 10.6954 21.9205 11.2687 21.9201L11.4072 21.9979Z" fill="#1A5B8C"/>
<path d="M15.0183 24.4575C14.8701 24.2244 14.7914 23.9551 14.7914 23.6802C14.7914 23.4053 14.8701 23.136 15.0183 22.9029C15.1534 22.6922 15.2009 22.4387 15.1512 22.1947C15.1015 21.9506 14.9583 21.7346 14.7512 21.5911C14.5359 21.4556 14.2755 21.4072 14.0246 21.4561C13.7737 21.505 13.5519 21.6474 13.4056 21.8535C13.1117 22.3013 12.9288 22.8104 12.8713 23.3401C12.8385 23.3352 12.8052 23.3352 12.7724 23.3401C12.4435 23.3809 12.1268 23.4884 11.8424 23.6556C11.5579 23.8229 11.312 24.0463 11.1201 24.3118C10.9699 24.5178 10.9075 24.7732 10.9463 25.0237C10.9851 25.2742 11.122 25.4999 11.3279 25.6527C11.5369 25.7972 11.7947 25.8567 12.0474 25.8187C12.3001 25.7806 12.528 25.648 12.6833 25.4486C12.7151 25.4005 12.7573 25.3599 12.8069 25.3296C12.8565 25.2994 12.9123 25.2803 12.9703 25.2737C13.024 25.2667 13.0787 25.2718 13.1301 25.2886C13.1816 25.3054 13.2284 25.3336 13.2671 25.3709C13.3239 25.418 13.368 25.4781 13.3957 25.5458C13.4465 25.6534 13.4668 25.7724 13.4547 25.8903C13.4425 26.0083 13.3982 26.1209 13.3265 26.2162C13.1762 26.4222 13.1139 26.6777 13.1527 26.9282C13.1915 27.1787 13.3284 27.4043 13.5342 27.5571C13.7013 27.6759 13.9019 27.7404 14.1081 27.7417C14.26 27.7402 14.4095 27.7044 14.5451 27.637C14.6806 27.5696 14.7986 27.4725 14.8897 27.3531C15.1963 26.9443 15.3715 26.4548 15.3927 25.9474C15.4138 25.4401 15.28 24.9382 15.0085 24.5061L15.0183 24.4575Z" fill="#1A5B8C"/>
<path d="M11.3674 15.6723C11.6166 15.7354 11.8809 15.7006 12.1044 15.5755C12.3279 15.4503 12.493 15.2446 12.5646 15.0019C12.5786 14.9298 12.609 14.8617 12.6535 14.8028C12.6981 14.7439 12.7556 14.6957 12.8219 14.6618C12.8654 14.6425 12.9126 14.6325 12.9604 14.6325C13.0082 14.6325 13.0554 14.6425 13.0989 14.6618C13.1571 14.6848 13.2107 14.7177 13.2572 14.759C13.3318 14.8447 13.3835 14.9473 13.4077 15.0576C13.4319 15.1678 13.4278 15.2822 13.3957 15.3905C13.3344 15.6338 13.3712 15.891 13.4984 16.1083C13.6257 16.3256 13.8335 16.4862 14.0784 16.5565C14.1636 16.57 14.2505 16.57 14.3357 16.5565C14.5481 16.5544 14.7541 16.4853 14.9234 16.3593C15.0927 16.2333 15.2161 16.0572 15.2756 15.8569C15.4112 15.3678 15.3961 14.8501 15.2324 14.3694C15.0686 13.8886 14.7635 13.4663 14.3555 13.1557C14.1398 12.9952 13.9763 12.7765 13.885 12.5264C13.7936 12.2762 13.7783 12.0054 13.841 11.7468C13.8502 11.5195 13.778 11.2963 13.6368 11.1159C13.4957 10.9355 13.2946 10.8095 13.0686 10.7598C12.8426 10.7101 12.6059 10.7398 12.3999 10.8439C12.194 10.9479 12.0316 11.1196 11.9413 11.329C11.8191 11.8567 11.8191 12.4046 11.9413 12.9322H11.8424C11.5487 13.0935 11.2908 13.3106 11.0835 13.5709C10.8763 13.8311 10.7239 14.1293 10.6353 14.448C10.5968 14.5757 10.5853 14.7097 10.6018 14.8419C10.6182 14.974 10.6621 15.1015 10.7307 15.2163C10.7994 15.3311 10.8913 15.4308 11.0009 15.5092C11.1104 15.5877 11.2352 15.6432 11.3674 15.6723Z" fill="#1A5B8C"/>
<path d="M26.3569 17.9467C26.3561 18.1915 26.4494 18.4275 26.6182 18.6077C26.7869 18.7878 27.0187 18.8988 27.2672 18.9184C27.4029 18.9466 27.5226 19.0247 27.6017 19.1366C27.6807 19.2486 27.7133 19.386 27.6926 19.5208C27.6876 19.6864 27.6165 19.8434 27.4947 19.958C27.4185 20.0242 27.3193 20.059 27.2177 20.0552C26.9684 20.0544 26.7281 20.146 26.5446 20.3118C26.3612 20.4775 26.2482 20.7051 26.2283 20.9491C26.2273 21.1924 26.3192 21.4271 26.4859 21.607C26.6526 21.7869 26.882 21.8989 27.1286 21.9208H27.2771C27.8471 21.9197 28.3967 21.7121 28.8205 21.3378C29.0733 21.1147 29.2779 20.8441 29.4223 20.5421C29.5668 20.24 29.6481 19.9125 29.6615 19.5791C29.7083 18.9428 29.4994 18.3138 29.0796 17.827C28.6597 17.3402 28.0624 17.0344 27.4156 16.975C27.2799 16.9657 27.1438 16.9839 27.0156 17.0285C26.8875 17.0732 26.7701 17.1432 26.6707 17.2344C26.5714 17.3256 26.4923 17.4359 26.4383 17.5585C26.3843 17.681 26.3566 17.8132 26.3569 17.9467Z" fill="#1A5B8C"/>
<path d="M24.3881 27.7109C24.5661 27.7055 24.7392 27.6529 24.8893 27.5589C25.0394 27.4648 25.1609 27.3327 25.241 27.1765C25.321 27.0203 25.3566 26.8458 25.3441 26.6713C25.3315 26.4969 25.2713 26.329 25.1697 26.1854C25.0996 26.0891 25.0571 25.9761 25.0466 25.8582C25.0362 25.7402 25.0582 25.6217 25.1104 25.515C25.1416 25.4492 25.1852 25.3899 25.239 25.3401C25.2785 25.3039 25.3254 25.2765 25.3766 25.2597C25.4278 25.243 25.4821 25.2372 25.5358 25.2429C25.594 25.2488 25.6501 25.2676 25.6998 25.2979C25.7495 25.3282 25.7915 25.3692 25.8227 25.4178C25.8863 25.5461 25.9779 25.6591 26.091 25.7488C26.204 25.8384 26.3358 25.9025 26.477 25.9364C26.6181 25.9704 26.7651 25.9734 26.9076 25.9453C27.05 25.9171 27.1844 25.8585 27.3012 25.7736C27.418 25.6886 27.5143 25.5795 27.5833 25.4539C27.6522 25.3283 27.6922 25.1893 27.7003 25.0468C27.7084 24.9043 27.6844 24.7618 27.6301 24.6295C27.5758 24.4971 27.4924 24.3781 27.386 24.281C27.1961 24.0158 26.9519 23.7924 26.6691 23.6251C26.3863 23.4578 26.0711 23.3502 25.7436 23.3093C25.7108 23.3044 25.6774 23.3044 25.6446 23.3093C25.5782 22.7816 25.3959 22.2744 25.1104 21.8227C24.9639 21.614 24.7402 21.4697 24.487 21.4207C24.2337 21.3717 23.971 21.4218 23.7549 21.5603C23.5467 21.7054 23.4036 21.924 23.3557 22.1703C23.3078 22.4165 23.3586 22.6715 23.4976 22.8818C23.6418 23.1146 23.718 23.3818 23.718 23.6542C23.718 23.9267 23.6418 24.1939 23.4976 24.4267C23.2274 24.8592 23.0943 25.3609 23.1155 25.868C23.1366 26.375 23.311 26.8643 23.6164 27.2737C23.7012 27.4007 23.8152 27.5065 23.9493 27.5824C24.0833 27.6584 24.2336 27.7024 24.3881 27.7109Z" fill="#1A5B8C"/>
<path d="M24.1506 16.5761C24.2357 16.5903 24.3227 16.5903 24.4078 16.5761C24.6528 16.5058 24.8606 16.3452 24.9878 16.1279C25.115 15.9106 25.1518 15.6534 25.0905 15.4101C25.0579 15.3012 25.0544 15.1859 25.0804 15.0752C25.1064 14.9646 25.161 14.8624 25.2389 14.7786C25.2855 14.7373 25.3391 14.7044 25.3972 14.6814C25.4426 14.6624 25.4914 14.6526 25.5407 14.6526C25.59 14.6526 25.6388 14.6624 25.6842 14.6814C25.8124 14.7568 25.9049 14.8791 25.9414 15.0215C25.9515 15.1651 25.9939 15.3047 26.0656 15.4302C26.1374 15.5558 26.2366 15.6641 26.3562 15.7474C26.4758 15.8306 26.6127 15.8868 26.757 15.9117C26.9014 15.9366 27.0496 15.9298 27.1909 15.8916C27.3323 15.8534 27.4632 15.7849 27.5743 15.6909C27.6853 15.5969 27.7737 15.4799 27.8331 15.3483C27.8925 15.2167 27.9213 15.0738 27.9176 14.9299C27.9138 14.786 27.8775 14.6447 27.8114 14.5162C27.7228 14.1975 27.5704 13.8993 27.3631 13.639C27.1559 13.3788 26.8979 13.1617 26.6043 13.0004H26.5054C26.6325 12.4733 26.6325 11.9243 26.5054 11.3972C26.4112 11.194 26.2486 11.0289 26.0451 10.9296C25.8415 10.8303 25.6093 10.8028 25.3876 10.8519C25.1658 10.9009 24.968 11.0234 24.8274 11.1988C24.6868 11.3742 24.612 11.5918 24.6156 11.815C24.6709 12.0736 24.6522 12.3422 24.5613 12.5909C24.4705 12.8397 24.3112 13.0588 24.1011 13.2239C23.6949 13.5357 23.3917 13.9585 23.2297 14.4392C23.0677 14.9199 23.0542 15.4369 23.1909 15.9251C23.26 16.1195 23.3902 16.2873 23.5626 16.4043C23.7351 16.5213 23.941 16.5815 24.1506 16.5761Z" fill="#1A5B8C"/>
<path d="M21.5188 58.0568H17.1259C16.8635 58.0568 16.6118 58.1592 16.4263 58.3414C16.2407 58.5236 16.1365 58.7708 16.1365 59.0285C16.1365 59.2862 16.2407 59.5333 16.4263 59.7156C16.6118 59.8978 16.8635 60.0002 17.1259 60.0002H21.5386C21.801 60.0002 22.0527 59.8978 22.2383 59.7156C22.4238 59.5333 22.528 59.2862 22.528 59.0285C22.5281 58.8992 22.5018 58.7713 22.4509 58.6521C22.3999 58.5329 22.3253 58.425 22.2313 58.3345C22.1373 58.244 22.0259 58.1728 21.9036 58.1251C21.7812 58.0775 21.6504 58.0542 21.5188 58.0568Z" fill="#1A5B8C"/>
<path d="M16.4035 46.5046H22.1817C22.4257 46.5046 22.6598 46.4093 22.8323 46.2399C23.0049 46.0704 23.1018 45.8406 23.1018 45.6009C23.1018 45.3612 23.0049 45.1314 22.8323 44.9619C22.6598 44.7925 22.4257 44.6973 22.1817 44.6973H16.4035C16.1595 44.6973 15.9255 44.7925 15.7529 44.9619C15.5803 45.1314 15.4834 45.3612 15.4834 45.6009C15.4834 45.8406 15.5803 46.0704 15.7529 46.2399C15.9255 46.4093 16.1595 46.5046 16.4035 46.5046Z" fill="#1A5B8C"/>
<path d="M22.1916 49.0977H16.4036C16.1747 49.1209 15.9628 49.2267 15.8087 49.3945C15.6546 49.5623 15.5693 49.7802 15.5693 50.0062C15.5693 50.2321 15.6546 50.45 15.8087 50.6178C15.9628 50.7856 16.1747 50.8914 16.4036 50.9147H22.1916C22.4357 50.9147 22.6697 50.8195 22.8423 50.65C23.0148 50.4805 23.1118 50.2507 23.1118 50.011C23.1118 49.7714 23.0148 49.5415 22.8423 49.372C22.6697 49.2026 22.4357 49.1074 22.1916 49.1074V49.0977Z" fill="#1A5B8C"/>
<path d="M25.6051 40.3142C25.5493 40.2759 25.4896 40.2433 25.427 40.217H25.3478L25.2291 40.1587C24.9916 40.1587 24.6849 39.2842 24.6849 38.5069C24.6849 37.7296 25.1598 37.0203 27.6531 36.0097C27.7063 35.9831 27.7561 35.9505 27.8015 35.9126H27.851C31.755 34.0163 34.8904 30.8781 36.7466 27.0088C38.6028 23.1394 39.0706 18.7669 38.0738 14.6032C37.0769 10.4395 34.6742 6.72984 31.2567 4.07821C27.8393 1.42658 23.6084 -0.0108177 19.2531 6.1302e-05C14.9083 0.00680991 10.6932 1.45426 7.29093 4.10782C3.88862 6.76139 1.49849 10.4655 0.507906 14.62C-0.482676 18.7744 -0.015653 23.1356 1.83328 26.9967C3.68222 30.8579 6.80471 33.9927 10.6947 35.8931L10.8332 35.9417C10.8332 35.9417 10.8926 35.9417 10.9321 36C13.465 36.9717 13.9004 37.6518 13.9004 38.4972C13.9004 39.3425 13.5937 40.1004 13.3661 40.149C12.5801 40.4338 11.9014 40.9473 11.4205 41.6209C10.9396 42.2946 10.6795 43.0963 10.6749 43.919V51.6923C10.6749 52.7618 11.1075 53.7874 11.8775 54.5436C12.6476 55.2998 13.692 55.7247 14.7809 55.7247H23.7845C24.8753 55.7196 25.9197 55.2904 26.6892 54.5311C27.4586 53.7718 27.8906 52.7441 27.8906 51.6729V43.8996C27.8862 43.1525 27.6701 42.4213 27.2664 41.788C26.8628 41.1548 26.2875 40.6444 25.6051 40.3142ZM11.6247 34.2413H11.5753C8.04936 32.5492 5.21199 29.7329 3.52671 26.2524C1.84143 22.7719 1.40786 18.833 2.29683 15.0792C3.1858 11.3254 5.34477 7.97862 8.42101 5.58564C11.4973 3.19267 15.3089 1.89496 19.2333 1.90451C23.1396 1.90194 26.9325 3.19449 29.9976 5.57283C33.0627 7.95117 35.2205 11.276 36.1215 15.0089C37.0226 18.7417 36.6141 22.664 34.9622 26.1404C33.3103 29.6169 30.5118 32.4439 27.0199 34.1636L26.9506 34.2219C24.8135 35.0769 22.7358 36.1069 22.7457 38.4777C22.7499 38.9506 22.8164 39.4209 22.9435 39.8769H15.6714C15.7909 39.4196 15.854 38.9499 15.8594 38.4777C15.8594 36.1069 13.7717 35.0867 11.6247 34.2413ZM23.8043 53.7814H14.8106C14.2368 53.7788 13.6871 53.5538 13.2813 53.1553C12.8755 52.7568 12.6464 52.217 12.6438 51.6534V43.8802C12.6438 43.3149 12.8718 42.7727 13.2779 42.372C13.6839 41.9714 14.235 41.7451 14.8106 41.7425H23.8043C24.3799 41.7425 24.9321 41.9664 25.34 42.3652C25.7479 42.764 25.9784 43.3052 25.981 43.8705V51.6437C25.9823 51.9248 25.9269 52.2034 25.818 52.4633C25.7091 52.7232 25.5488 52.9594 25.3464 53.1581C25.144 53.3569 24.9035 53.5143 24.6389 53.6213C24.3742 53.7282 24.0905 53.7827 23.8043 53.7814Z" fill="#1A5B8C"/>
<path d="M59.8385 33.4261C59.7298 33.2736 59.5787 33.155 59.4033 33.0843C59.2279 33.0137 59.0356 32.9941 58.8491 33.0277L32.1351 38.9937C31.985 39.0327 31.8464 39.1059 31.7304 39.2073C31.6145 39.3087 31.5244 39.4355 31.4676 39.5774C31.4108 39.7192 31.3887 39.8723 31.4033 40.0241C31.4178 40.1759 31.4686 40.3222 31.5514 40.4512L34.0941 44.1435C34.2575 44.2989 34.4704 44.3943 34.6971 44.4136C34.9237 44.4329 35.1501 44.3749 35.3383 44.2494C35.5264 44.1239 35.6649 43.9386 35.7302 43.7246C35.7955 43.5107 35.7838 43.2811 35.697 43.0747L33.9457 40.5387L56.8208 35.4277L43.4638 54.3945L38.8928 47.7484L47.4511 42.5208C47.5955 42.4782 47.728 42.4036 47.8386 42.303C47.9491 42.2023 48.0348 42.0782 48.0891 41.9401C48.1433 41.8019 48.1647 41.6534 48.1516 41.506C48.1385 41.3585 48.0912 41.2159 48.0134 41.089C47.9356 40.9622 47.8294 40.8545 47.7027 40.7742C47.5761 40.6939 47.4324 40.643 47.2827 40.6256C47.133 40.6081 46.9812 40.6244 46.8389 40.6734C46.6967 40.7223 46.5676 40.8025 46.4617 40.9079L37.0624 46.6504C36.9538 46.7233 36.8612 46.8167 36.7899 46.9251C36.7185 47.0335 36.6699 47.1549 36.6468 47.282L35.0341 55.0552C34.9998 55.2383 35.0198 55.4273 35.0917 55.5995C35.1636 55.7718 35.2844 55.9201 35.4397 56.0269C35.5806 56.1333 35.7481 56.2004 35.9245 56.2212C36.1137 56.2177 36.2983 56.1639 36.4588 56.0658L40.5154 53.4811L42.6822 56.6196C42.7712 56.7457 42.8893 56.8492 43.0269 56.9219C43.1644 56.9945 43.3176 57.0341 43.4737 57.0374C43.6307 57.0367 43.7852 56.9993 43.9246 56.9284C44.0639 56.8574 44.1841 56.7549 44.2751 56.6293L59.8286 34.5047C59.9386 34.3459 59.9982 34.1588 59.9999 33.9669C60.0017 33.7749 59.9455 33.5867 59.8385 33.4261ZM37.3097 53.2285L38.0122 49.8763L39.4073 51.9071L37.3097 53.2285Z" fill="#1A5B8C"/>
<path d="M50.1325 40.8297C50.3144 40.8285 50.4924 40.7781 50.647 40.684L51.112 40.3925C51.2664 40.2388 51.3644 40.039 51.3903 39.8246C51.4163 39.6103 51.3688 39.3935 51.2553 39.2086C51.1419 39.0236 50.969 38.8811 50.7638 38.8034C50.5587 38.7257 50.3331 38.7173 50.1226 38.7795L49.6576 39.0613C49.488 39.177 49.3596 39.3419 49.2902 39.5328C49.2208 39.7238 49.214 39.9313 49.2707 40.1262C49.3275 40.3212 49.4449 40.4938 49.6065 40.62C49.7681 40.7461 49.9659 40.8195 50.1721 40.8297H50.1325Z" fill="#1A5B8C"/>
</svg>
