<svg width="60" height="60" viewBox="0 0 60 60" fill="none" xmlns="http://www.w3.org/2000/svg">
<path fill-rule="evenodd" clip-rule="evenodd" d="M7.5 9.3752V1.8752C7.5 0.8376 8.3376 0 9.3752 0C10.4128 0 11.2496 0.8376 11.2496 1.8752V9.3752C11.2496 10.4128 10.4128 11.2496 9.3752 11.2496C8.3376 11.2496 7.5 10.4128 7.5 9.3752ZM39.3752 11.2496C40.4128 11.2496 41.2496 10.4128 41.2496 9.3752V1.8752C41.2496 0.8376 40.4128 0 39.3752 0C38.3376 0 37.5 0.8376 37.5 1.8752V9.3752C37.5 10.4128 38.3376 11.2496 39.3752 11.2496ZM60 45C60 53.284 53.284 60 45 60C36.716 60 30 53.284 30 45C30 36.716 36.716 30 45 30C53.284 30 60 36.716 60 45ZM56.2496 45C56.2496 38.7968 51.2032 33.7504 45 33.7504C38.7968 33.7504 33.7504 38.7968 33.7504 45C33.7504 51.2032 38.7968 56.2496 45 56.2496C51.2032 56.2496 56.2496 51.2032 56.2496 45ZM15 22.5H7.5V30H15V22.5ZM7.5 41.2496H15V33.7504H7.5V41.2496ZM18.7504 30H26.2496V22.5H18.7504V30ZM18.7504 41.2496H26.2496V33.7504H18.7504V41.2496ZM3.7504 44.6248V18.7504H45V26.2496H48.7504V11.6248C48.7504 9.3472 46.9344 7.5 44.6872 7.5H43.1248V9.3752C43.1248 11.4408 41.444 13.1248 39.3752 13.1248C37.3064 13.1248 35.6248 11.4408 35.6248 9.3752V7.5H13.1248V9.3752C13.1248 11.4408 11.444 13.1248 9.3752 13.1248C7.3064 13.1248 5.6248 11.4408 5.6248 9.3752V7.5H4.0624C1.8184 7.5 0 9.3472 0 11.6248V44.628C0 46.8968 1.8184 48.7504 4.0624 48.7504H26.2496V45H4.0624C3.8936 45 3.7504 44.8248 3.7504 44.6248ZM37.5 30V22.5H30V30H37.5ZM50.6248 45H45V39.3752C45 38.3376 44.1624 37.5 43.1248 37.5C42.0872 37.5 41.2496 38.3376 41.2496 39.3752V46.8752C41.2496 47.9128 42.0872 48.7504 43.1248 48.7504H50.6248C51.6624 48.7504 52.5 47.9128 52.5 46.8752C52.5 45.8376 51.6624 45 50.6248 45Z" fill="#1A5B8C"/>
</svg>
