<svg width="60" height="60" viewBox="0 0 60 60" fill="none" xmlns="http://www.w3.org/2000/svg">
<path d="M15.5555 0.103516H13.3333V13.1243H15.5555V0.103516Z" fill="#1A5B8C"/>
<path d="M24.4444 0.103516H22.2222V13.1243H24.4444V0.103516Z" fill="#1A5B8C"/>
<path d="M11.1111 0.103516H8.88892V13.1243H11.1111V0.103516Z" fill="#1A5B8C"/>
<path d="M20.0001 0.103516H17.7778V13.1243H20.0001V0.103516Z" fill="#1A5B8C"/>
<path d="M30 14.2188H25.5556H21.1111H16.6667H12.2222H7.77778H3.33333H0V18.3333H60V14.2188H30Z" fill="#1A5B8C"/>
<path d="M28.889 0.103516H26.6667V13.1243H28.889V0.103516Z" fill="#1A5B8C"/>
<path d="M6.66656 0.103516H4.44434V13.1243H6.66656V0.103516Z" fill="#1A5B8C"/>
<path d="M37.1556 13.125L39.0445 12.4219L35.7334 0L33.6223 0.781251L36.9112 13.125H37.1556Z" fill="#1A5B8C"/>
<path d="M46.6666 31.3535H33.3333V33.9577H46.6666V31.3535Z" fill="#1A5B8C"/>
<path d="M32.2222 35.1035H16.6667H1.11111H0V39.166H60V35.1035H47.7778H32.2222Z" fill="#1A5B8C"/>
<path d="M15.5555 31.3535H2.22217V33.9577H15.5555V31.3535Z" fill="#1A5B8C"/>
<path d="M31.1112 26.1465H17.7778V28.7507H31.1112V26.1465Z" fill="#1A5B8C"/>
<path d="M31.1112 31.3535H17.7778V33.9577H31.1112V31.3535Z" fill="#1A5B8C"/>
<path d="M15.5555 26.1465H2.22217V28.7507H15.5555V26.1465Z" fill="#1A5B8C"/>
<path d="M2.22217 46.9785V54.791H13.3333V46.9785H8.88883V48.2806C8.88883 49.0098 8.39995 49.5827 7.77772 49.5827C7.1555 49.5827 6.66661 49.0098 6.66661 48.2806V46.9785H2.22217Z" fill="#1A5B8C"/>
<path d="M20 46.9785V54.791H31.1111V46.9785H26.6667V48.2806C26.6667 49.0098 26.1778 49.5827 25.5556 49.5827C24.9333 49.5827 24.4444 49.0098 24.4444 48.2806V46.9785H20Z" fill="#1A5B8C"/>
<path d="M18.8889 55.8848H14.4444H1.11111H0V59.9993H60V55.8848H32.2222H18.8889Z" fill="#1A5B8C"/>
</svg>
