<svg width="60" height="60" viewBox="0 0 60 60" fill="none" xmlns="http://www.w3.org/2000/svg">
<path d="M38.7288 45.1263H30.4447C29.8985 45.1259 29.3749 44.9365 28.9888 44.5997C28.6026 44.2629 28.3854 43.8062 28.385 43.3299V41.8876C28.3872 40.9987 28.7934 40.1468 29.5146 39.5188C30.2358 38.8907 31.2131 38.5377 32.2323 38.5371H41.2035C41.7495 38.5377 42.273 38.7271 42.6592 39.0639C43.0453 39.4007 43.2625 39.8572 43.2631 40.3335V41.1715C43.2618 42.22 42.7837 43.2253 41.9336 43.9667C41.0835 44.7081 39.9309 45.1251 38.7288 45.1263ZM31.0309 42.8186H38.7288C39.2294 42.818 39.7094 42.6443 40.0634 42.3355C40.4174 42.0268 40.6166 41.6081 40.6173 41.1715V40.8448H32.2323C31.9142 40.8452 31.6093 40.9556 31.3844 41.1517C31.1595 41.3479 31.033 41.6138 31.0325 41.8912L31.0309 42.8186Z" fill="#1A5B8C"/>
<path d="M40.871 40.5623H32.6506C32.1021 40.5609 31.5766 40.3701 31.1892 40.0315C30.8017 39.6929 30.5839 39.2341 30.5835 38.7558V37.3632C30.5844 36.9039 30.692 36.4496 30.8997 36.0275C31.1075 35.6055 31.4111 35.2246 31.7923 34.9077C32.0489 34.7074 32.385 34.6023 32.729 34.6147C33.0731 34.6271 33.398 34.756 33.6348 34.974C33.8717 35.192 34.0017 35.482 33.9973 35.7823C33.9929 36.0826 33.8545 36.3695 33.6114 36.5822C33.4888 36.6822 33.3912 36.8032 33.3247 36.9376C33.2581 37.072 33.224 37.2168 33.2244 37.3632V38.2546H40.8694C41.3846 38.2551 41.8791 38.0773 42.244 37.76C42.609 37.4428 42.8146 37.0122 42.8157 36.5627V35.7861C42.7985 35.48 42.9214 35.1806 43.1573 34.9536C43.3933 34.7266 43.7229 34.5906 44.0738 34.5756C44.4246 34.5606 44.768 34.6678 45.0282 34.8735C45.2885 35.0793 45.4444 35.3668 45.4616 35.6728C45.4616 35.7082 45.4616 35.745 45.4616 35.7803V36.5627C45.4597 37.6237 44.9752 38.6407 44.1146 39.3905C43.254 40.1403 42.0875 40.5617 40.871 40.5623Z" fill="#1A5B8C"/>
<path d="M36.3012 49.4078H28.0155C27.4695 49.4074 26.946 49.2181 26.5598 48.8814C26.1737 48.5448 25.9565 48.0883 25.9558 47.6121V46.1698C25.9571 45.2806 26.3627 44.4282 27.0837 43.7996C27.8046 43.1709 28.782 42.8174 29.8014 42.8164H38.7759C39.3219 42.8168 39.8454 43.0061 40.2316 43.3427C40.6177 43.6794 40.8349 44.1359 40.8356 44.6121V45.4501C40.8352 46.4991 40.3574 47.5051 39.5072 48.2471C38.657 48.9892 37.504 49.4066 36.3012 49.4078ZM28.6033 47.1001H36.3012C36.8019 47.0997 37.282 46.926 37.6361 46.6172C37.9902 46.3084 38.1893 45.8897 38.1897 45.4529V45.127H29.8031C29.4852 45.1274 29.1804 45.2376 28.9555 45.4336C28.7306 45.6296 28.604 45.8954 28.6033 46.1727V47.1001Z" fill="#1A5B8C"/>
<path d="M20.1332 54.0953C19.8759 54.0953 19.6242 54.0298 19.4088 53.9069C19.1935 53.784 19.024 53.609 18.921 53.4034C18.8179 53.1977 18.7859 52.9703 18.8288 52.7491C18.8717 52.5278 18.9877 52.3222 19.1625 52.1575L20.034 51.3361C20.4946 50.9046 21.063 50.5713 21.695 50.3621C22.327 50.1529 23.0057 50.0734 23.6787 50.1296C30.2148 50.69 31.7726 47.8378 31.7866 47.809C31.8516 47.6667 31.9484 47.5371 32.0714 47.4277C32.1944 47.3184 32.3412 47.2315 32.5031 47.1722C32.665 47.1128 32.8388 47.0822 33.0144 47.082C33.19 47.0819 33.3639 47.1122 33.5259 47.1713C33.688 47.2304 33.8349 47.317 33.9581 47.4261C34.0814 47.5352 34.1785 47.6647 34.2438 47.8068C34.3091 47.949 34.3413 48.1011 34.3385 48.2543C34.3357 48.4074 34.2979 48.5586 34.2275 48.6989C34.1448 48.8813 31.9867 53.1614 23.4207 52.4258C23.1546 52.4042 22.8863 52.4361 22.6365 52.519C22.3867 52.6019 22.1619 52.7335 21.9795 52.9039L21.1039 53.7253C20.9801 53.842 20.8299 53.9351 20.6629 53.9987C20.4958 54.0624 20.3155 54.0953 20.1332 54.0953Z" fill="#1A5B8C"/>
<path d="M8.44338 42.5473C8.17718 42.5474 7.91717 42.4773 7.69733 42.3464C7.47748 42.2155 7.30804 42.0298 7.21113 41.8135C7.11423 41.5973 7.09437 41.3606 7.15416 41.1343C7.21395 40.9081 7.3506 40.7028 7.54626 40.5454L8.72698 39.5906C9.22265 39.1933 9.56107 38.6691 9.69356 38.0935C10.6436 33.9887 11.3968 33.1795 11.6449 32.9134C12.3758 32.1295 17.8503 27.1514 22.3111 23.1137C23.0231 22.4675 23.8742 21.9502 24.8157 21.5913C25.7572 21.2324 26.7707 21.0391 27.798 21.0223L37.0983 20.8464C37.646 20.8362 38.1885 20.9405 38.6806 21.1504C39.1727 21.3603 39.6001 21.6698 39.9271 22.0531C40.2542 22.4364 40.4714 22.8823 40.5607 23.3537C40.65 23.8251 40.6087 24.3083 40.4404 24.763C39.998 25.9994 39.1105 27.0785 37.9094 27.8401C36.4112 28.7957 34.3995 29.3062 31.9314 29.3546C31.148 29.3697 30.3642 29.3457 29.584 29.2824L29.4856 29.2745L28.3751 30.1673C28.2424 30.2723 28.154 30.4131 28.124 30.5671C28.094 30.7212 28.1242 30.8795 28.2098 31.0168C28.8655 31.9943 29.189 33.1143 29.1424 34.2461C29.0647 35.7418 28.3098 37.1935 26.8984 38.5615C26.6625 38.7851 26.335 38.9184 25.987 38.9327C25.6391 38.9469 25.2987 38.8409 25.0398 38.6376C24.781 38.4343 24.6244 38.1502 24.6043 37.8469C24.5841 37.5436 24.702 37.2455 24.9322 37.0175C26.6239 35.3798 26.9538 33.7493 25.9153 32.1627C25.5285 31.5727 25.3842 30.8853 25.5061 30.2141C25.628 29.5428 26.0089 28.928 26.5859 28.4711L28.137 27.2243C28.2778 27.111 28.4452 27.0258 28.6275 26.9745C28.8098 26.9232 29.0027 26.907 29.1929 26.9271C29.4203 26.9517 29.6261 26.9704 29.8229 26.9856C30.5033 27.0417 31.1869 27.0639 31.8702 27.0519C35.1775 26.9841 37.214 25.9767 37.9251 24.057C37.9642 23.952 37.9738 23.8403 37.9533 23.7314C37.9327 23.6225 37.8825 23.5195 37.8069 23.431C37.7326 23.3426 37.6347 23.2714 37.5218 23.2234C37.4089 23.1754 37.2842 23.1521 37.1586 23.1555L27.8592 23.3315C27.1779 23.3432 26.506 23.472 25.8817 23.7103C25.2575 23.9486 24.6932 24.2918 24.2211 24.7204C18.0521 30.3014 14.2164 33.8192 13.7004 34.3738C13.4821 34.6082 12.9381 35.7548 12.2898 38.5565C12.0473 39.6079 11.429 40.5653 10.5237 41.2911L9.34215 42.2416C9.09777 42.4391 8.77656 42.5484 8.44338 42.5473Z" fill="#1A5B8C"/>
<path d="M58.6771 36.8986H31.9016C31.5507 36.8986 31.2142 36.777 30.9661 36.5606C30.718 36.3442 30.5786 36.0507 30.5786 35.7447V28.2043C30.5786 27.8983 30.718 27.6048 30.9661 27.3884C31.2142 27.172 31.5507 27.0505 31.9016 27.0505C32.2524 27.0505 32.5889 27.172 32.837 27.3884C33.0851 27.6048 33.2245 27.8983 33.2245 28.2043V34.5909H57.3541V2.30769H33.2245V22.0998C33.2245 22.4058 33.0851 22.6993 32.837 22.9157C32.5889 23.132 32.2524 23.2536 31.9016 23.2536C31.5507 23.2536 31.2142 23.132 30.9661 22.9157C30.718 22.6993 30.5786 22.4058 30.5786 22.0998V1.15385C30.5786 0.847827 30.718 0.554342 30.9661 0.337954C31.2142 0.121566 31.5507 0 31.9016 0H58.6771C59.0279 0 59.3644 0.121566 59.6125 0.337954C59.8606 0.554342 60 0.847827 60 1.15385V35.7447C60 36.0507 59.8606 36.3442 59.6125 36.5606C59.3644 36.777 59.0279 36.8986 58.6771 36.8986Z" fill="#1A5B8C"/>
<path d="M52.1152 11.3057H38.4641C38.1132 11.3057 37.7767 11.1842 37.5286 10.9678C37.2805 10.7514 37.1411 10.4579 37.1411 10.1519C37.1411 9.84587 37.2805 9.55239 37.5286 9.336C37.7767 9.11961 38.1132 8.99805 38.4641 8.99805H52.1152C52.466 8.99805 52.8025 9.11961 53.0506 9.336C53.2987 9.55239 53.4381 9.84587 53.4381 10.1519C53.4381 10.4579 53.2987 10.7514 53.0506 10.9678C52.8025 11.1842 52.466 11.3057 52.1152 11.3057Z" fill="#1A5B8C"/>
<path d="M52.1152 19.6026H38.4641C38.1132 19.6026 37.7767 19.481 37.5286 19.2647C37.2805 19.0483 37.1411 18.7548 37.1411 18.4488C37.1411 18.1427 37.2805 17.8493 37.5286 17.6329C37.7767 17.4165 38.1132 17.2949 38.4641 17.2949H52.1152C52.466 17.2949 52.8025 17.4165 53.0506 17.6329C53.2987 17.8493 53.4381 18.1427 53.4381 18.4488C53.4381 18.7548 53.2987 19.0483 53.0506 19.2647C52.8025 19.481 52.466 19.6026 52.1152 19.6026Z" fill="#1A5B8C"/>
<path d="M52.1152 27.8995H38.4641C38.1132 27.8995 37.7767 27.7779 37.5286 27.5615C37.2805 27.3451 37.1411 27.0517 37.1411 26.7456C37.1411 26.4396 37.2805 26.1461 37.5286 25.9298C37.7767 25.7134 38.1132 25.5918 38.4641 25.5918H52.1152C52.466 25.5918 52.8025 25.7134 53.0506 25.9298C53.2987 26.1461 53.4381 26.4396 53.4381 26.7456C53.4381 27.0517 53.2987 27.3451 53.0506 27.5615C52.8025 27.7779 52.466 27.8995 52.1152 27.8995Z" fill="#1A5B8C"/>
<path d="M16.0593 59.9996C15.8717 59.9997 15.6862 59.9649 15.5151 59.8977C15.344 59.8304 15.1913 59.7322 15.0671 59.6095L0.331229 45.0501C0.0990598 44.8208 -0.0191697 44.5204 0.00253777 44.215C0.0242453 43.9096 0.184113 43.6243 0.446987 43.4217L6.09594 39.0725C6.22617 38.9721 6.37779 38.8951 6.54215 38.8458C6.70651 38.7966 6.88039 38.776 7.05384 38.7854C7.2273 38.7948 7.39694 38.8339 7.55307 38.9005C7.7092 38.967 7.84876 39.0598 7.96377 39.1734L22.6997 53.7328C22.9317 53.9622 23.0498 54.2627 23.028 54.568C23.0061 54.8734 22.8461 55.1587 22.5831 55.3612L16.9358 59.7112C16.6938 59.8973 16.3821 59.9999 16.0593 59.9996ZM3.18961 44.3881L16.1751 57.2174L19.8405 54.3948L6.85912 41.5655L3.18961 44.3881Z" fill="#1A5B8C"/>
</svg>
