<svg width="60" height="60" viewBox="0 0 60 60" fill="none" xmlns="http://www.w3.org/2000/svg">
<path d="M59.0281 0H54.8812C54.3445 0 53.9093 0.476312 53.9093 1.06383V17.0213H49.6328V4.46809C49.6328 3.88057 49.1977 3.40426 48.6609 3.40426H36.2203H23.7797H11.3391C10.8023 3.40426 10.3672 3.88057 10.3672 4.46809V17.0213H6.09071V1.06383C6.09071 0.476312 5.65555 0 5.11879 0H0.971922C0.435162 0 0 0.476312 0 1.06383V58.9362C0 59.5237 0.435162 60 0.971922 60H5.11879C5.65555 60 6.09071 59.5237 6.09071 58.9362V55.461H53.9093V58.9362C53.9093 59.5237 54.3445 60 54.8812 60H59.0281C59.5648 60 60 59.5237 60 58.9362V1.06383C60 0.476312 59.5648 0 59.0281 0ZM37.1922 14.6099H47.689V17.0213H37.1922V14.6099ZM47.689 12.4823H37.1922V5.53192H41.4687V6.73759C41.4687 7.32511 41.9038 7.80142 42.4406 7.80142C42.9774 7.80142 43.4125 7.32511 43.4125 6.73759V5.53192H47.689V12.4823ZM35.2484 17.0213H24.7516V5.53192H29.0281V6.73759C29.0281 7.32511 29.4632 7.80142 30 7.80142C30.5368 7.80142 30.9719 7.32511 30.9719 6.73759V5.53192H35.2484V17.0213ZM12.311 5.53192H16.5875V6.73759C16.5875 7.32511 17.0226 7.80142 17.5594 7.80142C18.0962 7.80142 18.5313 7.32511 18.5313 6.73759V5.53192H22.8078V17.0213H12.311V5.53192ZM53.9093 19.1489V35.1773H49.6328V22.6241C49.6328 22.0366 49.1977 21.5603 48.6609 21.5603H36.2203H23.7797H11.3391C10.8023 21.5603 10.3672 22.0366 10.3672 22.6241V35.1773H6.09071V19.1489H53.9093ZM24.7516 35.1773V23.6879H29.0281V24.8936C29.0281 25.4811 29.4632 25.9574 30 25.9574C30.5368 25.9574 30.9719 25.4811 30.9719 24.8936V23.6879H35.2484V35.1773H24.7516ZM12.311 35.1773V32.766H22.8078V35.1773H12.311ZM17.5594 25.9574C18.0962 25.9574 18.5313 25.4811 18.5313 24.8936V23.6879H22.8078V30.6383H12.311V23.6879H16.5875V24.8936C16.5875 25.4811 17.0226 25.9574 17.5594 25.9574ZM37.1922 23.6879H41.4687V24.8936C41.4687 25.4811 41.9038 25.9574 42.4406 25.9574C42.9774 25.9574 43.4125 25.4811 43.4125 24.8936V23.6879H47.689V35.1773H37.1922V23.6879ZM4.14687 57.8723H1.94384V2.12766H4.14687V57.8723ZM17.5594 44.1135C18.0962 44.1135 18.5313 43.6372 18.5313 43.0496V41.844H22.8078V53.3333H12.311V41.844H16.5875V43.0496C16.5875 43.6372 17.0226 44.1135 17.5594 44.1135ZM24.7516 41.844H29.0281V43.0496C29.0281 43.6372 29.4632 44.1135 30 44.1135C30.5368 44.1135 30.9719 43.6372 30.9719 43.0496V41.844H35.2484V48.7943H24.7516V41.844ZM24.7516 50.922H35.2484V53.3333H24.7516V50.922ZM37.1922 53.3333V41.844H41.4687V43.0496C41.4687 43.6372 41.9038 44.1135 42.4406 44.1135C42.9774 44.1135 43.4125 43.6372 43.4125 43.0496V41.844H47.689V53.3333H37.1922ZM49.6328 53.3333V40.7801C49.6328 40.1926 49.1977 39.7163 48.6609 39.7163H36.2203H23.7797H11.3391C10.8023 39.7163 10.3672 40.1926 10.3672 40.7801V53.3333H6.09071V37.305H53.9093V53.3333H49.6328ZM58.0562 57.8723H55.8531V2.12766H58.0562V57.8723Z" fill="#1A5B8C"/>
</svg>
