<svg width="66" height="70" viewBox="0 0 66 70" fill="none" xmlns="http://www.w3.org/2000/svg">
<path d="M28.5765 26.716V21.9677C29.3792 22.1654 30.1819 22.5364 31.0077 23.0559C31.2437 23.2042 31.4798 23.2787 31.7159 23.2787C32.4478 23.2787 33.0384 22.6851 33.0384 21.9183C33.0384 21.3251 32.7077 20.9537 32.3302 20.7314C31.2437 20.0141 30.0635 19.5442 28.6711 19.3709V18.8274C28.6711 18.2337 28.222 17.7638 27.6553 17.7638C27.0886 17.7638 26.6165 18.2337 26.6165 18.8274V19.3465C23.6655 19.5937 21.6595 21.4237 21.6595 24.0701C21.6595 26.8647 23.2649 28.2247 26.7111 29.1641V34.036C25.4132 33.7887 24.3268 33.22 23.2172 32.3792C23.005 32.2061 22.7213 32.1074 22.4383 32.1074C21.7064 32.1074 21.1397 32.7006 21.1397 33.4674C21.1397 33.9868 21.3757 34.3823 21.7771 34.6546C23.2172 35.7178 24.8465 36.3856 26.6165 36.5833V38.1165C26.6165 38.7102 27.0886 39.1801 27.6553 39.1801C28.222 39.1801 28.6711 38.7102 28.6711 38.1165V36.6328C31.6689 36.336 33.6988 34.5306 33.6988 31.8106C33.6988 29.1642 32.1649 27.656 28.5765 26.716ZM26.7111 26.1969C24.8934 25.5782 24.4452 24.9356 24.4452 23.8969C24.4452 22.8088 25.2002 21.9677 26.7111 21.8196V26.1969ZM28.5765 34.1351V29.6341C30.3941 30.2278 30.9131 30.8955 30.9131 31.9837C30.9131 33.1706 30.0874 33.962 28.5765 34.1351ZM27.1789 7.42277C16.099 7.42277 7.08496 16.8655 7.08496 28.4718C7.08496 40.0782 16.099 49.5209 27.1789 49.5209C38.2588 49.5209 47.2728 40.0782 47.2728 28.4718C47.2728 16.8655 38.2588 7.42277 27.1789 7.42277ZM27.1789 47.2509C17.2938 47.2509 9.25192 38.827 9.25192 28.4718C9.25192 18.1167 17.2938 9.69278 27.1789 9.69278C37.064 9.69278 45.1059 18.1167 45.1059 28.4718C45.1059 38.827 37.064 47.2509 27.1789 47.2509ZM63.302 58.2356L49.8529 44.1464C52.6967 39.6474 54.3582 34.2601 54.3582 28.4718C54.3582 12.7724 42.1656 0 27.1789 0C12.1921 0 0 12.7724 0 28.4718C0 44.1713 12.1926 56.9437 27.1789 56.9437C32.252 56.9437 37.0026 55.4761 41.0709 52.931L54.7184 67.227C55.8645 68.4285 57.389 69.09 59.0104 69.09C60.6318 69.09 62.1559 68.4285 63.302 67.227C64.4485 66.0264 65.08 64.4294 65.08 62.7313C65.08 61.0332 64.4485 59.4362 63.302 58.2356ZM2.16696 28.4718C2.16696 14.0244 13.3873 2.27002 27.1789 2.27002C40.9704 2.27002 52.1912 14.0244 52.1912 28.4718C52.1912 42.9192 40.9709 54.6736 27.1789 54.6736C13.3869 54.6736 2.16696 42.9192 2.16696 28.4718ZM48.5666 46.009L59.7363 57.7102L54.2172 63.4921L42.9213 51.6594C45.0518 50.0676 46.9534 48.1633 48.5666 46.009ZM61.7695 65.622C61.0326 66.3944 60.0528 66.82 59.0104 66.82C57.9679 66.82 56.9877 66.3944 56.2505 65.622L55.7493 65.0971L61.2683 59.3152L61.7699 59.8406C62.5072 60.6129 62.913 61.6389 62.913 62.7313C62.913 63.8237 62.5072 64.8497 61.7695 65.622Z" fill="#1A5B8C"/>
</svg>
