<svg width="60" height="60" viewBox="0 0 60 60" fill="none" xmlns="http://www.w3.org/2000/svg">
<path d="M5.22833 55.1565C5.25599 54.3416 6.07666 53.593 6.5746 52.9296C7.31228 51.9441 7.18318 50.7786 7.18318 49.613C6.95266 49.8499 6.72213 50.0868 6.49161 50.3237C7.15552 50.3237 7.81943 50.3237 8.48334 50.3237C8.25282 50.0868 8.02229 49.8499 7.79177 49.613C7.79177 50.5985 7.68111 51.6314 8.13294 52.5317C8.31736 52.9012 8.6401 53.2424 8.88907 53.574C9.11959 53.8867 9.44233 54.2942 9.59908 54.55C9.77428 54.8438 9.75584 55.1944 9.75584 55.5166C9.75584 55.9904 9.75584 56.4642 9.75584 56.938C9.75584 57.7245 9.75584 58.5015 9.75584 59.288C9.98637 59.0511 10.2169 58.8142 10.4474 58.5773C8.47412 58.5773 6.51005 58.5773 4.53675 58.5773C3.64232 58.5773 3.64232 59.9987 4.53675 59.9987C6.51005 59.9987 8.47412 59.9987 10.4474 59.9987C10.8255 59.9987 11.139 59.6766 11.139 59.288C11.139 58.5394 11.139 57.7814 11.139 57.0327C11.139 56.2083 11.2128 55.346 11.0652 54.5311C10.9638 53.9815 10.6134 53.5551 10.2999 53.1286C10.014 52.7496 9.72818 52.3611 9.43311 51.982C9.02738 51.4419 9.18414 50.3427 9.18414 49.613C9.18414 49.2245 8.87062 48.9023 8.49256 48.9023C7.82865 48.9023 7.16474 48.9023 6.50083 48.9023C6.12277 48.9023 5.80925 49.2245 5.80925 49.613C5.80925 50.03 5.80925 50.4469 5.80925 50.8544C5.80925 51.3092 5.75393 51.7262 5.5234 52.0294C4.80416 52.977 3.9005 53.8867 3.8544 55.1565C3.80829 56.0757 5.19144 56.0757 5.22833 55.1565Z" fill="#1A5B8C"/>
<path d="M28.6405 44.4783C28.6405 49.1215 28.6405 53.7553 28.6405 58.3985C28.6405 58.6923 28.6405 58.986 28.6405 59.2893C28.8711 59.0524 29.1016 58.8155 29.3321 58.5786C24.823 58.5786 20.3047 58.5786 15.7957 58.5786C15.5375 58.5786 15.2793 58.5786 15.0119 58.5786C15.2424 58.8155 15.4729 59.0524 15.7035 59.2893C15.7035 54.646 15.7035 50.0123 15.7035 45.369C15.7035 45.0753 15.7035 44.7815 15.7035 44.4783C15.4729 44.7152 15.2424 44.9521 15.0119 45.189C19.521 45.189 24.0393 45.189 28.5483 45.189C28.8065 45.189 29.0647 45.189 29.3321 45.189C30.2265 45.189 30.2265 43.7676 29.3321 43.7676C24.823 43.7676 20.3047 43.7676 15.7957 43.7676C15.5375 43.7676 15.2793 43.7676 15.0119 43.7676C14.6338 43.7676 14.3203 44.0898 14.3203 44.4783C14.3203 49.1215 14.3203 53.7553 14.3203 58.3985C14.3203 58.6923 14.3203 58.986 14.3203 59.2893C14.3203 59.6778 14.6338 60 15.0119 60C19.521 60 24.0393 60 28.5483 60C28.8065 60 29.0647 60 29.3321 60C29.7102 60 30.0237 59.6778 30.0237 59.2893C30.0237 54.646 30.0237 50.0123 30.0237 45.369C30.0237 45.0753 30.0237 44.7815 30.0237 44.4783C30.0237 43.5686 28.6405 43.5686 28.6405 44.4783Z" fill="#1A5B8C"/>
<path d="M43.6614 58.5786C39.1524 58.5786 34.6341 58.5786 30.125 58.5786C29.8668 58.5786 29.6086 58.5786 29.3412 58.5786C29.5718 58.8155 29.8023 59.0524 30.0328 59.2893C30.0328 54.646 30.0328 50.0123 30.0328 45.369C30.0328 45.0753 30.0328 44.7815 30.0328 44.4783C29.8023 44.7152 29.5718 44.9521 29.3412 45.189C33.8503 45.189 38.3686 45.189 42.8777 45.189C43.1359 45.189 43.394 45.189 43.6614 45.189C43.4309 44.9521 43.2004 44.7152 42.9699 44.4783C42.9699 49.1215 42.9699 53.7553 42.9699 58.3985C42.9699 58.6923 42.9699 58.986 42.9699 59.2893C42.9699 60.2084 44.353 60.2084 44.353 59.2893C44.353 54.646 44.353 50.0123 44.353 45.369C44.353 45.0753 44.353 44.7815 44.353 44.4783C44.353 44.0898 44.0395 43.7676 43.6614 43.7676C39.1524 43.7676 34.6341 43.7676 30.125 43.7676C29.8668 43.7676 29.6086 43.7676 29.3412 43.7676C28.9632 43.7676 28.6497 44.0898 28.6497 44.4783C28.6497 49.1215 28.6497 53.7553 28.6497 58.3985C28.6497 58.6923 28.6497 58.986 28.6497 59.2893C28.6497 59.6778 28.9632 60 29.3412 60C33.8503 60 38.3686 60 42.8777 60C43.1359 60 43.394 60 43.6614 60C44.5467 60 44.5467 58.5786 43.6614 58.5786Z" fill="#1A5B8C"/>
<path d="M14.3202 29.6755C14.3202 34.3188 14.3202 38.9525 14.3202 43.5958C14.3202 43.8895 14.3202 44.1833 14.3202 44.4865C14.5507 44.2496 14.7813 44.0127 15.0118 43.7758C10.5027 43.7758 5.98443 43.7758 1.47536 43.7758C1.21717 43.7758 0.958984 43.7758 0.691575 43.7758C0.9221 44.0127 1.15263 44.2496 1.38315 44.4865C1.38315 39.8433 1.38315 35.2095 1.38315 30.5663C1.38315 30.2725 1.38315 29.9788 1.38315 29.6755C1.15263 29.9124 0.9221 30.1493 0.691575 30.3862C5.20065 30.3862 9.71894 30.3862 14.228 30.3862C14.4862 30.3862 14.7444 30.3862 15.0118 30.3862C15.9062 30.3862 15.9062 28.9648 15.0118 28.9648C10.5027 28.9648 5.98443 28.9648 1.47536 28.9648C1.21717 28.9648 0.958984 28.9648 0.691575 28.9648C0.313514 28.9648 0 29.287 0 29.6755C0 34.3188 0 38.9525 0 43.5958C0 43.8895 0 44.1833 0 44.4865C0 44.875 0.313514 45.1972 0.691575 45.1972C5.20065 45.1972 9.71894 45.1972 14.228 45.1972C14.4862 45.1972 14.7444 45.1972 15.0118 45.1972C15.3899 45.1972 15.7034 44.875 15.7034 44.4865C15.7034 39.8433 15.7034 35.2095 15.7034 30.5663C15.7034 30.2725 15.7034 29.9788 15.7034 29.6755C15.7034 28.7564 14.3202 28.7564 14.3202 29.6755Z" fill="#1A5B8C"/>
<path d="M15.0211 28.9653C10.512 28.9653 5.99371 28.9653 1.48464 28.9653C1.22645 28.9653 0.968262 28.9653 0.700853 28.9653C0.931378 29.2022 1.1619 29.4391 1.39243 29.676C1.39243 25.0327 1.39243 20.399 1.39243 15.7557C1.39243 15.462 1.39243 15.1682 1.39243 14.865C1.1619 15.1019 0.931378 15.3388 0.700853 15.5757C5.20992 15.5757 9.72821 15.5757 14.2373 15.5757C14.4955 15.5757 14.7537 15.5757 15.0211 15.5757C14.7905 15.3388 14.56 15.1019 14.3295 14.865C14.3295 19.5082 14.3295 24.142 14.3295 28.7852C14.3295 29.079 14.3295 29.3727 14.3295 29.676C14.3295 30.5951 15.7126 30.5951 15.7126 29.676C15.7126 25.0327 15.7126 20.399 15.7126 15.7557C15.7126 15.462 15.7126 15.1682 15.7126 14.865C15.7126 14.4765 15.3991 14.1543 15.0211 14.1543C10.512 14.1543 5.99371 14.1543 1.48464 14.1543C1.22645 14.1543 0.968262 14.1543 0.700853 14.1543C0.322791 14.1543 0.00927734 14.4765 0.00927734 14.865C0.00927734 19.5082 0.00927734 24.142 0.00927734 28.7852C0.00927734 29.079 0.00927734 29.3727 0.00927734 29.676C0.00927734 30.0645 0.322791 30.3867 0.700853 30.3867C5.20992 30.3867 9.72821 30.3867 14.2373 30.3867C14.4955 30.3867 14.7537 30.3867 15.0211 30.3867C15.9063 30.3867 15.9063 28.9653 15.0211 28.9653Z" fill="#1A5B8C"/>
<path d="M29.3411 43.7661C24.8321 43.7661 20.3138 43.7661 15.8047 43.7661C15.5465 43.7661 15.2883 43.7661 15.0209 43.7661C15.2514 44.003 15.482 44.2399 15.7125 44.4768C15.7125 39.8335 15.7125 35.1998 15.7125 30.5565C15.7125 30.2628 15.7125 29.969 15.7125 29.6658C15.482 29.9027 15.2514 30.1396 15.0209 30.3765C19.53 30.3765 24.0483 30.3765 28.5574 30.3765C28.8155 30.3765 29.0737 30.3765 29.3411 30.3765C29.1106 30.1396 28.8801 29.9027 28.6496 29.6658C28.6496 34.309 28.6496 38.9428 28.6496 43.586C28.6496 43.8798 28.6496 44.1735 28.6496 44.4768C28.6496 45.3959 30.0327 45.3959 30.0327 44.4768C30.0327 39.8335 30.0327 35.1998 30.0327 30.5565C30.0327 30.2628 30.0327 29.969 30.0327 29.6658C30.0327 29.2773 29.7192 28.9551 29.3411 28.9551C24.8321 28.9551 20.3138 28.9551 15.8047 28.9551C15.5465 28.9551 15.2883 28.9551 15.0209 28.9551C14.6429 28.9551 14.3293 29.2773 14.3293 29.6658C14.3293 34.309 14.3293 38.9428 14.3293 43.586C14.3293 43.8798 14.3293 44.1735 14.3293 44.4768C14.3293 44.8653 14.6429 45.1875 15.0209 45.1875C19.53 45.1875 24.0483 45.1875 28.5574 45.1875C28.8155 45.1875 29.0737 45.1875 29.3411 45.1875C30.2264 45.1875 30.2264 43.7661 29.3411 43.7661Z" fill="#1A5B8C"/>
<path d="M9.30399 40.7341C9.30399 41.985 9.30399 43.2358 9.30399 44.4866C9.53452 44.2497 9.76504 44.0128 9.99557 43.7759C6.89731 43.7759 3.78983 43.7759 0.691575 43.7759C0.9221 44.0128 1.15263 44.2497 1.38315 44.4866C1.38315 43.2358 1.38315 41.985 1.38315 40.7341C1.15263 40.971 0.9221 41.2079 0.691575 41.4448C3.78983 41.4448 6.89731 41.4448 9.99557 41.4448C10.89 41.4448 10.89 40.0234 9.99557 40.0234C6.89731 40.0234 3.78983 40.0234 0.691575 40.0234C0.313514 40.0234 0 40.3456 0 40.7341C0 41.985 0 43.2358 0 44.4866C0 44.8751 0.313514 45.1973 0.691575 45.1973C3.78983 45.1973 6.89731 45.1973 9.99557 45.1973C10.3736 45.1973 10.6871 44.8751 10.6871 44.4866C10.6871 43.2358 10.6871 41.985 10.6871 40.7341C10.6871 39.815 9.30399 39.815 9.30399 40.7341Z" fill="#1A5B8C"/>
<path d="M7.48745 40.024C5.21909 40.024 2.95994 40.024 0.691575 40.024C0.9221 40.2609 1.15263 40.4978 1.38315 40.7347C1.38315 39.4838 1.38315 38.233 1.38315 36.9822C1.15263 37.2191 0.9221 37.456 0.691575 37.6929C2.95994 37.6929 5.21909 37.6929 7.48745 37.6929C7.25693 37.456 7.0264 37.2191 6.79588 36.9822C6.79588 38.233 6.79588 39.4838 6.79588 40.7347C6.79588 41.6539 8.17903 41.6539 8.17903 40.7347C8.17903 39.4838 8.17903 38.233 8.17903 36.9822C8.17903 36.5937 7.86551 36.2715 7.48745 36.2715C5.21909 36.2715 2.95994 36.2715 0.691575 36.2715C0.313514 36.2715 0 36.5937 0 36.9822C0 38.233 0 39.4838 0 40.7347C0 41.1232 0.313514 41.4454 0.691575 41.4454C2.95994 41.4454 5.21909 41.4454 7.48745 41.4454C8.38189 41.4454 8.38189 40.024 7.48745 40.024Z" fill="#1A5B8C"/>
<path d="M10.4475 58.5781C8.47416 58.5781 6.51009 58.5781 4.53679 58.5781C3.64236 58.5781 3.64236 59.9995 4.53679 59.9995C6.51009 59.9995 8.47416 59.9995 10.4475 59.9995C11.3419 59.9995 11.3419 58.5781 10.4475 58.5781Z" fill="#1A5B8C"/>
<path d="M14.3202 44.4783C14.3202 49.1215 14.3202 53.7553 14.3202 58.3985C14.3202 58.6923 14.3202 58.986 14.3202 59.2893C14.5507 59.0524 14.7813 58.8155 15.0118 58.5786C10.5027 58.5786 5.98443 58.5786 1.47536 58.5786C1.21717 58.5786 0.958984 58.5786 0.691575 58.5786C0.9221 58.8155 1.15263 59.0524 1.38315 59.2893C1.38315 54.646 1.38315 50.0123 1.38315 45.369C1.38315 45.0753 1.38315 44.7815 1.38315 44.4783C1.15263 44.7152 0.9221 44.9521 0.691575 45.189C5.20065 45.189 9.71894 45.189 14.228 45.189C14.4862 45.189 14.7444 45.189 15.0118 45.189C15.9062 45.189 15.9062 43.7676 15.0118 43.7676C10.5027 43.7676 5.98443 43.7676 1.47536 43.7676C1.21717 43.7676 0.958984 43.7676 0.691575 43.7676C0.313514 43.7676 0 44.0898 0 44.4783C0 49.1215 0 53.7553 0 58.3985C0 58.6923 0 58.986 0 59.2893C0 59.6778 0.313514 60 0.691575 60C5.20065 60 9.71894 60 14.228 60C14.4862 60 14.7444 60 15.0118 60C15.3899 60 15.7034 59.6778 15.7034 59.2893C15.7034 54.646 15.7034 50.0123 15.7034 45.369C15.7034 45.0753 15.7034 44.7815 15.7034 44.4783C15.7034 43.5686 14.3202 43.5686 14.3202 44.4783Z" fill="#1A5B8C"/>
<path d="M3.84521 55.1569C3.84521 56.5309 3.84521 57.9144 3.84521 59.2884C3.84521 60.2076 5.22836 60.2076 5.22836 59.2884C5.22836 57.9144 5.22836 56.5309 5.22836 55.1569C5.22836 54.2472 3.84521 54.2472 3.84521 55.1569Z" fill="#1A5B8C"/>
<path d="M25.6713 43.7677C23.3384 43.7677 21.0054 43.7677 18.6725 43.7677C18.9031 44.0046 19.1336 44.2415 19.3641 44.4784C19.3641 41.863 19.3641 39.2477 19.3641 36.6228C19.1336 36.8597 18.9031 37.0966 18.6725 37.3335C21.0054 37.3335 23.3384 37.3335 25.6713 37.3335C25.4407 37.0966 25.2102 36.8597 24.9797 36.6228C24.9797 39.2382 24.9797 41.8536 24.9797 44.4784C24.9797 45.3976 26.3628 45.3976 26.3628 44.4784C26.3628 41.863 26.3628 39.2477 26.3628 36.6228C26.3628 36.2343 26.0493 35.9121 25.6713 35.9121C23.3384 35.9121 21.0054 35.9121 18.6725 35.9121C18.2945 35.9121 17.981 36.2343 17.981 36.6228C17.981 39.2382 17.981 41.8536 17.981 44.4784C17.981 44.8669 18.2945 45.1891 18.6725 45.1891C21.0054 45.1891 23.3384 45.1891 25.6713 45.1891C26.5657 45.1891 26.5657 43.7677 25.6713 43.7677Z" fill="#1A5B8C"/>
<path d="M21.4849 36.6308C21.4849 39.2462 21.4849 41.8615 21.4849 44.4864C21.4849 45.4056 22.868 45.4056 22.868 44.4864C22.868 41.871 22.868 39.2556 22.868 36.6308C22.868 35.7116 21.4849 35.7116 21.4849 36.6308Z" fill="#1A5B8C"/>
<path d="M18.6818 41.2651C21.0147 41.2651 23.3476 41.2651 25.6806 41.2651C26.575 41.2651 26.575 39.8438 25.6806 39.8438C23.3476 39.8438 21.0147 39.8438 18.6818 39.8438C17.7874 39.8438 17.7874 41.2651 18.6818 41.2651Z" fill="#1A5B8C"/>
<path d="M23.6796 35.9208C23.1816 35.9208 22.6745 35.9208 22.1765 35.9208C22.4071 36.1577 22.6376 36.3946 22.8681 36.6315C22.8681 36.2619 22.8681 35.9018 22.8681 35.5323C22.8681 35.1532 22.8036 34.7458 23.2462 34.6226C23.5966 34.5278 24.0207 34.6415 24.1222 35.0111C24.2144 35.3712 24.1037 35.8924 23.6796 35.9208C22.7944 35.9682 22.7851 37.3896 23.6796 37.3422C24.8414 37.2758 25.5053 36.3756 25.5053 35.229C25.5053 34.0919 24.7492 33.2012 23.6058 33.2012C22.5638 33.2012 21.5495 33.7508 21.485 34.9448C21.4573 35.5038 21.4757 36.0724 21.4757 36.6315C21.4757 37.02 21.7893 37.3422 22.1673 37.3422C22.6653 37.3422 23.1724 37.3422 23.6703 37.3422C24.574 37.3422 24.574 35.9208 23.6796 35.9208Z" fill="#1A5B8C"/>
<path d="M22.1858 35.9212C21.7063 35.9212 21.2176 35.9212 20.7381 35.9212C20.2494 35.9212 20.0373 35.1726 20.3323 34.8031C20.6274 34.4335 21.4942 34.5662 21.4942 35.1063C21.4942 35.618 21.4942 36.1297 21.4942 36.6319C21.4942 37.5511 22.8773 37.5511 22.8773 36.6319C22.8773 35.8928 23.0249 34.9168 22.6837 34.2345C22.0659 33.0121 20.4061 32.8984 19.4379 33.7039C18.9492 34.1208 18.8662 34.7841 18.8662 35.3906C18.8662 36.1108 19.1889 36.6983 19.7699 37.0868C20.4153 37.5227 21.4665 37.3426 22.195 37.3426C23.0802 37.3426 23.0802 35.9212 22.1858 35.9212Z" fill="#1A5B8C"/>
<path d="M43.6614 58.5786C40.5447 58.5786 37.4372 58.5786 34.3205 58.5786C34.551 58.8155 34.7815 59.0524 35.0121 59.2893C35.0121 55.6979 35.0121 52.097 35.0121 48.5056C34.7815 48.7425 34.551 48.9794 34.3205 49.2163C37.4372 49.2163 40.5447 49.2163 43.6614 49.2163C43.4308 48.9794 43.2003 48.7425 42.9698 48.5056C42.9698 52.097 42.9698 55.6979 42.9698 59.2893C42.9698 60.2085 44.3529 60.2085 44.3529 59.2893C44.3529 55.6979 44.3529 52.097 44.3529 48.5056C44.3529 48.1171 44.0394 47.7949 43.6614 47.7949C40.5447 47.7949 37.4372 47.7949 34.3205 47.7949C33.9424 47.7949 33.6289 48.1171 33.6289 48.5056C33.6289 52.097 33.6289 55.6979 33.6289 59.2893C33.6289 59.6778 33.9424 60 34.3205 60C37.4372 60 40.5447 60 43.6614 60C44.5466 60 44.5466 58.5786 43.6614 58.5786Z" fill="#1A5B8C"/>
<path d="M38.2949 48.5136C38.2949 52.105 38.2949 55.6964 38.2949 59.2973C38.2949 60.2165 39.6781 60.2165 39.6781 59.2973C39.6781 55.7059 39.6781 52.1145 39.6781 48.5136C39.6781 47.5944 38.2949 47.5944 38.2949 48.5136Z" fill="#1A5B8C"/>
<path d="M34.3206 58.5785C32.6608 58.5785 31.001 58.5785 29.3412 58.5785C29.5718 58.8154 29.8023 59.0523 30.0328 59.2892C30.0328 56.8254 30.0328 54.3522 30.0328 51.8884C29.8023 52.1253 29.5718 52.3622 29.3412 52.5991C31.001 52.5991 32.6608 52.5991 34.3206 52.5991C34.0901 52.3622 33.8595 52.1253 33.629 51.8884C33.629 54.3522 33.629 56.8254 33.629 59.2892C33.629 60.2084 35.0122 60.2084 35.0122 59.2892C35.0122 56.8254 35.0122 54.3522 35.0122 51.8884C35.0122 51.4999 34.6986 51.1777 34.3206 51.1777C32.6608 51.1777 31.001 51.1777 29.3412 51.1777C28.9632 51.1777 28.6497 51.4999 28.6497 51.8884C28.6497 54.3522 28.6497 56.8254 28.6497 59.2892C28.6497 59.6777 28.9632 59.9999 29.3412 59.9999C31.001 59.9999 32.6608 59.9999 34.3206 59.9999C35.215 59.9999 35.215 58.5785 34.3206 58.5785Z" fill="#1A5B8C"/>
<path d="M57.1596 8.66704L56.2704 8.01874C55.3811 7.37043 54.4902 6.72099 53.5921 6.08515C52.6472 5.41533 51.6979 4.70304 50.78 4.01283C49.7194 3.21618 48.6224 2.39235 47.5094 1.61835C47.3601 1.51474 47.2069 1.3964 47.0477 1.27467C46.2505 0.663163 45.0912 -0.117634 43.8234 0.0148579C42.1039 0.188117 40.7678 1.98072 40.7678 3.4806V7.43611C40.7678 7.43611 40.7204 7.43498 40.6179 7.43498C36.8603 7.43498 18.1819 8.40999 18.1819 27.6598C18.1819 28.2125 18.605 28.6818 19.1345 28.7741C19.1957 28.7855 19.275 28.79 19.3356 28.79C19.7973 28.79 20.2287 28.4899 20.3852 28.029C20.5241 27.6213 23.8172 18.0485 38.6135 18.0485C39.3562 18.0485 40.2162 18.0734 40.7672 18.1221V21.8109C40.7672 23.0413 41.651 24.2722 42.8053 24.9454C43.2069 25.1799 43.7055 25.2988 44.1513 25.2988C45.2471 25.2988 46.1584 24.5995 46.8626 24.0373C47.0516 23.8866 47.2472 23.7417 47.4174 23.6296C48.0731 23.1953 48.7287 22.7276 49.3541 22.2752C49.6709 22.0465 49.9915 21.8172 50.3067 21.5946C52.0395 20.3739 53.7772 19.0909 55.4566 17.8509L55.9354 17.4976C56.1536 17.3373 56.3756 17.1794 56.5971 17.0208C56.7822 16.8895 56.9668 16.7576 57.115 16.6488C58.3999 15.7859 59.9999 14.7119 59.9999 12.6452C60.001 10.6544 58.677 9.72868 57.1596 8.66704ZM55.8764 14.7775C55.7007 14.9061 55.5216 15.0329 55.3431 15.1603C55.1117 15.3251 54.8797 15.4904 54.6516 15.6585L54.1728 16.0124C52.5034 17.2456 50.7778 18.5207 49.0648 19.7279C48.7414 19.956 48.4185 20.1899 48.0951 20.4237C47.4879 20.8625 46.8609 21.3166 46.2438 21.7243C46.008 21.8794 45.7733 22.0669 45.5463 22.2486C45.1309 22.5798 44.5623 23.0339 44.2212 23.0339C44.1794 23.0339 43.9816 23.0271 43.894 22.9756C43.4466 22.7146 42.9716 22.2135 42.9716 21.8104V17.0701C42.9716 16.4824 42.6719 15.9926 42.1022 15.9422C40.9138 15.8363 39.8102 15.7837 38.6873 15.7837C28.928 15.7837 23.6392 19.6741 20.8927 22.9343C21.9141 18.1895 24.6051 14.6552 28.8977 12.3938C33.5132 9.96195 38.7242 9.6998 40.7468 9.6998C41.3314 9.6998 41.678 9.61317 41.6973 9.61487C41.7209 9.616 41.7496 9.50899 41.7733 9.50899H42.1452C42.7535 9.50899 42.9716 9.2174 42.9716 8.59231V3.4806C42.9716 2.95799 43.6042 2.31252 44.0389 2.26836C44.4824 2.23665 45.1342 2.68508 45.6598 3.08879C45.8483 3.23317 46.0642 3.37246 46.24 3.49419C47.3193 4.24498 48.4169 5.05692 49.4621 5.84168C50.3921 6.54038 51.3629 7.26342 52.3332 7.95023C53.2224 8.58041 54.11 9.22419 54.9905 9.86683L55.9007 10.5282C57.5123 11.6549 57.796 11.972 57.796 12.6458C57.796 13.3654 57.2153 13.8773 55.8764 14.7775Z" fill="#1A5B8C"/>
</svg>
