<svg width="60" height="60" viewBox="0 0 60 60" fill="none" xmlns="http://www.w3.org/2000/svg">
<path fill-rule="evenodd" clip-rule="evenodd" d="M40.8641 14.0381C41.1957 14.5261 41.1589 15.2694 40.7821 15.6973L33.5365 23.9483C33.1606 24.3755 32.5888 24.3319 32.2554 23.845L29.2605 19.4709C28.9274 18.983 28.9623 18.2396 29.3379 17.8099C29.7138 17.3788 30.2884 17.424 30.6214 17.9104L33.0154 21.4079L39.5809 13.9316C39.958 13.5034 40.5326 13.5505 40.8641 14.0381ZM42.0584 25.5403C42.0608 25.5356 42.0632 25.5308 42.0656 25.5277C44.5969 21.4986 44.5969 15.6769 42.0656 11.6494C41.8448 11.2602 41.1262 10.3296 40.8201 10.0389C37.7086 6.76739 33.2137 6.76579 30.1009 10.0342L29.4418 10.8027C26.1241 15.0953 26.1241 22.0806 29.4418 26.3732L30.0982 27.1401C33.2109 30.4117 37.7077 30.4117 40.8201 27.1386C41.1888 26.7838 41.76 26.0112 42.0584 25.5403ZM45.7863 18.5877C45.7863 10.9831 40.9031 4.88852 34.9436 5.24141C32.386 5.39288 29.9617 6.79986 28.1561 9.14037C24.1294 14.3501 24.1294 22.827 28.1561 28.037C32.2116 33.2851 38.742 33.2366 42.7616 28.037C44.716 25.509 45.7863 22.1499 45.7863 18.5877ZM58.173 44.1612L55.2006 47.9895C55.1861 47.9895 55.1797 47.9816 55.1772 47.9785L46.9951 37.3909V37.3312C47.0235 37.3312 49.9158 33.5045 49.9678 33.5045C49.9766 33.5045 49.9854 33.5077 49.9909 33.5155L58.173 44.1019C58.1842 44.1172 58.1842 44.147 58.173 44.1612ZM45.6156 31.7306C45.7189 31.5975 45.8196 31.4607 45.9193 31.3244L47.4928 33.3599L46.8757 34.1583L45.3022 32.1227C45.4079 31.9943 45.5127 31.8638 45.6156 31.7306ZM26.5874 30.0667C31.4907 36.4107 39.4267 36.4103 44.3299 30.0667C49.2217 23.7385 49.2217 13.439 44.3299 7.11078C39.4269 0.767403 31.4905 0.766431 26.5877 7.11078C21.6963 13.439 21.696 23.7385 26.5874 30.0667ZM59.4586 42.4392L51.2766 31.8512C50.5951 30.97 49.5111 30.9213 48.7845 31.7055L47.0847 29.5053C51.163 22.242 50.6741 11.9916 45.6156 5.44689C40.0023 -1.81586 30.9152 -1.8154 25.3018 5.44689C19.7013 12.6925 19.7013 24.4834 25.3018 31.7306C30.3216 38.2255 38.2269 38.9811 43.8973 33.633L45.5959 35.8304C44.9862 36.7744 45.032 38.1776 45.7097 39.0548L53.8915 49.6411C54.6142 50.5762 55.7868 50.5764 56.5093 49.6411L59.4586 45.8255C60.1805 44.8919 60.1805 43.3722 59.4586 42.4392ZM34.6697 57.6474H19.153V41.5406H23.3642V45.0318C23.3642 46.2565 24.1343 47.2524 25.0807 47.2524H28.7415C29.688 47.2524 30.4581 46.2565 30.4581 45.0318V41.5406H34.6697V57.6474ZM1.81825 41.5406H6.02954V45.0318C6.02954 46.2565 6.79961 47.2524 7.74607 47.2524H11.4068C12.3533 47.2524 13.1234 46.2565 13.1234 45.0318V41.5406H17.3347V57.6474H1.81825V41.5406ZM6.02954 4.62333V8.11293C6.02954 9.33759 6.79961 10.3351 7.74607 10.3351H11.4068C12.3533 10.3351 13.1234 9.33759 13.1234 8.11293V4.62333H17.3347V20.7286H1.81825V4.62333H6.02954ZM7.8475 4.62333V7.98298H11.3052V4.62333H7.8475ZM7.8475 23.0812H11.3052V26.4404H7.8475V23.0812ZM1.81825 39.188H17.3347V23.0812H13.1234V26.5724C13.1234 27.7971 12.3533 28.793 11.4068 28.793H7.74607C6.79961 28.793 6.02954 27.7971 6.02954 26.5724V23.0812H1.81825V39.188ZM7.8475 41.5406V44.8997H11.3052V41.5406H7.8475ZM25.1825 41.5406H28.6402V44.8997H25.1825V41.5406ZM35.5785 39.188H19.153V3.44709C19.153 2.79641 18.746 2.2708 18.2438 2.2708H0.909111C0.406883 2.2708 0 2.79641 0 3.44709V58.8237C0 59.4732 0.406883 60 0.909111 60H35.5785C36.0807 60 36.4876 59.4732 36.4876 58.8237V40.3643C36.4876 39.7149 36.0807 39.188 35.5785 39.188Z" fill="#1A5B8C"/>
</svg>
