<svg width="35" height="35" viewBox="0 0 35 35" fill="none" xmlns="http://www.w3.org/2000/svg">
<path fill-rule="evenodd" clip-rule="evenodd" d="M7.70322 16.234H27.4031V10.6347H21.1269C20.468 10.6347 19.5511 10.3015 19.1169 9.89422C18.6827 9.48694 18.4185 8.75214 18.4185 8.13695V2.17593H2.47159C2.41693 2.17593 2.37443 2.20156 2.3471 2.2272C2.30155 2.25568 2.28941 2.2927 2.28941 2.34681V32.6646C2.28941 32.7045 2.31673 32.7557 2.34406 32.7814C2.37139 32.8212 2.42908 32.8326 2.46855 32.8326C9.38536 32.8326 20.1067 32.8326 27.2178 32.8326C27.2725 32.8326 27.2695 32.807 27.2998 32.7814C27.3423 32.7557 27.4 32.7016 27.4 32.6646V29.4861H7.70322C6.44617 29.4861 5.40774 28.5178 5.40774 27.333V18.3843C5.40774 17.2024 6.4401 16.234 7.70322 16.234ZM8.95419 19.196H12.9591C13.8306 19.196 14.4834 19.3897 14.9206 19.7799C15.3548 20.1701 15.5704 20.7226 15.5704 21.4432C15.5704 22.1808 15.3336 22.759 14.8599 23.1748C14.3862 23.5906 13.6636 23.7985 12.6919 23.7985H11.3711V26.5013H8.95419V19.196ZM11.3681 22.3204H11.9602C12.4278 22.3204 12.7557 22.2435 12.944 22.0925C13.1322 21.9416 13.2263 21.7479 13.2263 21.5115C13.2263 21.2808 13.1444 21.0872 12.9804 20.9277C12.8164 20.7682 12.5098 20.6884 12.0543 20.6884H11.3651V22.3204H11.3681ZM16.6939 19.196H20.2707C20.9751 19.196 21.5459 19.2872 21.9801 19.4637C22.4143 19.6432 22.7726 19.8995 23.058 20.2356C23.3404 20.5717 23.5469 20.9618 23.6714 21.4061C23.7989 21.8504 23.8627 22.3232 23.8627 22.8216C23.8627 23.602 23.7685 24.2086 23.5773 24.6387C23.389 25.0688 23.1248 25.4305 22.7878 25.721C22.4508 26.0115 22.0894 26.2051 21.7038 26.302C21.1755 26.4358 20.6988 26.5013 20.2707 26.5013H16.6939V19.196ZM19.0956 20.8508V24.8409H19.6877C20.1917 24.8409 20.55 24.7868 20.7656 24.6843C20.9781 24.5789 21.1451 24.3966 21.2666 24.1374C21.388 23.8754 21.4488 23.4539 21.4488 22.87C21.4488 22.0954 21.3152 21.5685 21.0449 21.2808C20.7747 20.996 20.3284 20.8536 19.7029 20.8536H19.0956V20.8508ZM24.9709 19.196H30.9222V20.7682H27.3879V22.0441H30.4121V23.5251H27.3879V26.5042H24.974V19.196H24.9709ZM29.6894 16.234H32.7045C33.9676 16.234 35 17.2052 35 18.3872V27.3358C35 28.5178 33.9646 29.489 32.7045 29.489H29.6894V33.3481C29.6894 33.8067 29.4921 34.2139 29.1732 34.5158C28.8514 34.8177 28.4172 35 27.9283 35C18.9893 35 10.7456 35 1.76108 35C1.27223 35 0.838032 34.8177 0.516179 34.5158C0.194326 34.2139 0 33.8067 0 33.3481V1.66612C0 1.20758 0.197363 0.800309 0.516179 0.498413C0.838032 0.196517 1.28438 0.0142404 1.76108 0.0142404H19.5905C19.63 0 19.6725 0 19.715 0C19.9093 0 20.1067 0.0797461 20.2464 0.196517H20.2737C20.301 0.210758 20.3162 0.22215 20.3435 0.247783L29.4496 8.89454C29.6044 9.03979 29.7168 9.23631 29.7168 9.45846C29.7168 9.52396 29.7016 9.57523 29.6894 9.64358V16.234ZM20.4984 7.96607V2.54618L27.0053 8.7265H21.3091C21.0844 8.7265 20.8901 8.63537 20.7352 8.50435C20.5956 8.37334 20.4984 8.17682 20.4984 7.96607Z" fill="#004D91"/>
</svg>
