<svg width="14" height="14" viewBox="0 0 14 14" fill="none" xmlns="http://www.w3.org/2000/svg">
<path d="M5 0H1.5C0.671573 0 0 0.671573 0 1.5V5C0 5.82843 0.671573 6.5 1.5 6.5H5C5.82843 6.5 6.5 5.82843 6.5 5V1.5C6.5 0.671573 5.82843 0 5 0Z" fill="#1A5B8C"/>
<path d="M10.75 6.5C12.5449 6.5 14 5.04493 14 3.25C14 1.45507 12.5449 0 10.75 0C8.95507 0 7.5 1.45507 7.5 3.25C7.5 5.04493 8.95507 6.5 10.75 6.5Z" fill="#1A5B8C"/>
<path d="M12.5 7.5H9C8.17157 7.5 7.5 8.17157 7.5 9V12.5C7.5 13.3284 8.17157 14 9 14H12.5C13.3284 14 14 13.3284 14 12.5V9C14 8.17157 13.3284 7.5 12.5 7.5Z" fill="#1A5B8C"/>
<path d="M5 7.5H1.5C0.671573 7.5 0 8.17157 0 9V12.5C0 13.3284 0.671573 14 1.5 14H5C5.82843 14 6.5 13.3284 6.5 12.5V9C6.5 8.17157 5.82843 7.5 5 7.5Z" fill="#1A5B8C"/>
</svg>
