<svg width="30" height="28" viewBox="0 0 30 28" fill="none" xmlns="http://www.w3.org/2000/svg">
<path d="M9.32761 16.7504H25.3605L30 4.34309H6.61489L5.51936 0H0V1.43811H4.4447L5.35938 5.06215H5.36286L8.11384 15.9666L6.63575 20.4931H25.5866V19.055H8.5764L9.32761 16.7504ZM15.0417 10.207L16.5129 11.7278V7.04674H17.904V11.7278L19.3751 10.207L20.3594 11.2244L17.2084 14.4818L14.0575 11.2244L15.0417 10.207Z" fill="white"/>
<path d="M12.6282 25.0024C12.6282 26.6562 11.3275 28.0008 9.72768 28.0008C8.12787 28.0008 6.82715 26.6562 6.82715 25.0024C6.82715 23.3485 8.12787 22.0039 9.72768 22.0039C11.3275 22.0039 12.6282 23.3485 12.6282 25.0024Z" fill="white"/>
<path d="M24.6614 25.0024C24.6614 26.6562 23.3607 28.0008 21.7609 28.0008C20.1611 28.0008 18.8604 26.6562 18.8604 25.0024C18.8604 23.3485 20.1611 22.0039 21.7609 22.0039C23.3607 22.0039 24.6614 23.3485 24.6614 25.0024Z" fill="white"/>
</svg>
