<svg width="30" height="28" viewBox="0 0 30 28" fill="none" xmlns="http://www.w3.org/2000/svg">
<path d="M29.4663 5.2984H19.7949V12.3588C19.7949 13.2595 18.9593 13.9921 17.932 13.9921C16.9047 13.9921 16.069 13.2595 16.069 12.3588V5.2984H6.81287L5.93996 2.24648C5.88141 2.04115 5.6685 1.89648 5.42367 1.89648H0.532266C0.239518 1.89648 0 2.10181 0 2.36313C0 2.61978 0.239518 2.82977 0.532266 2.82977H5.00876L7.6488 12.0318C7.6488 12.0365 7.65412 12.0412 7.65412 12.0458L9.219 17.5195L8.73729 18.153C8.18506 18.8786 8.13583 19.7699 8.60422 20.5387C9.0726 21.3075 9.94686 21.7672 10.9422 21.7672H25.9959C26.29 21.7672 26.5282 21.5584 26.5282 21.3005C26.5282 21.0427 26.29 20.8339 25.9959 20.8339H10.9408C10.346 20.8339 9.8231 20.5586 9.5423 20.0989C9.26153 19.6393 9.29213 19.105 9.62214 18.671L10.0799 18.0702H26.0758C26.3154 18.0702 26.5283 17.9256 26.5921 17.7156L29.9827 5.8767C30.0252 5.73671 29.988 5.59205 29.8868 5.48006C29.7857 5.36341 29.6314 5.29807 29.4663 5.29807L29.4663 5.2984Z" fill="white"/>
<path d="M26.0173 25.4235C26.0173 26.8456 24.7013 27.9994 23.0792 27.9994C21.4571 27.9994 20.1411 26.8456 20.1411 25.4235C20.1411 24.0014 21.4571 22.8477 23.0792 22.8477C24.7013 22.8477 26.0173 24.0014 26.0173 25.4235Z" fill="white"/>
<path d="M14.1421 25.4235C14.1421 26.8456 12.8261 27.9994 11.204 27.9994C9.58191 27.9994 8.26587 26.8456 8.26587 25.4235C8.26587 24.0014 9.58191 22.8477 11.204 22.8477C12.8261 22.8477 14.1421 24.0014 14.1421 25.4235Z" fill="white"/>
<path d="M17.9318 12.8246C18.2299 12.8246 18.4641 12.6146 18.4641 12.3579V1.59242L20.2951 3.19768C20.4015 3.29101 20.5346 3.33301 20.673 3.33301C20.806 3.33301 20.9444 3.29101 21.0509 3.19768C21.2585 3.01569 21.2585 2.72169 21.0509 2.53972L18.3097 0.136495C18.1021 -0.0454982 17.7668 -0.0454982 17.5592 0.136495L14.818 2.53972C14.6105 2.72171 14.6105 3.01571 14.818 3.19768C15.0256 3.37965 15.3663 3.37967 15.5739 3.19768L17.3996 1.59242V12.3579C17.3996 12.6146 17.639 12.8246 17.9318 12.8246Z" fill="white"/>
</svg>
