<svg width="15" height="14" viewBox="0 0 15 14" fill="none" xmlns="http://www.w3.org/2000/svg">
<path d="M5.64296 0H2.24694C1.44313 0 0.791504 0.671573 0.791504 1.5V5C0.791504 5.82843 1.44313 6.5 2.24694 6.5H5.64296C6.44678 6.5 7.0984 5.82843 7.0984 5V1.5C7.0984 0.671573 6.44678 0 5.64296 0Z" fill="#1A5B8C"/>
<path d="M11.2221 6.5C12.9637 6.5 14.3756 5.04493 14.3756 3.25C14.3756 1.45507 12.9637 0 11.2221 0C9.48054 0 8.0687 1.45507 8.0687 3.25C8.0687 5.04493 9.48054 6.5 11.2221 6.5Z" fill="#1A5B8C"/>
<path d="M12.9202 7.5H9.52413C8.72032 7.5 8.0687 8.17157 8.0687 9V12.5C8.0687 13.3284 8.72032 14 9.52413 14H12.9202C13.724 14 14.3756 13.3284 14.3756 12.5V9C14.3756 8.17157 13.724 7.5 12.9202 7.5Z" fill="#1A5B8C"/>
<path d="M5.64296 7.5H2.24694C1.44313 7.5 0.791504 8.17157 0.791504 9V12.5C0.791504 13.3284 1.44313 14 2.24694 14H5.64296C6.44678 14 7.0984 13.3284 7.0984 12.5V9C7.0984 8.17157 6.44678 7.5 5.64296 7.5Z" fill="#1A5B8C"/>
</svg>
