<svg width="55" height="50" viewBox="0 0 55 50" fill="none" xmlns="http://www.w3.org/2000/svg">
<path d="M24.3363 0C10.8959 0 0 10.7625 0 24.0385C0 37.3144 10.8959 48.0769 24.3363 48.0769C37.7768 48.0769 48.6727 37.3144 48.6727 24.0385C48.6727 10.7625 37.7768 0 24.3363 0ZM24.3363 45.9447C12.0879 45.9447 2.15863 36.137 2.15863 24.0385C2.15863 11.9399 12.0879 2.13221 24.3363 2.13221C36.5848 2.13221 46.5135 11.9399 46.5135 24.0385C46.5135 36.137 36.5848 45.9447 24.3363 45.9447Z" fill="#1A5B8C"/>
<path d="M26.0794 22.0159C23.4501 21.0798 22.3797 20.4154 22.3797 19.449C22.3797 18.6038 23.0217 17.7279 25.009 17.7279C27.21 17.7279 28.6468 18.4221 29.411 18.7846L30.328 15.3721C29.2582 14.8894 27.8827 14.4361 25.8647 14.376V11.7188H22.8689V14.5875C19.5976 15.1913 17.7023 17.275 17.7023 19.9625C17.7023 22.8918 19.9339 24.4014 23.2047 25.4885C25.4977 26.2433 26.4765 26.9683 26.4765 28.1154C26.4765 29.2928 25.284 29.9875 23.5109 29.9875C21.5236 29.9875 19.7203 29.3534 18.4363 28.6586L17.5188 32.1918C18.6806 32.826 20.6674 33.3995 22.7161 33.4904V36.3591H25.7425V33.249C29.2582 32.6755 31.1535 30.3803 31.1535 27.6928C31.154 24.9452 29.7171 23.2841 26.0794 22.0159Z" fill="#1A5B8C"/>
<path d="M54.0001 37.9802C54.0001 44.0543 49.0116 48.9994 42.832 48.9994C36.6523 48.9994 31.6638 44.0543 31.6638 37.9802C31.6638 31.906 36.6523 26.9609 42.832 26.9609C49.0116 26.9609 54.0001 31.906 54.0001 37.9802Z" fill="white" stroke="#EA4656" stroke-width="2"/>
<line x1="37.5833" y1="37.5918" x2="47.9083" y2="37.5918" stroke="#EA4656" stroke-width="3"/>
</svg>
