<svg width="24" height="24" viewBox="0 0 24 24" fill="none" xmlns="http://www.w3.org/2000/svg">
<path d="M12 24C18.614 24 24 18.614 24 12C24 5.38605 18.614 0 12 0C5.38605 0 0 5.38605 0 12C0 18.614 5.38605 24 12 24ZM5.86047 11.5256C6.30698 11.0791 7.00465 11.0791 7.45116 11.5256L10.0744 14.1488L15.9907 8.23256C16.4372 7.78605 17.1349 7.78605 17.5814 8.23256C18.0279 8.67907 18.0279 9.37675 17.5814 9.82326L10.8837 16.5209C10.6605 16.7442 10.3814 16.8558 10.1023 16.8558C9.82326 16.8558 9.54419 16.7442 9.32093 16.5209L5.86047 13.1163C5.44186 12.6698 5.44186 11.9721 5.86047 11.5256Z" fill="#5B954B"/>
</svg>
