<svg width="64" height="48" viewBox="0 0 64 48" fill="none" xmlns="http://www.w3.org/2000/svg">
<path d="M63.4257 32.7233L59.2441 29.5514C59.4509 28.5203 59.5553 27.4697 59.5553 26.4159C59.5553 25.3622 59.4509 24.3116 59.2441 23.2808L63.4257 20.1089C64.009 19.667 64.171 18.8622 63.8051 18.2298L60.7867 13.0184C60.4201 12.3863 59.6392 12.1222 58.9642 12.4058L54.1147 14.4301C52.5246 13.0364 50.6693 11.9688 48.6684 11.2943L48.0034 6.09844C47.9103 5.37433 47.2921 4.83187 46.5596 4.83187H40.5221C39.7895 4.83187 39.1714 5.37433 39.0783 6.09844L38.4132 11.2943C37.4505 11.6181 36.5232 12.0336 35.6396 12.534C32.1914 8.81344 27.3801 6.37002 22.004 5.99296V2.90068H24.5371C25.3407 2.90068 25.9923 2.25128 25.9923 1.45034C25.9923 0.649395 25.3407 0 24.5371 0H16.5606C15.7569 0 15.1054 0.649395 15.1054 1.45034C15.1054 2.25128 15.7569 2.90068 16.5606 2.90068H19.0936V5.99296C8.43993 6.74017 0 15.6112 0 26.4159C0 37.7088 9.21784 46.8963 20.5488 46.8963C26.5107 46.8963 31.8853 44.3506 35.6423 40.2952C36.5258 40.7954 37.4509 41.2142 38.4132 41.5379L39.0783 46.7334C39.1714 47.4575 39.7895 48 40.5221 48H46.5596C47.2921 48 47.9103 47.4575 48.0034 46.7334L48.6684 41.5376C50.67 40.863 52.5246 39.7951 54.1147 38.4018L58.9642 40.4264C59.6392 40.7086 60.4208 40.4466 60.7867 39.8139L63.8051 34.6024C64.171 33.97 64.009 33.1652 63.4257 32.7233ZM20.5488 43.9956C10.8229 43.9956 2.91037 36.1094 2.91037 26.4159C2.91037 16.7228 10.8229 8.83659 20.5488 8.83659C30.2747 8.83659 38.1873 16.7228 38.1873 26.4159C38.1873 36.1094 30.2747 43.9956 20.5488 43.9956ZM40.8588 23.2918C41.6088 22.6512 42.5422 22.2859 43.5405 22.2859C45.8256 22.2859 47.6851 24.1384 47.6851 26.4159C47.6851 28.6934 45.8256 30.546 43.5405 30.546C42.5476 30.546 41.6013 30.1874 40.8562 29.5543C41.0148 28.5309 41.0976 27.4829 41.0976 26.4159C41.0976 25.3539 41.0159 24.3107 40.8588 23.2918ZM58.9066 37.2574L54.3712 35.3641C53.8305 35.1378 53.2017 35.2593 52.7825 35.6739C51.1681 37.2751 49.1566 38.4333 46.9646 39.0232C46.3954 39.1762 45.9755 39.6567 45.9002 40.2395L45.2785 45.0993H41.8032L41.1815 40.2395C41.1062 39.6567 40.6862 39.1762 40.1171 39.0228C39.2021 38.7769 38.3261 38.4245 37.49 37.9897C38.6279 36.3403 39.5309 34.5185 40.1481 32.5706C41.177 33.1342 42.3383 33.4467 43.5405 33.4467C47.4307 33.4467 50.5954 30.2928 50.5954 26.4159C50.5954 22.539 47.4307 19.3852 43.5405 19.3852C42.3333 19.3852 41.1741 19.6886 40.1454 20.2535C39.5281 18.308 38.6258 16.4883 37.4889 14.8407C38.325 14.4059 39.2021 14.0551 40.1171 13.8087C40.6862 13.6557 41.1062 13.1752 41.1815 12.5924L41.8032 7.73255H45.2785L45.9002 12.5924C45.9755 13.1752 46.3954 13.6557 46.9646 13.8087C49.1559 14.3986 51.1681 15.5568 52.7825 17.1583C53.201 17.573 53.8291 17.6941 54.3712 17.4678L58.9066 15.5745L60.6439 18.5743L56.7338 21.5405C56.2648 21.896 56.0574 22.498 56.208 23.0656C56.4979 24.1572 56.645 25.2843 56.645 26.4159C56.645 27.5476 56.4979 28.675 56.208 29.7667C56.0574 30.3343 56.2648 30.9362 56.7338 31.2917L60.6439 34.2579L58.9066 37.2574Z" fill="#1A5B8C"/>
<path d="M25.5502 15.9605C25.3133 15.8181 25.0055 15.894 24.8625 16.1301L20.3626 23.5618C18.8595 23.6593 17.667 24.8928 17.667 26.4155C17.667 28.0019 18.9573 29.2879 20.549 29.2879C22.1407 29.2879 23.431 28.0019 23.431 26.4155C23.431 25.7865 23.2223 25.2096 22.8783 24.7365L25.764 16.5535C25.8411 16.335 25.7571 16.0849 25.5502 15.9605Z" fill="#1A5B8C"/>
<path d="M20.5489 39.6172C20.1467 39.6172 19.8213 39.9419 19.8213 40.3424V41.4273C19.8213 41.8278 20.1467 42.1524 20.5489 42.1524C20.951 42.1524 21.2765 41.8278 21.2765 41.4273V40.3424C21.2765 39.9419 20.951 39.6172 20.5489 39.6172Z" fill="#1A5B8C"/>
<path d="M20.5489 13.3989C20.951 13.3989 21.2765 13.0742 21.2765 12.6737V11.5885C21.2765 11.188 20.951 10.8633 20.5489 10.8633C20.1467 10.8633 19.8213 11.188 19.8213 11.5885V12.6737C19.8213 13.0742 20.1467 13.3989 20.5489 13.3989Z" fill="#1A5B8C"/>
<path d="M6.66819 25.7832H5.57964C5.17748 25.7832 4.85205 26.1079 4.85205 26.5084C4.85205 26.9088 5.17748 27.2335 5.57964 27.2335H6.66819C7.07036 27.2335 7.39578 26.9088 7.39578 26.5084C7.39578 26.1079 7.07036 25.7832 6.66819 25.7832Z" fill="#1A5B8C"/>
<path d="M35.5178 25.7832H34.4293C34.0271 25.7832 33.7017 26.1079 33.7017 26.5084C33.7017 26.9088 34.0271 27.2335 34.4293 27.2335H35.5178C35.92 27.2335 36.2454 26.9088 36.2454 26.5084C36.2454 26.1079 35.92 25.7832 35.5178 25.7832Z" fill="#1A5B8C"/>
<path d="M10.4784 15.4468C10.1941 15.1636 9.73371 15.1636 9.44949 15.4468C9.16527 15.7301 9.16527 16.1893 9.44949 16.4723L10.2197 17.2396C10.3618 17.3812 10.548 17.452 10.7341 17.452C10.9203 17.452 11.1065 17.3812 11.2486 17.2396C11.5328 16.9563 11.5328 16.497 11.2486 16.2141L10.4784 15.4468Z" fill="#1A5B8C"/>
<path d="M30.8778 35.7769C30.5936 35.4936 30.1331 35.4936 29.8489 35.7769C29.5647 36.0602 29.5647 36.5194 29.8489 36.8023L30.6191 37.5696C30.7612 37.7113 30.9474 37.7821 31.1336 37.7821C31.3197 37.7821 31.5059 37.7113 31.648 37.5696C31.9322 37.2864 31.9322 36.8271 31.648 36.5442L30.8778 35.7769Z" fill="#1A5B8C"/>
<path d="M30.6191 15.4468L29.8489 16.2141C29.5647 16.497 29.5647 16.9563 29.8489 17.2396C29.991 17.3812 30.1772 17.452 30.3633 17.452C30.5495 17.452 30.7357 17.3812 30.8778 17.2396L31.648 16.4723C31.9322 16.1893 31.9322 15.7301 31.648 15.4468C31.3638 15.1636 30.9033 15.1636 30.6191 15.4468Z" fill="#1A5B8C"/>
<path d="M10.2197 35.7769L9.44949 36.5442C9.16527 36.8271 9.16527 37.2864 9.44949 37.5696C9.5916 37.7113 9.77776 37.7821 9.96392 37.7821C10.1501 37.7821 10.3362 37.7113 10.4784 37.5696L11.2486 36.8023C11.5328 36.5194 11.5328 36.0602 11.2486 35.7769C10.9644 35.4936 10.5039 35.4936 10.2197 35.7769Z" fill="#1A5B8C"/>
</svg>
