<svg width="14" height="14" viewBox="0 0 14 14" fill="none" xmlns="http://www.w3.org/2000/svg">
<path d="M5.93937 2.67929C5.93937 1.20715 4.60138 0 2.96968 0C1.33799 0 0 1.20715 0 2.67929C0 4.15142 1.33799 5.35857 2.96968 5.35857C4.60138 5.35857 5.93937 4.16614 5.93937 2.67929ZM3.91607 3.0326H3.34497V3.54784C3.34497 3.73922 3.16549 3.90116 2.95337 3.90116C2.74125 3.90116 2.56176 3.73922 2.56176 3.54784V3.0326H1.99067C1.77855 3.0326 1.59906 2.87066 1.59906 2.67929C1.59906 2.48791 1.77855 2.32597 1.99067 2.32597H2.56176V1.81073C2.56176 1.61935 2.74125 1.45741 2.95337 1.45741C3.16549 1.45741 3.34497 1.61935 3.34497 1.81073V2.32597H3.91607C4.12819 2.32597 4.30767 2.48791 4.30767 2.67929C4.30767 2.87066 4.1445 3.0326 3.91607 3.0326Z" fill="#1A5B8C"/>
<path d="M11.0302 0C9.39854 0 8.06055 1.20715 8.06055 2.67929C8.06055 4.15142 9.39854 5.35857 11.0302 5.35857C12.6619 5.35857 13.9999 4.15142 13.9999 2.67929C13.9999 1.20715 12.6782 0 11.0302 0ZM11.8461 3.0326H10.2144C10.0023 3.0326 9.82278 2.87066 9.82278 2.67929C9.82278 2.48791 10.0023 2.32597 10.2144 2.32597H11.8461C12.0582 2.32597 12.2377 2.48791 12.2377 2.67929C12.2377 2.87066 12.0745 3.0326 11.8461 3.0326Z" fill="#1A5B8C"/>
<path d="M11.6338 8.66996C11.3401 8.66996 11.079 8.81717 10.9322 9.02327V9.00855C10.9322 8.59635 10.5569 8.25776 10.1 8.25776C9.80629 8.25776 9.54522 8.40497 9.39836 8.61107V8.59635C9.39836 8.18415 9.02307 7.84556 8.5662 7.84556C8.2725 7.84556 8.01142 7.99278 7.86457 8.19888V5.6668C7.86457 5.46071 7.78299 5.26933 7.61982 5.13684C7.45665 4.98962 7.26085 4.91602 7.03241 4.91602C6.57553 4.91602 6.20024 5.25461 6.20024 5.6668V10.3187C6.20024 10.3629 6.16761 10.3924 6.13498 10.4218C6.08603 10.4365 6.03707 10.4365 6.00444 10.3924L5.12333 9.64157C4.82962 9.3913 4.38906 9.34714 4.04641 9.55324C3.8506 9.67101 3.72007 9.86239 3.68743 10.0832C3.6548 10.2893 3.72007 10.5101 3.86692 10.6721L5.97181 12.9686C6.57553 13.6163 7.44033 13.9991 8.38671 13.9991H9.70839C10.4426 13.9991 11.128 13.7341 11.6501 13.2777C12.1722 12.8067 12.4496 12.1884 12.4496 11.5259V9.45019C12.466 9.00855 12.0907 8.66996 11.6338 8.66996Z" fill="#1A5B8C"/>
</svg>
