<svg width="55" height="50" viewBox="0 0 55 50" fill="none" xmlns="http://www.w3.org/2000/svg">
<path d="M24.3364 0C10.8959 0 0 10.7625 0 24.0385C0 37.3144 10.8959 48.0769 24.3364 48.0769C37.7769 48.0769 48.6728 37.3144 48.6728 24.0385C48.6728 10.7625 37.7769 0 24.3364 0ZM24.3364 45.9447C12.0879 45.9447 2.15864 36.137 2.15864 24.0385C2.15864 11.9399 12.0879 2.13221 24.3364 2.13221C36.5849 2.13221 46.5137 11.9399 46.5137 24.0385C46.5137 36.137 36.5849 45.9447 24.3364 45.9447Z" fill="#1A5B8C"/>
<path d="M26.0791 22.0159C23.4498 21.0798 22.3795 20.4154 22.3795 19.449C22.3795 18.6038 23.0215 17.7279 25.0088 17.7279C27.2098 17.7279 28.6466 18.4221 29.4108 18.7846L30.3278 15.3721C29.258 14.8894 27.8825 14.4361 25.8645 14.376V11.7188H22.8687V14.5875C19.5974 15.1913 17.7021 17.275 17.7021 19.9625C17.7021 22.8918 19.9337 24.4014 23.2045 25.4885C25.4975 26.2433 26.4763 26.9683 26.4763 28.1154C26.4763 29.2928 25.2838 29.9875 23.5107 29.9875C21.5234 29.9875 19.72 29.3534 18.436 28.6587L17.5186 32.1918C18.6804 32.826 20.6672 33.3995 22.7158 33.4904V36.3591H25.7423V33.249C29.258 32.6755 31.1533 30.3803 31.1533 27.6928C31.1538 24.9452 29.7169 23.2841 26.0791 22.0159Z" fill="#1A5B8C"/>
<path d="M54 37.9802C54 44.0543 49.0115 48.9994 42.8318 48.9994C36.6521 48.9994 31.6636 44.0543 31.6636 37.9802C31.6636 31.906 36.6521 26.9609 42.8318 26.9609C49.0115 26.9609 54 31.906 54 37.9802Z" fill="white" stroke="#1A5B8C" stroke-width="2"/>
<line x1="37.5835" y1="37.5918" x2="47.9086" y2="37.5918" stroke="#1A5B8C" stroke-width="3"/>
<line x1="42.5" y1="42.9258" x2="42.5" y2="32.7271" stroke="#1A5B8C" stroke-width="3"/>
</svg>
