<svg width="30" height="30" viewBox="0 0 30 30" fill="none" xmlns="http://www.w3.org/2000/svg">
<path d="M4.57744 25.7431C5.81305 25.7431 6.93961 25.9714 7.76079 26.3403C7.90834 26.4067 8.04628 26.4775 8.17395 26.5525L21.735 22.9025C21.5489 22.6787 21.4475 22.4347 21.4475 22.1796C21.4475 21.8495 21.6169 21.5392 21.9191 21.2658L11.4189 17.728L11.3682 17.7511C10.6612 18.0689 9.6912 18.2659 8.63008 18.2659C7.56833 18.2659 6.60023 18.0689 5.89196 17.7511C5.14585 17.4158 4.68201 16.9451 4.68201 16.42C4.68201 15.8952 5.14585 15.4245 5.89196 15.0891C6.60023 14.7714 7.56833 14.5744 8.63008 14.5744C9.52568 14.5744 10.3565 14.7147 11.0186 14.9496L15.8526 12.7852C15.4683 12.5159 15.2444 12.1925 15.2444 11.8419C15.2444 11.5801 15.3721 11.3309 15.5986 11.1079C15.7423 10.9669 15.9264 10.8375 16.1445 10.7211C15.1713 9.83265 14.191 8.71295 13.4231 7.59959C12.5223 6.29414 11.9033 4.98496 11.9033 4.04279C11.9033 2.92757 12.6827 1.9164 13.9402 1.18535C15.2002 0.452805 16.9388 0 18.857 0C20.7758 0 22.5138 0.452805 23.7719 1.18386C25.0312 1.9164 25.8107 2.92757 25.8107 4.04279C25.8107 4.98496 25.1916 6.29414 24.2909 7.59921C23.5229 8.71183 22.5446 9.83116 21.572 10.72C21.7882 10.836 21.9723 10.9662 22.116 11.1075C22.3425 11.3309 22.4702 11.5801 22.4702 11.8419C22.4702 12.3257 22.0448 12.7584 21.3584 13.0664C20.7117 13.357 19.8264 13.5368 18.8576 13.5368C18.0544 13.5368 17.3089 13.4129 16.7084 13.2052L11.8776 15.3678C12.3196 15.6662 12.5782 16.0279 12.5782 16.42C12.5782 16.7169 12.4306 16.9962 12.1669 17.2439L22.6697 20.7828L22.7537 20.744C23.5197 20.3993 24.5725 20.186 25.7241 20.186C26.875 20.186 27.9278 20.3993 28.6938 20.744C29.5002 21.1065 30 21.6138 30 22.1796C30 22.7451 29.4996 23.2527 28.6938 23.6152C27.9278 23.9595 26.875 24.1728 25.7241 24.1728C24.5725 24.1728 23.5197 23.9595 22.7537 23.6152C22.6235 23.5567 22.501 23.494 22.3874 23.4284L8.82896 27.0784C9.03939 27.3235 9.15487 27.5905 9.15487 27.8717C9.15487 28.4752 8.62239 29.0164 7.76079 29.4029C6.93961 29.7717 5.81305 30 4.57744 30C3.34246 30 2.2159 29.7717 1.39472 29.4029C0.533126 29.0164 0 28.4752 0 27.8717C0 27.2683 0.533126 26.7267 1.39472 26.3403C2.2159 25.9714 3.34246 25.7431 4.57744 25.7431ZM20.8811 2.86565C20.364 2.56502 19.6474 2.37816 18.857 2.37816C18.0666 2.37816 17.35 2.56502 16.8329 2.86565C16.3158 3.16665 15.9944 3.5829 15.9944 4.04205C15.9944 4.50194 16.3152 4.91856 16.8316 5.21994C17.3493 5.52019 18.066 5.70631 18.857 5.70631C19.6474 5.70631 20.364 5.51982 20.8811 5.21919C21.3994 4.91856 21.7196 4.50194 21.7196 4.04205C21.7196 3.5829 21.3988 3.16665 20.8811 2.86565Z" fill="white"/>
</svg>
