<svg width="14" height="12" viewBox="0 0 14 12" fill="none" xmlns="http://www.w3.org/2000/svg">
<path d="M11.0833 0H2.91667C2.1434 0.00104097 1.40206 0.352565 0.855278 0.977461C0.308494 1.60236 0.000910846 2.4496 0 3.33333L0 8.66667C0.000910846 9.5504 0.308494 10.3976 0.855278 11.0225C1.40206 11.6474 2.1434 11.999 2.91667 12H11.0833C11.8566 11.999 12.5979 11.6474 13.1447 11.0225C13.6915 10.3976 13.9991 9.5504 14 8.66667V3.33333C13.9991 2.4496 13.6915 1.60236 13.1447 0.977461C12.5979 0.352565 11.8566 0.00104097 11.0833 0ZM12.8333 8.66667C12.8328 9.19692 12.6483 9.70529 12.3202 10.0802C11.9921 10.4552 11.5473 10.6661 11.0833 10.6667H2.91667C2.45269 10.6661 2.00787 10.4552 1.67979 10.0802C1.35171 9.70529 1.16718 9.19692 1.16667 8.66667V3.33333C1.16718 2.80308 1.35171 2.29471 1.67979 1.91976C2.00787 1.54482 2.45269 1.33392 2.91667 1.33333H11.0833C11.5473 1.33392 11.9921 1.54482 12.3202 1.91976C12.6483 2.29471 12.8328 2.80308 12.8333 3.33333V8.66667Z" fill="#1A5B8C"/>
<path d="M4.66667 4H2.33333C2.17862 4 2.03025 4.07024 1.92085 4.19526C1.81146 4.32029 1.75 4.48986 1.75 4.66667C1.75 4.84348 1.81146 5.01305 1.92085 5.13807C2.03025 5.2631 2.17862 5.33333 2.33333 5.33333H2.91667V7.33333C2.91667 7.51014 2.97812 7.67971 3.08752 7.80474C3.19692 7.92976 3.34529 8 3.5 8C3.65471 8 3.80308 7.92976 3.91248 7.80474C4.02187 7.67971 4.08333 7.51014 4.08333 7.33333V5.33333H4.66667C4.82138 5.33333 4.96975 5.2631 5.07915 5.13807C5.18854 5.01305 5.25 4.84348 5.25 4.66667C5.25 4.48986 5.18854 4.32029 5.07915 4.19526C4.96975 4.07024 4.82138 4 4.66667 4Z" fill="#1A5B8C"/>
<path d="M6.41683 2C6.26212 2 6.11375 2.07024 6.00435 2.19526C5.89495 2.32029 5.8335 2.48986 5.8335 2.66667V9.33333C5.8335 9.51014 5.89495 9.67971 6.00435 9.80474C6.11375 9.92976 6.26212 10 6.41683 10C6.57154 10 6.71991 9.92976 6.82931 9.80474C6.9387 9.67971 7.00016 9.51014 7.00016 9.33333V2.66667C7.00016 2.48986 6.9387 2.32029 6.82931 2.19526C6.71991 2.07024 6.57154 2 6.41683 2Z" fill="#1A5B8C"/>
<path d="M8.16683 5.33333H10.5002C10.6549 5.33333 10.8032 5.2631 10.9126 5.13807C11.022 5.01305 11.0835 4.84348 11.0835 4.66667C11.0835 4.48986 11.022 4.32029 10.9126 4.19526C10.8032 4.07024 10.6549 4 10.5002 4H8.16683C8.01212 4 7.86375 4.07024 7.75435 4.19526C7.64495 4.32029 7.5835 4.48986 7.5835 4.66667C7.5835 4.84348 7.64495 5.01305 7.75435 5.13807C7.86375 5.2631 8.01212 5.33333 8.16683 5.33333Z" fill="#1A5B8C"/>
<path d="M11.6668 6.66602H8.16683C8.01212 6.66602 7.86375 6.73625 7.75435 6.86128C7.64495 6.9863 7.5835 7.15587 7.5835 7.33268C7.5835 7.50949 7.64495 7.67906 7.75435 7.80409C7.86375 7.92911 8.01212 7.99935 8.16683 7.99935H11.6668C11.8215 7.99935 11.9699 7.92911 12.0793 7.80409C12.1887 7.67906 12.2502 7.50949 12.2502 7.33268C12.2502 7.15587 12.1887 6.9863 12.0793 6.86128C11.9699 6.73625 11.8215 6.66602 11.6668 6.66602Z" fill="#1A5B8C"/>
</svg>
