<svg width="24" height="24" viewBox="0 0 24 24" fill="none" xmlns="http://www.w3.org/2000/svg">
<path d="M11.8996 0.000301287C10.6689 0.00727774 9.4238 0.192854 8.20373 0.568117C2.62628 2.28429 -0.786335 7.49754 0.155747 12.8528C1.09779 18.2081 6.11809 22.1524 11.9975 22.1524C12.129 22.1528 12.2592 22.1294 12.3809 22.0833C12.5026 22.0373 12.6132 21.9695 12.7065 21.8839C12.7997 21.7984 12.8739 21.6967 12.9245 21.5847C12.9751 21.4727 13.0013 21.3526 13.0016 21.2312C13.0021 21.1094 12.9764 20.9887 12.9261 20.8761C12.8758 20.7635 12.8019 20.6611 12.7085 20.575C12.6152 20.4889 12.5044 20.4207 12.3823 20.3743C12.2603 20.3279 12.1295 20.3042 11.9975 20.3047C7.0852 20.3047 2.91389 17.0261 2.12679 12.5518C1.33969 8.07738 4.17865 3.75233 8.83867 2.31846C13.4987 0.884588 18.5776 2.77404 20.858 6.78892C23.1385 10.8038 21.9374 15.7383 18.0082 18.4588C17.9022 18.5311 17.8127 18.622 17.7449 18.7262C17.6771 18.8304 17.6322 18.946 17.613 19.0663C17.5937 19.1865 17.6006 19.3091 17.6328 19.427C17.665 19.5448 17.7222 19.6557 17.801 19.7531C17.8799 19.8503 17.9787 19.9322 18.0919 19.9941C18.2052 20.056 18.3306 20.0966 18.4609 20.1137C18.5912 20.1308 18.7238 20.124 18.8512 20.0936C18.9787 20.0633 19.0984 20.0101 19.2035 19.937C23.9063 16.6809 25.3592 10.7415 22.6297 5.93623C20.4974 2.18207 16.2953 -0.0296975 11.8996 0.000301287ZM17.0119 5.54151C16.7477 5.53818 16.4926 5.63149 16.3027 5.80104L11.9975 9.68383L8.69793 6.72036C8.50755 6.55118 8.25251 6.4584 7.98824 6.46232C7.72396 6.46624 7.47215 6.56653 7.28777 6.74128C7.19561 6.82793 7.12279 6.9305 7.07366 7.04312C7.02453 7.15575 7.00004 7.27621 7.00145 7.39761C7.00285 7.51901 7.03001 7.63897 7.08174 7.75061C7.13346 7.86224 7.20862 7.96338 7.30277 8.04819L11.3035 11.6317C11.4903 11.7998 11.7409 11.8939 12.0018 11.8939C12.2628 11.8939 12.5134 11.7998 12.7002 11.6317L17.7048 7.12163C17.7989 7.03682 17.8741 6.93573 17.9258 6.8241C17.9775 6.71247 18.0049 6.59251 18.0063 6.4711C18.0077 6.3497 17.983 6.22919 17.9339 6.11657C17.8848 6.00394 17.8122 5.90137 17.72 5.81472C17.6272 5.72818 17.5166 5.65946 17.3949 5.61246C17.2732 5.56547 17.1439 5.54174 17.0119 5.54151ZM15.0037 14.7726C14.8722 14.7721 14.742 14.7955 14.6203 14.8416C14.4986 14.8877 14.388 14.9554 14.2947 15.041C14.2015 15.1265 14.1273 15.2282 14.0767 15.3402C14.0261 15.4522 13.9999 15.5723 13.9997 15.6937V20.3047C13.9991 20.4265 14.0248 20.5472 14.0751 20.6598C14.1254 20.7725 14.1993 20.8748 14.2927 20.9609C14.386 21.0471 14.4969 21.1153 14.6189 21.1617C14.741 21.2081 14.8717 21.2317 15.0037 21.2312C15.269 21.2303 15.5229 21.1321 15.7097 20.9584C15.8966 20.7846 16.001 20.5495 16 20.3047V15.6937C15.9995 15.4499 15.8943 15.2161 15.7077 15.0435C15.521 14.871 15.268 14.7735 15.0037 14.7726ZM15.0017 22.1542C14.7364 22.1542 14.4821 22.2514 14.2945 22.4245C14.1069 22.5976 14.0017 22.8323 14.0017 23.0771C14.0017 23.3219 14.1069 23.5566 14.2945 23.7297C14.4821 23.9027 14.7364 24 15.0017 24C15.133 24 15.2631 23.9761 15.3844 23.9297C15.5058 23.8834 15.6162 23.8154 15.7091 23.7297C15.8019 23.644 15.8754 23.5422 15.9257 23.4303C15.976 23.3183 16.0018 23.1983 16.0018 23.0771C16.0018 22.9559 15.976 22.8359 15.9257 22.7239C15.8754 22.6119 15.8019 22.5102 15.7091 22.4245C15.6162 22.3388 15.5058 22.2708 15.3844 22.2244C15.2631 22.1781 15.133 22.1542 15.0017 22.1542Z" fill="#FE9F10"/>
</svg>
