<svg width="30" height="28" viewBox="0 0 30 28" fill="none" xmlns="http://www.w3.org/2000/svg">
<path d="M20.0368 2.81964L20.0053 3.87254C20.0046 3.90193 20.0185 3.92964 20.0412 3.94307C20.0624 3.95819 20.091 3.95483 20.1123 3.93804L20.8602 3.32594L21.7246 3.68614C21.7349 3.69118 21.7459 3.69202 21.7561 3.69034C21.7708 3.68782 21.7832 3.68027 21.7942 3.66935C21.8118 3.6492 21.8199 3.61813 21.8118 3.59043L21.5349 2.58538L22.1004 1.75498C22.1158 1.73231 22.1187 1.70041 22.1085 1.67438C22.0968 1.64751 22.0733 1.63072 22.0484 1.63072L21.129 1.62148L20.6148 0.74742C20.5862 0.698721 20.5115 0.710477 20.4954 0.765892L20.2031 1.76422L19.3204 2.05473C19.2954 2.06313 19.2771 2.08664 19.2727 2.11519C19.2683 2.14373 19.2786 2.17396 19.2984 2.19075L20.0368 2.81964Z" fill="white"/>
<path d="M8.35838 25.8069L8.13935 24.7834C8.13275 24.7548 8.11298 24.7321 8.08734 24.7263C8.06316 24.7204 8.03752 24.7305 8.0214 24.7531L7.44561 25.5751L6.52917 25.4987C6.4779 25.4945 6.4398 25.5684 6.46764 25.6171L6.97164 26.4987L6.62441 27.4744C6.61415 27.5012 6.61855 27.5323 6.63613 27.5541C6.65371 27.576 6.67935 27.5852 6.70426 27.5777L7.59139 27.3006L8.29245 27.9807C8.31223 28 8.33934 28.0042 8.36351 27.9933C8.38769 27.9824 8.4038 27.9547 8.40454 27.9261L8.44922 26.874L9.2294 26.319C9.23966 26.3132 9.24625 26.3031 9.25211 26.293C9.26017 26.2787 9.2631 26.2619 9.26163 26.246C9.2587 26.2174 9.24259 26.1923 9.21768 26.1813L8.35838 25.8069Z" fill="white"/>
<path d="M23.8999 5.24305L23.8742 6.11459C23.8728 6.13894 23.8852 6.16161 23.9028 6.17336C23.9211 6.18512 23.9453 6.1826 23.9614 6.16917L24.5812 5.66287L25.2961 5.96094C25.3057 5.96514 25.3145 5.96513 25.324 5.9643C25.3342 5.96262 25.3452 5.95674 25.354 5.94666C25.3694 5.92987 25.3753 5.90468 25.3694 5.88201L25.1401 5.04993L25.6082 4.36311C25.6229 4.3438 25.6243 4.31777 25.6148 4.29594C25.6053 4.27411 25.587 4.26067 25.5657 4.26067L24.8053 4.25228L24.379 3.52935C24.3555 3.48905 24.294 3.49829 24.2801 3.54531L24.0391 4.37235L23.3072 4.61332C23.2875 4.6192 23.2713 4.63935 23.2677 4.66286C23.264 4.68721 23.2728 4.71156 23.2889 4.72583L23.8999 5.24305Z" fill="white"/>
<path d="M24.9759 1.3474L24.9568 2.02247C24.9561 2.04094 24.9642 2.05942 24.9795 2.06781C24.9935 2.07705 25.011 2.07537 25.025 2.06445L25.5041 1.67318L26.0579 1.90324C26.0652 1.9066 26.0718 1.9066 26.0784 1.90576C26.0879 1.90492 26.0952 1.89988 26.1026 1.89233C26.1143 1.87889 26.1179 1.85958 26.1135 1.84195L25.937 1.19795L26.2989 0.665621C26.3091 0.650507 26.3113 0.630356 26.304 0.612723C26.2967 0.59593 26.282 0.585015 26.2659 0.585015L25.6762 0.579138L25.3466 0.019101C25.3282 -0.0111258 25.2806 -0.00440846 25.2704 0.0316959L25.0828 0.672337L24.5166 0.858737C24.5012 0.863774 24.4895 0.878888 24.4858 0.89736C24.4829 0.914993 24.4895 0.934304 24.5026 0.946059L24.9759 1.3474Z" fill="white"/>
<path d="M4.74975 11.9722L4.96073 12.7245C4.96732 12.7455 4.98197 12.7606 5.00249 12.7639C5.02007 12.7673 5.04058 12.7581 5.05084 12.7396L5.44202 12.0914L6.13063 12.0939C6.13942 12.0939 6.14748 12.0922 6.15407 12.0872C6.1636 12.0822 6.17092 12.0729 6.17605 12.062C6.18484 12.0419 6.18264 12.0183 6.17092 12.0007L5.7541 11.3727L5.96947 10.6229C5.97533 10.6019 5.9702 10.5792 5.95628 10.5633C5.94163 10.5481 5.92185 10.5431 5.90427 10.5498L5.25449 10.8101L4.69847 10.3433C4.66844 10.3181 4.61789 10.3475 4.61862 10.3911L4.63401 11.1804L4.07506 11.6422C4.05968 11.6548 4.05162 11.6775 4.05455 11.6984C4.05748 11.7203 4.0714 11.7388 4.08971 11.7446L4.74975 11.9722Z" fill="white"/>
<path d="M26.625 19.4156L26.4565 18.6507C26.4462 18.6079 26.3905 18.5945 26.3671 18.6289L25.94 19.2486L25.2536 19.1973C25.2338 19.1948 25.2155 19.2066 25.2067 19.2259C25.1965 19.2435 25.1972 19.2679 25.2082 19.2863L25.5899 19.9429L25.3349 20.6768C25.3269 20.6969 25.3305 20.7204 25.3444 20.7372C25.3569 20.754 25.3767 20.7599 25.3957 20.754L26.058 20.5408L26.5883 21.0454C26.5942 21.0521 26.6023 21.0555 26.6088 21.058C26.6198 21.0605 26.6301 21.0588 26.6403 21.0538C26.6579 21.0454 26.6689 21.0261 26.6704 21.0034L26.6975 20.215L27.2806 19.7943C27.296 19.7826 27.3055 19.7616 27.3033 19.7397C27.3018 19.7179 27.2879 19.6994 27.2711 19.6919L26.625 19.4156Z" fill="white"/>
<path d="M29.0979 18.9871C29.1089 18.9896 29.1192 18.9888 29.1294 18.9837C29.1463 18.9753 29.158 18.9552 29.1587 18.9334L29.1866 18.1449L29.7689 17.7243C29.7851 17.7125 29.7946 17.6907 29.7917 17.6697C29.7902 17.6479 29.777 17.6286 29.7602 17.621L29.1126 17.3473L28.9441 16.5824C28.9338 16.5396 28.8789 16.5261 28.8554 16.5606L28.4284 17.1802L27.7412 17.129C27.7222 17.1265 27.7031 17.1391 27.6943 17.1575C27.6855 17.176 27.6855 17.1995 27.6965 17.218L28.0782 17.8746L27.8225 18.6076C27.8159 18.6277 27.8189 18.6512 27.8328 18.668C27.8452 18.6848 27.8657 18.6907 27.8833 18.6848L28.5463 18.4716L29.0759 18.9762C29.0833 18.9821 29.0899 18.9854 29.0979 18.9871Z" fill="white"/>
<path d="M29.9807 21.0067L29.5734 20.8346L29.4665 20.3518C29.4606 20.3258 29.4255 20.3166 29.4108 20.3384L29.142 20.7288L28.7097 20.6961C28.6973 20.6952 28.6863 20.7019 28.679 20.7137C28.6738 20.7255 28.6738 20.7406 28.6804 20.7523L28.9207 21.1663L28.7603 21.6272C28.7552 21.6407 28.7581 21.6549 28.7661 21.665C28.7749 21.6751 28.7867 21.6793 28.7984 21.6759L29.2159 21.5407L29.5493 21.859C29.5537 21.8632 29.5588 21.8648 29.5632 21.8665C29.5705 21.8682 29.5771 21.8674 29.583 21.8648C29.5939 21.8598 29.6005 21.8472 29.6013 21.8329L29.6189 21.3359L29.9859 21.0714C29.9954 21.063 30.0012 21.0504 29.9998 21.0361C30.0005 21.0235 29.9925 21.0118 29.9807 21.0067Z" fill="white"/>
<path d="M2.29348 13.9055C2.30373 13.9055 2.31179 13.903 2.32058 13.898C2.33084 13.8921 2.3389 13.882 2.34402 13.8703C2.35428 13.8484 2.35135 13.8224 2.33816 13.8031L1.87811 13.1096L2.11546 12.2817C2.12206 12.2582 2.11693 12.2321 2.10008 12.2162C2.08543 12.1985 2.06272 12.1935 2.04367 12.2011L1.32576 12.4882L0.712607 11.9735C0.678177 11.945 0.622502 11.9777 0.623968 12.0264L0.640816 12.8988L0.023266 13.4085C0.00641706 13.4227 -0.00237345 13.4471 0.000556805 13.4714C0.00495218 13.4949 0.0196034 13.5151 0.0393826 13.5218L0.769015 13.7729L1.00124 14.6024C1.00783 14.6259 1.02468 14.6427 1.04666 14.6461C1.06717 14.6503 1.08841 14.6385 1.10013 14.6192L1.53381 13.9022L2.29348 13.9055Z" fill="white"/>
<path d="M1.80549 9.07182L1.9857 9.71498C1.99083 9.73261 2.00401 9.74688 2.02086 9.74856C2.03625 9.75192 2.0531 9.74352 2.06262 9.72841L2.39813 9.17341L2.98785 9.17509C2.99444 9.17509 3.00176 9.17341 3.00689 9.17005C3.01568 9.16501 3.02154 9.15746 3.02594 9.14822C3.03253 9.13143 3.03107 9.11128 3.02081 9.09533L2.66479 8.55796L2.84866 7.91648C2.85379 7.898 2.84939 7.87869 2.83767 7.8661C2.82595 7.85266 2.80837 7.84847 2.79225 7.8535L2.23697 8.07685L1.76154 7.67802C1.73516 7.65619 1.69194 7.68138 1.69267 7.71916L1.70586 8.39423L1.22823 8.7897C1.21504 8.79977 1.20845 8.81908 1.21138 8.83756C1.21431 8.85519 1.22603 8.87198 1.24142 8.87618L1.80549 9.07182Z" fill="white"/>
<path d="M16.4744 21.0279C20.0611 19.9263 23.3327 18.4276 25.6857 16.8071C28.2738 15.0245 29.4569 13.2907 29.1075 11.7928C28.7419 10.2327 26.8373 9.4082 23.5979 9.4082C23.3254 9.4082 23.0411 9.41744 22.7554 9.43003C23.0382 9.84733 23.2939 10.2873 23.5224 10.7499C23.5473 10.7499 23.5737 10.7483 23.5986 10.7483C26.5911 10.7483 27.8284 11.4981 27.9786 12.1404C28.12 12.7466 27.4475 14.0312 25.0843 15.6585C22.8221 17.2168 19.6574 18.6635 16.1726 19.734C12.8541 20.7534 9.60081 21.3142 7.01486 21.3142C4.02234 21.3142 2.78651 20.5644 2.6356 19.923C2.49422 19.3167 3.16744 18.0313 5.52996 16.404C5.64277 16.326 5.76951 16.2487 5.88745 16.1715C5.88525 16.1244 5.87939 16.0825 5.87939 16.0312C5.87939 15.5409 5.91089 15.0598 5.96583 14.5871C5.60468 14.8079 5.25451 15.0304 4.92706 15.2563C2.33891 17.038 1.15583 18.7727 1.50526 20.2697C1.87081 21.8298 3.77547 22.6543 7.01413 22.6543C9.69971 22.6543 13.0592 22.0775 16.4744 21.0279Z" fill="white"/>
<path d="M15.9603 18.8286C18.9938 17.8966 21.768 16.6783 23.8932 15.3558C23.5892 10.2223 19.8626 6.16602 15.3068 6.16602C10.5525 6.16602 6.69775 10.5833 6.69775 16.0317C6.69775 17.5859 7.01276 19.0553 7.57024 20.3626C9.99209 20.2904 12.9407 19.7555 15.9603 18.8286Z" fill="white"/>
<path d="M9.61987 23.4358C11.1355 24.9673 13.1259 25.8984 15.3068 25.8984C19.0985 25.8984 22.3145 23.0873 23.4638 19.1855C21.4698 20.2309 19.1527 21.178 16.6862 21.9345C14.2321 22.6885 11.8058 23.1982 9.61987 23.4358Z" fill="white"/>
</svg>
